<?xml version="1.0" encoding="UTF-8"?>
<svg xmlns="http://www.w3.org/2000/svg" width="800.000" height="600.000" viewBox="0.0 0.0 800.000 600.000" version="1.1">
  <desc>Produce by Acme CAD Converter</desc>
<path d="M352.64 292.42L352.64 292.42Z"
fill="none" stroke="black" stroke-width="0.5"/>
<path d="M352.64 231.78L352.64 231.78Z"
fill="none" stroke="black" stroke-width="0.5"/>
<path d="M329.9 277.26L329.9 277.26Z"
fill="none" stroke="black" stroke-width="0.5"/>
<path d="M299.58 284.84L299.58 372.01Z"
fill="none" stroke="black" stroke-width="0.5"/>
<path d="M299.58 239.36L299.58 152.19Z"
fill="none" stroke="black" stroke-width="0.5"/>
<path d="M329.9 246.94L329.9 152.19Z"
fill="none" stroke="black" stroke-width="0.5"/>
<path d="M329.9 277.26L352.64 277.26"
fill="none" stroke="black" stroke-width="0.5"/>
<path d="M329.9 246.94L352.64 246.94"
fill="none" stroke="black" stroke-width="0.5"/>
<path d="M352.64 246.94L352.64 231.78Z"
fill="none" stroke="black" stroke-width="0.5"/>
<path d="M352.64 277.26L352.64 292.42Z"
fill="none" stroke="black" stroke-width="0.5"/>
<path d="M242.73 239.36L299.58 239.36"
fill="none" stroke="black" stroke-width="0.5"/>
<path d="M242.73 284.84L299.58 284.84"
fill="none" stroke="black" stroke-width="0.5"/>
<path d="M352.64 292.42L423.7 292.42"
fill="none" stroke="black" stroke-width="0.5"/>
<path d="M329.9 372.01L299.58 372.01"
fill="none" stroke="black" stroke-width="0.5"/>
<path d="M329.9 152.19L299.58 152.19"
fill="none" stroke="black" stroke-width="0.5"/>
<path d="M242.73 239.36L242.73 284.84Z"
fill="none" stroke="black" stroke-width="0.5"/>
<path d="M329.9 372.01L329.9 277.26Z"
fill="none" stroke="black" stroke-width="0.5"/>
<path d="M352.64 231.78L423.7 231.78"
fill="none" stroke="black" stroke-width="0.5"/>
<path d="M302.16 227.61L303.89 233.67"
fill="none" stroke="black" stroke-width="0.5"/>
<path d="M303.89 233.67L305.62 227.61"
fill="none" stroke="black" stroke-width="0.5"/>
<path d="M305.62 227.61L307.35 233.67"
fill="none" stroke="black" stroke-width="0.5"/>
<path d="M307.35 233.67L309.09 227.61"
fill="none" stroke="black" stroke-width="0.5"/>
<path d="M315.32 233.22L314.72 232.61"
fill="none" stroke="black" stroke-width="0.5"/>
<path d="M314.72 232.61L314.11 232.31"
fill="none" stroke="black" stroke-width="0.5"/>
<path d="M314.11 232.31L313.2 232.31"
fill="none" stroke="black" stroke-width="0.5"/>
<path d="M313.2 232.31L312.6 232.61"
fill="none" stroke="black" stroke-width="0.5"/>
<path d="M312.6 232.61L311.99 233.22"
fill="none" stroke="black" stroke-width="0.5"/>
<path d="M311.99 233.22L311.69 234.13"
fill="none" stroke="black" stroke-width="0.5"/>
<path d="M311.69 234.13L311.69 234.74Z"
fill="none" stroke="black" stroke-width="0.5"/>
<path d="M311.69 234.74L311.99 235.64"
fill="none" stroke="black" stroke-width="0.5"/>
<path d="M311.99 235.64L312.6 236.25"
fill="none" stroke="black" stroke-width="0.5"/>
<path d="M312.6 236.25L313.2 236.55"
fill="none" stroke="black" stroke-width="0.5"/>
<path d="M313.2 236.55L314.11 236.55"
fill="none" stroke="black" stroke-width="0.5"/>
<path d="M314.11 236.55L314.72 236.25"
fill="none" stroke="black" stroke-width="0.5"/>
<path d="M314.72 236.25L315.32 235.64"
fill="none" stroke="black" stroke-width="0.5"/>
<path d="M318.66 232.31L318.05 232.61"
fill="none" stroke="black" stroke-width="0.5"/>
<path d="M318.05 232.61L317.45 233.22"
fill="none" stroke="black" stroke-width="0.5"/>
<path d="M317.45 233.22L317.14 234.13"
fill="none" stroke="black" stroke-width="0.5"/>
<path d="M317.14 234.13L317.14 234.74Z"
fill="none" stroke="black" stroke-width="0.5"/>
<path d="M317.14 234.74L317.45 235.64"
fill="none" stroke="black" stroke-width="0.5"/>
<path d="M317.45 235.64L318.05 236.25"
fill="none" stroke="black" stroke-width="0.5"/>
<path d="M318.05 236.25L318.66 236.55"
fill="none" stroke="black" stroke-width="0.5"/>
<path d="M318.66 236.55L319.57 236.55"
fill="none" stroke="black" stroke-width="0.5"/>
<path d="M319.57 236.55L320.18 236.25"
fill="none" stroke="black" stroke-width="0.5"/>
<path d="M320.18 236.25L320.78 235.64"
fill="none" stroke="black" stroke-width="0.5"/>
<path d="M320.78 235.64L321.09 234.74"
fill="none" stroke="black" stroke-width="0.5"/>
<path d="M321.09 234.74L321.09 234.13Z"
fill="none" stroke="black" stroke-width="0.5"/>
<path d="M321.09 234.13L320.78 233.22"
fill="none" stroke="black" stroke-width="0.5"/>
<path d="M320.78 233.22L320.18 232.61"
fill="none" stroke="black" stroke-width="0.5"/>
<path d="M320.18 232.61L319.57 232.31"
fill="none" stroke="black" stroke-width="0.5"/>
<path d="M319.57 232.31L318.66 232.31"
fill="none" stroke="black" stroke-width="0.5"/>
<path d="M322.9 236.55L322.9 232.31Z"
fill="none" stroke="black" stroke-width="0.5"/>
<path d="M322.9 233.52L323.81 232.61"
fill="none" stroke="black" stroke-width="0.5"/>
<path d="M323.81 232.61L324.42 232.31"
fill="none" stroke="black" stroke-width="0.5"/>
<path d="M324.42 232.31L325.33 232.31"
fill="none" stroke="black" stroke-width="0.5"/>
<path d="M325.33 232.31L325.94 232.61"
fill="none" stroke="black" stroke-width="0.5"/>
<path d="M325.94 232.61L326.24 233.52"
fill="none" stroke="black" stroke-width="0.5"/>
<path d="M326.24 233.52L326.24 236.55Z"
fill="none" stroke="black" stroke-width="0.5"/>
<path d="M329.58 230.19L329.58 235.34Z"
fill="none" stroke="black" stroke-width="0.5"/>
<path d="M329.58 235.34L329.88 236.25"
fill="none" stroke="black" stroke-width="0.5"/>
<path d="M329.88 236.25L330.48 236.55"
fill="none" stroke="black" stroke-width="0.5"/>
<path d="M330.48 236.55L331.09 236.55"
fill="none" stroke="black" stroke-width="0.5"/>
<path d="M328.67 232.31L330.79 232.31"
fill="none" stroke="black" stroke-width="0.5"/>
<path d="M299.58 224.2L329.9 224.2"
fill="none" stroke="RGB(19,155,72)" stroke-width="0.5"/>
<path d="M329.9 224.2L328.55 222.87"
fill="none" stroke="RGB(19,155,72)" stroke-width="0.5"/>
<path d="M329.9 224.2L328.55 222.87"
fill="none" stroke="RGB(19,155,72)" stroke-width="0.5"/>
<path d="M329.9 224.2L328.55 225.53"
fill="none" stroke="RGB(19,155,72)" stroke-width="0.5"/>
<path d="M299.58 224.2L300.93 222.87"
fill="none" stroke="RGB(19,155,72)" stroke-width="0.5"/>
<path d="M299.58 224.2L300.93 225.53"
fill="none" stroke="RGB(19,155,72)" stroke-width="0.5"/>
<path d="M299.58 300L329.9 300"
fill="none" stroke="RGB(19,155,72)" stroke-width="0.5"/>
<path d="M329.9 300L328.55 298.67"
fill="none" stroke="RGB(19,155,72)" stroke-width="0.5"/>
<path d="M329.9 300L328.55 301.33"
fill="none" stroke="RGB(19,155,72)" stroke-width="0.5"/>
<path d="M299.58 300L300.93 298.67"
fill="none" stroke="RGB(19,155,72)" stroke-width="0.5"/>
<path d="M299.58 300L300.93 301.33"
fill="none" stroke="RGB(19,155,72)" stroke-width="0.5"/>
<path d="M302.85 287.29L304.58 293.35"
fill="none" stroke="black" stroke-width="0.5"/>
<path d="M304.58 293.35L306.31 287.29"
fill="none" stroke="black" stroke-width="0.5"/>
<path d="M306.31 287.29L308.05 293.35"
fill="none" stroke="black" stroke-width="0.5"/>
<path d="M308.05 293.35L309.78 287.29"
fill="none" stroke="black" stroke-width="0.5"/>
<path d="M316.02 292.9L315.41 292.29"
fill="none" stroke="black" stroke-width="0.5"/>
<path d="M315.41 292.29L314.8 291.99"
fill="none" stroke="black" stroke-width="0.5"/>
<path d="M314.8 291.99L313.89 291.99"
fill="none" stroke="black" stroke-width="0.5"/>
<path d="M313.89 291.99L313.29 292.29"
fill="none" stroke="black" stroke-width="0.5"/>
<path d="M313.29 292.29L312.68 292.9"
fill="none" stroke="black" stroke-width="0.5"/>
<path d="M312.68 292.9L312.38 293.81"
fill="none" stroke="black" stroke-width="0.5"/>
<path d="M312.38 293.81L312.38 294.41Z"
fill="none" stroke="black" stroke-width="0.5"/>
<path d="M312.38 294.41L312.68 295.32"
fill="none" stroke="black" stroke-width="0.5"/>
<path d="M312.68 295.32L313.29 295.93"
fill="none" stroke="black" stroke-width="0.5"/>
<path d="M313.29 295.93L313.89 296.23"
fill="none" stroke="black" stroke-width="0.5"/>
<path d="M313.89 296.23L314.8 296.23"
fill="none" stroke="black" stroke-width="0.5"/>
<path d="M314.8 296.23L315.41 295.93"
fill="none" stroke="black" stroke-width="0.5"/>
<path d="M315.41 295.93L316.02 295.32"
fill="none" stroke="black" stroke-width="0.5"/>
<path d="M319.35 291.99L318.75 292.29"
fill="none" stroke="black" stroke-width="0.5"/>
<path d="M318.75 292.29L318.14 292.9"
fill="none" stroke="black" stroke-width="0.5"/>
<path d="M318.14 292.9L317.84 293.81"
fill="none" stroke="black" stroke-width="0.5"/>
<path d="M317.84 293.81L317.84 294.41Z"
fill="none" stroke="black" stroke-width="0.5"/>
<path d="M317.84 294.41L318.14 295.32"
fill="none" stroke="black" stroke-width="0.5"/>
<path d="M318.14 295.32L318.75 295.93"
fill="none" stroke="black" stroke-width="0.5"/>
<path d="M318.75 295.93L319.35 296.23"
fill="none" stroke="black" stroke-width="0.5"/>
<path d="M319.35 296.23L320.26 296.23"
fill="none" stroke="black" stroke-width="0.5"/>
<path d="M320.26 296.23L320.87 295.93"
fill="none" stroke="black" stroke-width="0.5"/>
<path d="M320.87 295.93L321.47 295.32"
fill="none" stroke="black" stroke-width="0.5"/>
<path d="M321.47 295.32L321.78 294.41"
fill="none" stroke="black" stroke-width="0.5"/>
<path d="M321.78 294.41L321.78 293.81Z"
fill="none" stroke="black" stroke-width="0.5"/>
<path d="M321.78 293.81L321.47 292.9"
fill="none" stroke="black" stroke-width="0.5"/>
<path d="M321.47 292.9L320.87 292.29"
fill="none" stroke="black" stroke-width="0.5"/>
<path d="M320.87 292.29L320.26 291.99"
fill="none" stroke="black" stroke-width="0.5"/>
<path d="M320.26 291.99L319.35 291.99"
fill="none" stroke="black" stroke-width="0.5"/>
<path d="M323.6 296.23L323.6 291.99Z"
fill="none" stroke="black" stroke-width="0.5"/>
<path d="M323.6 293.2L324.51 292.29"
fill="none" stroke="black" stroke-width="0.5"/>
<path d="M324.51 292.29L325.11 291.99"
fill="none" stroke="black" stroke-width="0.5"/>
<path d="M325.11 291.99L326.02 291.99"
fill="none" stroke="black" stroke-width="0.5"/>
<path d="M326.02 291.99L326.63 292.29"
fill="none" stroke="black" stroke-width="0.5"/>
<path d="M326.63 292.29L326.93 293.2"
fill="none" stroke="black" stroke-width="0.5"/>
<path d="M326.93 293.2L326.93 296.23Z"
fill="none" stroke="black" stroke-width="0.5"/>
<path d="M330.27 289.87L330.27 295.02Z"
fill="none" stroke="black" stroke-width="0.5"/>
<path d="M330.27 295.02L330.57 295.93"
fill="none" stroke="black" stroke-width="0.5"/>
<path d="M330.57 295.93L331.18 296.23"
fill="none" stroke="black" stroke-width="0.5"/>
<path d="M331.18 296.23L331.78 296.23"
fill="none" stroke="black" stroke-width="0.5"/>
<path d="M329.36 291.99L331.48 291.99"
fill="none" stroke="black" stroke-width="0.5"/>
<path d="M352.64 284.84L351.29 283.51"
fill="none" stroke="RGB(19,155,72)" stroke-width="0.5"/>
<path d="M352.64 284.84L351.29 286.17"
fill="none" stroke="RGB(19,155,72)" stroke-width="0.5"/>
<path d="M329.9 284.84L331.25 283.51"
fill="none" stroke="RGB(19,155,72)" stroke-width="0.5"/>
<path d="M329.9 284.84L331.25 286.17"
fill="none" stroke="RGB(19,155,72)" stroke-width="0.5"/>
<path d="M329.9 284.84L352.64 284.84"
fill="none" stroke="RGB(19,155,72)" stroke-width="0.5"/>
<path d="M338.89 294.99L338.89 285.89Z"
fill="none" stroke="black" stroke-width="0.5"/>
<path d="M342.35 297.87L342.35 291.5Z"
fill="none" stroke="black" stroke-width="0.5"/>
<path d="M342.35 291.5L346.6 297.87"
fill="none" stroke="black" stroke-width="0.5"/>
<path d="M346.6 297.87L346.6 291.5Z"
fill="none" stroke="black" stroke-width="0.5"/>
<path d="M329.9 246.94L328.57 248.29"
fill="none" stroke="RGB(19,155,72)" stroke-width="0.5"/>
<path d="M329.9 246.94L331.23 248.29"
fill="none" stroke="RGB(19,155,72)" stroke-width="0.5"/>
<path d="M329.9 277.26L328.57 275.91"
fill="none" stroke="RGB(19,155,72)" stroke-width="0.5"/>
<path d="M329.9 277.26L331.23 275.91"
fill="none" stroke="RGB(19,155,72)" stroke-width="0.5"/>
<path d="M329.9 277.26L329.9 246.94Z"
fill="none" stroke="RGB(19,155,72)" stroke-width="0.5"/>
<path d="M317.18 257.93L318.99 265.51"
fill="none" stroke="black" stroke-width="0.5"/>
<path d="M318.99 265.51L320.79 257.93"
fill="none" stroke="black" stroke-width="0.5"/>
<path d="M320.79 257.93L322.6 265.51"
fill="none" stroke="black" stroke-width="0.5"/>
<path d="M322.6 265.51L324.4 257.93"
fill="none" stroke="black" stroke-width="0.5"/>
<path d="M325.85 267.91L325.85 262.6Z"
fill="none" stroke="black" stroke-width="0.5"/>
<path d="M325.85 262.6L329.38 267.91"
fill="none" stroke="black" stroke-width="0.5"/>
<path d="M329.38 267.91L329.38 262.6Z"
fill="none" stroke="black" stroke-width="0.5"/>
<path d="M284.42 239.36L283.09 240.71"
fill="none" stroke="RGB(19,155,72)" stroke-width="0.5"/>
<path d="M284.42 239.36L285.75 240.71"
fill="none" stroke="RGB(19,155,72)" stroke-width="0.5"/>
<path d="M284.42 284.84L283.09 283.49"
fill="none" stroke="RGB(19,155,72)" stroke-width="0.5"/>
<path d="M284.42 284.84L285.75 283.49"
fill="none" stroke="RGB(19,155,72)" stroke-width="0.5"/>
<path d="M284.42 284.84L284.42 239.36Z"
fill="none" stroke="RGB(19,155,72)" stroke-width="0.5"/>
<path d="M255.31 253.46L257.48 262.56"
fill="none" stroke="black" stroke-width="0.5"/>
<path d="M257.48 262.56L259.64 253.46"
fill="none" stroke="black" stroke-width="0.5"/>
<path d="M259.64 253.46L261.81 262.56"
fill="none" stroke="black" stroke-width="0.5"/>
<path d="M261.81 262.56L263.97 253.46"
fill="none" stroke="black" stroke-width="0.5"/>
<path d="M269.34 261.2L269.34 267.56Z"
fill="none" stroke="black" stroke-width="0.5"/>
<path d="M269.34 264.23L268.74 263.62"
fill="none" stroke="black" stroke-width="0.5"/>
<path d="M268.74 263.62L268.13 263.32"
fill="none" stroke="black" stroke-width="0.5"/>
<path d="M268.13 263.32L267.22 263.32"
fill="none" stroke="black" stroke-width="0.5"/>
<path d="M267.22 263.32L266.62 263.62"
fill="none" stroke="black" stroke-width="0.5"/>
<path d="M266.62 263.62L266.01 264.23"
fill="none" stroke="black" stroke-width="0.5"/>
<path d="M266.01 264.23L265.71 265.14"
fill="none" stroke="black" stroke-width="0.5"/>
<path d="M265.71 265.14L265.71 265.74Z"
fill="none" stroke="black" stroke-width="0.5"/>
<path d="M265.71 265.74L266.01 266.65"
fill="none" stroke="black" stroke-width="0.5"/>
<path d="M266.01 266.65L266.62 267.26"
fill="none" stroke="black" stroke-width="0.5"/>
<path d="M266.62 267.26L267.22 267.56"
fill="none" stroke="black" stroke-width="0.5"/>
<path d="M267.22 267.56L268.13 267.56"
fill="none" stroke="black" stroke-width="0.5"/>
<path d="M268.13 267.56L268.74 267.26"
fill="none" stroke="black" stroke-width="0.5"/>
<path d="M268.74 267.26L269.34 266.65"
fill="none" stroke="black" stroke-width="0.5"/>
<path d="M271.47 261.5L271.77 261.8"
fill="none" stroke="black" stroke-width="0.5"/>
<path d="M271.77 261.8L272.07 261.5"
fill="none" stroke="black" stroke-width="0.5"/>
<path d="M272.07 261.5L271.77 261.2"
fill="none" stroke="black" stroke-width="0.5"/>
<path d="M271.77 261.2L271.47 261.5"
fill="none" stroke="black" stroke-width="0.5"/>
<path d="M271.77 263.32L271.77 267.56Z"
fill="none" stroke="black" stroke-width="0.5"/>
<path d="M277.23 264.23L276.92 263.62"
fill="none" stroke="black" stroke-width="0.5"/>
<path d="M276.92 263.62L276.01 263.32"
fill="none" stroke="black" stroke-width="0.5"/>
<path d="M276.01 263.32L275.11 263.32"
fill="none" stroke="black" stroke-width="0.5"/>
<path d="M275.11 263.32L274.2 263.62"
fill="none" stroke="black" stroke-width="0.5"/>
<path d="M274.2 263.62L273.89 264.23"
fill="none" stroke="black" stroke-width="0.5"/>
<path d="M273.89 264.23L274.2 264.83"
fill="none" stroke="black" stroke-width="0.5"/>
<path d="M274.2 264.83L274.8 265.14"
fill="none" stroke="black" stroke-width="0.5"/>
<path d="M274.8 265.14L276.32 265.44"
fill="none" stroke="black" stroke-width="0.5"/>
<path d="M276.32 265.44L276.92 265.74"
fill="none" stroke="black" stroke-width="0.5"/>
<path d="M276.92 265.74L277.23 266.35"
fill="none" stroke="black" stroke-width="0.5"/>
<path d="M277.23 266.35L277.23 266.65Z"
fill="none" stroke="black" stroke-width="0.5"/>
<path d="M277.23 266.65L276.92 267.26"
fill="none" stroke="black" stroke-width="0.5"/>
<path d="M276.92 267.26L276.01 267.56"
fill="none" stroke="black" stroke-width="0.5"/>
<path d="M276.01 267.56L275.11 267.56"
fill="none" stroke="black" stroke-width="0.5"/>
<path d="M275.11 267.56L274.2 267.26"
fill="none" stroke="black" stroke-width="0.5"/>
<path d="M274.2 267.26L273.89 266.65"
fill="none" stroke="black" stroke-width="0.5"/>
<path d="M279.05 263.32L279.05 269.68Z"
fill="none" stroke="black" stroke-width="0.5"/>
<path d="M279.05 264.23L279.65 263.62"
fill="none" stroke="black" stroke-width="0.5"/>
<path d="M279.65 263.62L280.26 263.32"
fill="none" stroke="black" stroke-width="0.5"/>
<path d="M280.26 263.32L281.17 263.32"
fill="none" stroke="black" stroke-width="0.5"/>
<path d="M281.17 263.32L281.78 263.62"
fill="none" stroke="black" stroke-width="0.5"/>
<path d="M281.78 263.62L282.38 264.23"
fill="none" stroke="black" stroke-width="0.5"/>
<path d="M282.38 264.23L282.69 265.14"
fill="none" stroke="black" stroke-width="0.5"/>
<path d="M282.69 265.14L282.69 265.74Z"
fill="none" stroke="black" stroke-width="0.5"/>
<path d="M282.69 265.74L282.38 266.65"
fill="none" stroke="black" stroke-width="0.5"/>
<path d="M282.38 266.65L281.78 267.26"
fill="none" stroke="black" stroke-width="0.5"/>
<path d="M281.78 267.26L281.17 267.56"
fill="none" stroke="black" stroke-width="0.5"/>
<path d="M281.17 267.56L280.26 267.56"
fill="none" stroke="black" stroke-width="0.5"/>
<path d="M280.26 267.56L279.65 267.26"
fill="none" stroke="black" stroke-width="0.5"/>
<path d="M279.65 267.26L279.05 266.65"
fill="none" stroke="black" stroke-width="0.5"/>
<path d="M385.8 231.78L384.47 233.13"
fill="none" stroke="RGB(19,155,72)" stroke-width="0.5"/>
<path d="M385.8 231.78L387.13 233.13"
fill="none" stroke="RGB(19,155,72)" stroke-width="0.5"/>
<path d="M385.8 292.42L384.47 291.07"
fill="none" stroke="RGB(19,155,72)" stroke-width="0.5"/>
<path d="M385.8 292.42L387.13 291.07"
fill="none" stroke="RGB(19,155,72)" stroke-width="0.5"/>
<path d="M385.8 292.42L385.8 231.78Z"
fill="none" stroke="RGB(19,155,72)" stroke-width="0.5"/>
<path d="M423.7 231.78L423.7 292.42Z"
fill="none" stroke="black" stroke-width="0.5"/>
<path d="M386.23 234.65L388.4 243.74"
fill="none" stroke="black" stroke-width="0.5"/>
<path d="M388.4 243.74L390.56 234.65"
fill="none" stroke="black" stroke-width="0.5"/>
<path d="M390.56 234.65L392.73 243.74"
fill="none" stroke="black" stroke-width="0.5"/>
<path d="M392.73 243.74L394.89 234.65"
fill="none" stroke="black" stroke-width="0.5"/>
<path d="M398.14 242.38L397.54 242.68"
fill="none" stroke="black" stroke-width="0.5"/>
<path d="M397.54 242.68L396.93 243.29"
fill="none" stroke="black" stroke-width="0.5"/>
<path d="M396.93 243.29L396.63 244.2"
fill="none" stroke="black" stroke-width="0.5"/>
<path d="M396.63 244.2L396.63 244.8Z"
fill="none" stroke="black" stroke-width="0.5"/>
<path d="M396.63 244.8L396.93 245.71"
fill="none" stroke="black" stroke-width="0.5"/>
<path d="M396.93 245.71L397.54 246.32"
fill="none" stroke="black" stroke-width="0.5"/>
<path d="M397.54 246.32L398.14 246.62"
fill="none" stroke="black" stroke-width="0.5"/>
<path d="M398.14 246.62L399.05 246.62"
fill="none" stroke="black" stroke-width="0.5"/>
<path d="M399.05 246.62L399.66 246.32"
fill="none" stroke="black" stroke-width="0.5"/>
<path d="M399.66 246.32L400.26 245.71"
fill="none" stroke="black" stroke-width="0.5"/>
<path d="M400.26 245.71L400.57 244.8"
fill="none" stroke="black" stroke-width="0.5"/>
<path d="M400.57 244.8L400.57 244.2Z"
fill="none" stroke="black" stroke-width="0.5"/>
<path d="M400.57 244.2L400.26 243.29"
fill="none" stroke="black" stroke-width="0.5"/>
<path d="M400.26 243.29L399.66 242.68"
fill="none" stroke="black" stroke-width="0.5"/>
<path d="M399.66 242.68L399.05 242.38"
fill="none" stroke="black" stroke-width="0.5"/>
<path d="M399.05 242.38L398.14 242.38"
fill="none" stroke="black" stroke-width="0.5"/>
<path d="M402.39 242.38L402.39 245.41Z"
fill="none" stroke="black" stroke-width="0.5"/>
<path d="M402.39 245.41L402.69 246.32"
fill="none" stroke="black" stroke-width="0.5"/>
<path d="M402.69 246.32L403.3 246.62"
fill="none" stroke="black" stroke-width="0.5"/>
<path d="M403.3 246.62L404.21 246.62"
fill="none" stroke="black" stroke-width="0.5"/>
<path d="M404.21 246.62L404.81 246.32"
fill="none" stroke="black" stroke-width="0.5"/>
<path d="M404.81 246.32L405.72 245.41"
fill="none" stroke="black" stroke-width="0.5"/>
<path d="M405.72 242.38L405.72 246.62Z"
fill="none" stroke="black" stroke-width="0.5"/>
<path d="M409.06 240.26L409.06 245.41Z"
fill="none" stroke="black" stroke-width="0.5"/>
<path d="M409.06 245.41L409.36 246.32"
fill="none" stroke="black" stroke-width="0.5"/>
<path d="M409.36 246.32L409.97 246.62"
fill="none" stroke="black" stroke-width="0.5"/>
<path d="M409.97 246.62L410.57 246.62"
fill="none" stroke="black" stroke-width="0.5"/>
<path d="M408.15 242.38L410.27 242.38"
fill="none" stroke="black" stroke-width="0.5"/>
<path d="M 299.58 239.36 A 19.43 19.43 0 0 0 318.53 258.59"
fill="none" stroke="cyan" stroke-width="0.5"/>
<path d="M 318.25 265.62 A 18.95 18.95 0 0 0 299.58 284.84"
fill="none" stroke="cyan" stroke-width="0.5"/>
<path d="M318.25 265.62L356.23 265.62"
fill="none" stroke="cyan" stroke-width="0.5"/>
<path d="M341.27 258.59L339.94 259.94"
fill="none" stroke="RGB(19,155,72)" stroke-width="0.5"/>
<path d="M341.27 258.59L342.6 259.94"
fill="none" stroke="RGB(19,155,72)" stroke-width="0.5"/>
<path d="M341.27 265.62L339.94 264.26"
fill="none" stroke="RGB(19,155,72)" stroke-width="0.5"/>
<path d="M341.27 265.62L342.6 264.26"
fill="none" stroke="RGB(19,155,72)" stroke-width="0.5"/>
<path d="M341.27 258.59L341.27 265.62Z"
fill="none" stroke="RGB(19,155,72)" stroke-width="0.5"/>
<path d="M343.11 259.77L344.2 264.32"
fill="none" stroke="black" stroke-width="0.5"/>
<path d="M344.2 264.32L345.28 259.77"
fill="none" stroke="black" stroke-width="0.5"/>
<path d="M345.28 259.77L346.36 264.32"
fill="none" stroke="black" stroke-width="0.5"/>
<path d="M346.36 264.32L347.45 259.77"
fill="none" stroke="black" stroke-width="0.5"/>
<path d="M348.92 263.78L349.07 263.94"
fill="none" stroke="black" stroke-width="0.5"/>
<path d="M349.07 263.94L349.22 263.78"
fill="none" stroke="black" stroke-width="0.5"/>
<path d="M349.22 263.78L349.07 263.63"
fill="none" stroke="black" stroke-width="0.5"/>
<path d="M349.07 263.63L348.92 263.78"
fill="none" stroke="black" stroke-width="0.5"/>
<path d="M349.07 264.69L349.07 267.27Z"
fill="none" stroke="black" stroke-width="0.5"/>
<path d="M349.07 267.27L348.92 267.73"
fill="none" stroke="black" stroke-width="0.5"/>
<path d="M348.92 267.73L348.62 267.88"
fill="none" stroke="black" stroke-width="0.5"/>
<path d="M348.62 267.88L348.31 267.88"
fill="none" stroke="black" stroke-width="0.5"/>
<path d="M349.83 265.6L351.65 265.6"
fill="none" stroke="black" stroke-width="0.5"/>
<path d="M351.65 265.6L351.65 265.3Z"
fill="none" stroke="black" stroke-width="0.5"/>
<path d="M351.65 265.3L351.5 265"
fill="none" stroke="black" stroke-width="0.5"/>
<path d="M351.5 265L351.34 264.85"
fill="none" stroke="black" stroke-width="0.5"/>
<path d="M351.34 264.85L351.04 264.69"
fill="none" stroke="black" stroke-width="0.5"/>
<path d="M351.04 264.69L350.59 264.69"
fill="none" stroke="black" stroke-width="0.5"/>
<path d="M350.59 264.69L350.28 264.85"
fill="none" stroke="black" stroke-width="0.5"/>
<path d="M350.28 264.85L349.98 265.15"
fill="none" stroke="black" stroke-width="0.5"/>
<path d="M349.98 265.15L349.83 265.6"
fill="none" stroke="black" stroke-width="0.5"/>
<path d="M349.83 265.6L349.83 265.91Z"
fill="none" stroke="black" stroke-width="0.5"/>
<path d="M349.83 265.91L349.98 266.36"
fill="none" stroke="black" stroke-width="0.5"/>
<path d="M349.98 266.36L350.28 266.67"
fill="none" stroke="black" stroke-width="0.5"/>
<path d="M350.28 266.67L350.59 266.82"
fill="none" stroke="black" stroke-width="0.5"/>
<path d="M350.59 266.82L351.04 266.82"
fill="none" stroke="black" stroke-width="0.5"/>
<path d="M351.04 266.82L351.34 266.67"
fill="none" stroke="black" stroke-width="0.5"/>
<path d="M351.34 266.67L351.65 266.36"
fill="none" stroke="black" stroke-width="0.5"/>
<path d="M353.01 263.63L353.01 266.21Z"
fill="none" stroke="black" stroke-width="0.5"/>
<path d="M353.01 266.21L353.16 266.67"
fill="none" stroke="black" stroke-width="0.5"/>
<path d="M353.16 266.67L353.47 266.82"
fill="none" stroke="black" stroke-width="0.5"/>
<path d="M353.47 266.82L353.77 266.82"
fill="none" stroke="black" stroke-width="0.5"/>
<path d="M352.56 264.69L353.62 264.69"
fill="none" stroke="black" stroke-width="0.5"/>
<path d="M318.53 258.59L356.23 258.59"
fill="none" stroke="cyan" stroke-width="0.5"/>
<path d="M 356.23 265.62 A 11.37 11.37 0 1 0 356.23 258.59"
fill="none" stroke="cyan" stroke-width="0.5"/>
<path d="M408.74 262.1L408.54 264.19"
fill="none" stroke="cyan" stroke-width="0.5"/>
<path d="M408.54 264.19L407.97 266.21"
fill="none" stroke="cyan" stroke-width="0.5"/>
<path d="M407.97 266.21L407.03 268.09"
fill="none" stroke="cyan" stroke-width="0.5"/>
<path d="M407.03 268.09L405.77 269.76"
fill="none" stroke="cyan" stroke-width="0.5"/>
<path d="M405.77 269.76L404.22 271.17"
fill="none" stroke="cyan" stroke-width="0.5"/>
<path d="M404.22 271.17L402.43 272.28"
fill="none" stroke="cyan" stroke-width="0.5"/>
<path d="M402.43 272.28L400.48 273.04"
fill="none" stroke="cyan" stroke-width="0.5"/>
<path d="M400.48 273.04L398.41 273.42"
fill="none" stroke="cyan" stroke-width="0.5"/>
<path d="M398.41 273.42L396.32 273.42"
fill="none" stroke="cyan" stroke-width="0.5"/>
<path d="M396.32 273.42L394.25 273.04"
fill="none" stroke="cyan" stroke-width="0.5"/>
<path d="M394.25 273.04L392.3 272.28"
fill="none" stroke="cyan" stroke-width="0.5"/>
<path d="M392.3 272.28L390.51 271.17"
fill="none" stroke="cyan" stroke-width="0.5"/>
<path d="M390.51 271.17L388.96 269.76"
fill="none" stroke="cyan" stroke-width="0.5"/>
<path d="M388.96 269.76L387.7 268.09"
fill="none" stroke="cyan" stroke-width="0.5"/>
<path d="M387.7 268.09L386.76 266.21"
fill="none" stroke="cyan" stroke-width="0.5"/>
<path d="M386.76 266.21L386.19 264.19"
fill="none" stroke="cyan" stroke-width="0.5"/>
<path d="M386.19 264.19L385.99 262.1"
fill="none" stroke="cyan" stroke-width="0.5"/>
<path d="M385.99 262.1L386.19 260.01"
fill="none" stroke="cyan" stroke-width="0.5"/>
<path d="M386.19 260.01L386.76 257.99"
fill="none" stroke="cyan" stroke-width="0.5"/>
<path d="M386.76 257.99L387.7 256.12"
fill="none" stroke="cyan" stroke-width="0.5"/>
<path d="M387.7 256.12L388.96 254.44"
fill="none" stroke="cyan" stroke-width="0.5"/>
<path d="M388.96 254.44L390.51 253.03"
fill="none" stroke="cyan" stroke-width="0.5"/>
<path d="M390.51 253.03L392.3 251.92"
fill="none" stroke="cyan" stroke-width="0.5"/>
<path d="M392.3 251.92L394.25 251.16"
fill="none" stroke="cyan" stroke-width="0.5"/>
<path d="M394.25 251.16L396.32 250.78"
fill="none" stroke="cyan" stroke-width="0.5"/>
<path d="M396.32 250.78L398.41 250.78"
fill="none" stroke="cyan" stroke-width="0.5"/>
<path d="M398.41 250.78L400.48 251.16"
fill="none" stroke="cyan" stroke-width="0.5"/>
<path d="M400.48 251.16L402.43 251.92"
fill="none" stroke="cyan" stroke-width="0.5"/>
<path d="M402.43 251.92L404.22 253.03"
fill="none" stroke="cyan" stroke-width="0.5"/>
<path d="M404.22 253.03L405.77 254.44"
fill="none" stroke="cyan" stroke-width="0.5"/>
<path d="M405.77 254.44L407.03 256.12"
fill="none" stroke="cyan" stroke-width="0.5"/>
<path d="M407.03 256.12L407.97 257.99"
fill="none" stroke="cyan" stroke-width="0.5"/>
<path d="M407.97 257.99L408.54 260.01"
fill="none" stroke="cyan" stroke-width="0.5"/>
<path d="M408.54 260.01L408.74 262.1"
fill="none" stroke="cyan" stroke-width="0.5"/>
</svg>
