<?xml version="1.0" standalone="no"?>
<!DOCTYPE svg PUBLIC "-//W3C//DTD SVG 20010904//EN"
 "http://www.w3.org/TR/2001/REC-SVG-20010904/DTD/svg10.dtd">
<svg version="1.0" xmlns="http://www.w3.org/2000/svg"
 width="5196.000000pt" height="4251.000000pt" viewBox="0 0 5196.000000 4251.000000"
 preserveAspectRatio="xMidYMid meet">

<g transform="translate(0.000000,4251.000000) scale(0.100000,-0.100000)"
fill="#000000" stroke="none">
<path d="M7292 39587 l-22 -23 0 -17025 0 -17026 23 -21 23 -22 9756 0 9757 0
3 -22 c2 -15 10 -23 23 -23 13 0 21 8 23 23 l3 22 11023 0 11023 0 21 23 22
23 0 17025 0 17026 -23 21 -23 22 -20805 0 -20806 0 -21 -23z m41548 -317 l0
-210 -152 0 c-142 0 -153 -1 -175 -22 -29 -27 -29 -55 -1 -85 21 -22 27 -23
175 -23 l153 0 0 -405 0 -405 -152 0 c-142 0 -153 -1 -175 -22 -29 -27 -29
-55 -1 -85 21 -22 27 -23 175 -23 l153 0 0 -425 0 -425 -152 0 c-142 0 -153
-1 -175 -22 -29 -27 -29 -55 -1 -85 21 -22 27 -23 175 -23 l153 0 0 -440 0
-440 -265 0 c-260 0 -265 0 -255 19 32 61 -6 125 -81 136 -24 3 -3666 3 -8094
0 -4427 -4 -8156 -6 -8286 -5 -161 1 -239 -2 -243 -9 -9 -14 -202 -15 -211 -1
-8 13 -247 13 -260 1 -6 -5 -54 -11 -107 -13 -75 -3 -99 -1 -103 9 -3 11 -34
13 -132 11 -120 -3 -128 -4 -131 -23 -3 -20 -22 -22 -595 -59 l-592 -38 -585
-119 c-557 -112 -594 -121 -767 -183 l-181 -65 -384 -236 c-211 -131 -393
-247 -404 -259 -12 -11 -84 -120 -159 -241 -76 -121 -145 -227 -155 -235 -9
-8 -20 -24 -22 -35 -3 -11 -269 -439 -591 -952 l-587 -932 -565 -2031 -565
-2030 -170 -830 c-93 -457 -343 -1742 -555 -2858 l-386 -2027 -755 -3308 -754
-3307 -562 -1243 -561 -1242 -176 -215 -177 -215 -344 -278 c-190 -154 -361
-289 -380 -302 -20 -13 -357 -127 -765 -258 l-730 -235 -575 -56 c-317 -31
-627 -56 -690 -56 -63 0 -326 -9 -585 -20 -424 -18 -713 -21 -2935 -27 -2417
-6 -2466 -6 -2495 13 -28 18 -62 19 -947 22 l-918 3 0 110 c0 85 -4 117 -16
139 -23 37 -64 60 -111 60 -50 -1 -1333 -322 -1359 -341 -52 -37 -71 -120 -38
-167 l15 -22 -75 0 -76 0 0 645 0 645 152 0 c142 0 153 1 175 22 29 27 29 55
1 85 -21 22 -27 23 -175 23 l-153 0 0 1045 0 1045 152 0 c142 0 153 1 175 22
29 27 29 55 1 85 -21 22 -27 23 -175 23 l-153 0 0 965 0 965 152 0 c142 0 153
1 175 22 29 27 29 55 1 85 -21 22 -27 23 -175 23 l-153 0 0 895 0 895 152 0
c142 0 153 1 175 22 29 27 29 55 1 85 -21 22 -27 23 -175 23 l-153 0 0 825 0
825 152 0 c142 0 153 1 175 22 29 27 29 55 1 85 -21 22 -27 23 -175 23 l-153
0 0 780 0 780 152 0 c142 0 153 1 175 22 29 27 29 55 1 85 -21 22 -27 23 -175
23 l-153 0 0 730 0 730 322 0 c317 0 322 0 345 22 29 27 29 55 1 85 l-21 23
-324 0 -323 0 0 685 0 685 152 0 c142 0 153 1 175 22 29 27 29 55 1 85 -21 22
-27 23 -175 23 l-153 0 0 650 0 650 152 0 c142 0 153 1 175 22 29 27 29 55 1
85 -21 22 -27 23 -175 23 l-153 0 0 610 0 610 152 0 c142 0 153 1 175 22 29
27 29 55 1 85 -21 22 -27 23 -175 23 l-153 0 0 585 0 585 152 0 c142 0 153 1
175 22 29 27 29 55 1 85 -21 22 -27 23 -175 23 l-153 0 0 550 0 550 152 0
c142 0 153 1 175 22 29 27 29 55 1 85 -21 22 -27 23 -175 23 l-153 0 0 530 0
530 152 0 c142 0 153 1 175 22 29 27 29 55 1 85 -21 22 -27 23 -175 23 l-153
0 0 500 0 500 152 0 c142 0 153 1 175 22 29 27 29 55 1 85 -21 22 -27 23 -175
23 l-153 0 0 480 0 480 152 0 c142 0 153 1 175 22 29 27 29 55 1 85 -21 22
-27 23 -175 23 l-153 0 0 460 0 460 322 0 c319 0 322 0 345 22 l24 23 452
-113 c249 -62 467 -112 485 -112 42 0 84 24 106 60 12 22 16 55 16 144 l0 116
916 0 c1009 0 950 -4 988 61 15 26 22 28 84 31 59 3 67 5 67 23 0 18 -8 20
-65 23 -64 3 -65 4 -82 40 -10 21 -32 46 -50 57 -32 20 -56 20 -945 23 l-913
3 0 110 c0 85 -4 117 -16 139 -23 37 -64 60 -111 60 -50 -1 -1333 -322 -1359
-341 -90 -64 -62 -203 46 -230 14 -4 -50 -7 -142 -8 l-168 -1 0 440 0 440 152
0 c142 0 153 1 175 22 29 27 29 55 1 85 -21 22 -27 23 -175 23 l-153 0 0 425
0 425 152 0 c142 0 153 1 175 22 29 27 29 55 1 85 -21 22 -27 23 -175 23
l-153 0 0 405 0 405 152 0 c142 0 153 1 175 22 29 27 29 55 1 85 -21 22 -27
23 -175 23 l-153 0 0 210 0 210 20720 0 20720 0 0 -210z m-678 -3172 c-18 -18
-14 -49 10 -75 l21 -23 324 0 323 0 0 -460 0 -460 -152 0 c-142 0 -153 -1
-175 -22 -29 -27 -29 -55 -1 -85 21 -22 27 -23 175 -23 l153 0 0 -480 0 -480
-152 0 c-142 0 -153 -1 -175 -22 -29 -27 -29 -55 -1 -85 21 -22 27 -23 175
-23 l153 0 0 -500 0 -500 -152 0 c-142 0 -153 -1 -175 -22 -29 -27 -29 -55 -1
-85 21 -22 27 -23 175 -23 l153 0 0 -530 0 -530 -152 0 c-142 0 -153 -1 -175
-22 -29 -27 -29 -55 -1 -85 21 -22 27 -23 175 -23 l153 0 0 -550 0 -550 -152
0 c-142 0 -153 -1 -175 -22 -29 -27 -29 -55 -1 -85 21 -22 27 -23 175 -23
l153 0 0 -585 0 -585 -152 0 c-142 0 -153 -1 -175 -22 -29 -27 -29 -55 -1 -85
21 -22 27 -23 175 -23 l153 0 0 -610 0 -610 -152 0 c-142 0 -153 -1 -175 -22
-29 -27 -29 -55 -1 -85 21 -22 27 -23 175 -23 l153 0 0 -650 0 -650 -152 0
c-142 0 -153 -1 -175 -22 -29 -27 -29 -55 -1 -85 21 -22 27 -23 175 -23 l153
0 0 -685 0 -685 -322 0 c-317 0 -322 0 -345 -22 -29 -27 -29 -55 -1 -85 l21
-23 324 0 323 0 0 -730 0 -730 -152 0 c-142 0 -153 -1 -175 -22 -29 -27 -29
-55 -1 -85 21 -22 27 -23 175 -23 l153 0 0 -780 0 -780 -152 0 c-142 0 -153
-1 -175 -22 -29 -27 -29 -55 -1 -85 21 -22 27 -23 175 -23 l153 0 0 -825 0
-825 -152 0 c-142 0 -153 -1 -175 -22 -29 -27 -29 -55 -1 -85 21 -22 27 -23
175 -23 l153 0 0 -895 0 -895 -152 0 c-142 0 -153 -1 -175 -22 -29 -27 -29
-55 -1 -85 21 -22 27 -23 175 -23 l153 0 0 -965 0 -965 -152 0 c-142 0 -153
-1 -175 -22 -29 -27 -29 -55 -1 -85 21 -22 27 -23 175 -23 l153 0 0 -1045 0
-1045 -152 0 c-142 0 -153 -1 -175 -22 -29 -27 -29 -55 -1 -85 21 -22 27 -23
175 -23 l153 0 0 -645 0 -644 -82 -3 c-75 -3 -83 -5 -83 -23 0 -18 8 -20 83
-23 l82 -3 0 -474 0 -475 -152 0 c-142 0 -153 -1 -175 -22 -29 -27 -29 -55 -1
-85 21 -22 27 -23 175 -23 l153 0 0 -1260 0 -1260 -152 0 c-142 0 -153 -1
-175 -22 -29 -27 -29 -55 -1 -85 21 -22 27 -23 175 -23 l153 0 0 -1400 0
-1400 -265 0 -265 0 0 152 c0 142 -1 153 -22 175 -27 29 -55 29 -85 1 -22 -21
-23 -27 -23 -175 l0 -153 -500 0 -500 0 0 322 c0 317 0 322 -22 345 -27 29
-55 29 -85 1 l-23 -21 0 -324 c0 -316 0 -323 -20 -323 -19 0 -20 7 -20 152 0
142 -1 153 -22 175 -27 29 -55 29 -85 1 -22 -21 -23 -27 -23 -175 l0 -153 -30
0 -30 0 0 152 c0 142 -1 153 -22 175 -27 29 -55 29 -85 1 -22 -21 -23 -27 -23
-175 l0 -153 -45 0 -45 0 0 152 c0 142 -1 153 -22 175 -27 29 -55 29 -85 1
-22 -21 -23 -27 -23 -175 l0 -153 -60 0 -60 0 0 152 c0 142 -1 153 -22 175
-27 29 -55 29 -85 1 -22 -21 -23 -27 -23 -175 l0 -153 -85 0 -85 0 0 152 c0
142 -1 153 -22 175 -27 29 -55 29 -85 1 -22 -21 -23 -27 -23 -175 l0 -153
-115 0 -115 0 0 152 c0 142 -1 153 -22 175 -27 29 -55 29 -85 1 -22 -21 -23
-27 -23 -175 l0 -153 -170 0 -170 0 0 152 c0 142 -1 153 -22 175 -27 29 -55
29 -85 1 -22 -21 -23 -27 -23 -175 l0 -153 -265 0 -265 0 0 152 c0 142 -1 153
-22 175 -27 29 -55 29 -85 1 -22 -21 -23 -27 -23 -175 l0 -153 -500 0 -500 0
0 322 c0 317 0 322 -22 345 -27 29 -55 29 -85 1 l-23 -21 0 -324 0 -323 -25 0
-25 0 0 152 c0 142 -1 153 -22 175 -27 29 -55 29 -85 1 -22 -21 -23 -27 -23
-175 l0 -153 -30 0 -30 0 0 152 c0 142 -1 153 -22 175 -27 29 -55 29 -85 1
-22 -21 -23 -27 -23 -175 l0 -153 -40 0 -40 0 0 152 c0 142 -1 153 -22 175
-27 29 -55 29 -85 1 -22 -21 -23 -27 -23 -175 l0 -153 -65 0 -65 0 0 152 c0
142 -1 153 -22 175 -27 29 -55 29 -85 1 -22 -21 -23 -27 -23 -175 l0 -153 -80
0 -80 0 0 152 c0 142 -1 153 -22 175 -27 29 -55 29 -85 1 -22 -21 -23 -27 -23
-175 l0 -153 -120 0 -120 0 0 152 c0 142 -1 153 -22 175 -27 29 -55 29 -85 1
-22 -21 -23 -27 -23 -175 l0 -153 -170 0 -170 0 0 152 c0 142 -1 153 -22 175
-27 29 -55 29 -85 1 -22 -21 -23 -27 -23 -175 l0 -153 -265 0 -265 0 0 152 c0
142 -1 153 -22 175 -27 29 -55 29 -85 1 -22 -21 -23 -27 -23 -175 l0 -153
-500 0 -500 0 0 322 c0 317 0 322 -22 345 -27 29 -55 29 -85 1 l-23 -21 0
-324 c0 -316 0 -323 -20 -323 -19 0 -20 7 -20 152 0 142 -1 153 -22 175 -27
29 -55 29 -85 1 -22 -21 -23 -27 -23 -175 l0 -153 -30 0 -30 0 0 152 c0 142
-1 153 -22 175 -27 29 -55 29 -85 1 -22 -21 -23 -27 -23 -175 l0 -153 -45 0
-45 0 0 152 c0 142 -1 153 -22 175 -27 29 -55 29 -85 1 -22 -21 -23 -27 -23
-175 l0 -153 -60 0 -60 0 0 152 c0 142 -1 153 -22 175 -27 29 -55 29 -85 1
-22 -21 -23 -27 -23 -175 l0 -153 -85 0 -85 0 0 152 c0 142 -1 153 -22 175
-27 29 -55 29 -85 1 -22 -21 -23 -27 -23 -175 l0 -153 -115 0 -115 0 0 152 c0
142 -1 153 -22 175 -27 29 -55 29 -85 1 -22 -21 -23 -27 -23 -175 l0 -153
-170 0 -170 0 0 152 c0 142 -1 153 -22 175 -27 29 -55 29 -85 1 -22 -21 -23
-27 -23 -175 l0 -153 -265 0 -265 0 0 152 c0 142 -1 153 -22 175 -27 29 -55
29 -85 1 -22 -21 -23 -27 -23 -175 l0 -153 -500 0 -500 0 0 322 c0 317 0 322
-22 345 -27 29 -55 29 -85 1 l-23 -21 0 -324 c0 -316 0 -323 -20 -323 -19 0
-20 7 -20 152 0 142 -1 153 -22 175 -27 29 -55 29 -85 1 -22 -21 -23 -27 -23
-175 l0 -153 -30 0 -30 0 0 152 c0 142 -1 153 -22 175 -27 29 -55 29 -85 1
-22 -21 -23 -27 -23 -175 l0 -153 -45 0 -45 0 0 152 c0 142 -1 153 -22 175
-27 29 -55 29 -85 1 -22 -21 -23 -27 -23 -175 l0 -153 -60 0 -60 0 0 152 c0
142 -1 153 -22 175 -27 29 -55 29 -85 1 -22 -21 -23 -27 -23 -175 l0 -153 -85
0 -85 0 0 152 c0 142 -1 153 -22 175 -27 29 -55 29 -85 1 -22 -21 -23 -27 -23
-175 l0 -153 -115 0 -115 0 0 152 c0 142 -1 153 -22 175 -27 29 -55 29 -85 1
-22 -21 -23 -27 -23 -175 l0 -153 -170 0 -170 0 0 152 c0 142 -1 153 -22 175
-27 29 -55 29 -85 1 -22 -21 -23 -27 -23 -175 l0 -153 -265 0 -265 0 0 152 c0
142 -1 153 -22 175 -27 29 -55 29 -85 1 -22 -21 -23 -27 -23 -175 l0 -153
-500 0 -500 0 0 322 c0 317 0 322 -22 345 -27 29 -55 29 -85 1 l-23 -21 0
-324 c0 -316 0 -323 -20 -323 -19 0 -20 7 -20 152 0 142 -1 153 -22 175 -27
29 -55 29 -85 1 -22 -21 -23 -27 -23 -175 l0 -153 -35 0 -35 0 0 152 c0 142
-1 153 -22 175 -27 29 -55 29 -85 1 -22 -21 -23 -27 -23 -175 l0 -153 -40 0
-40 0 0 152 c0 142 -1 153 -22 175 -27 29 -55 29 -85 1 -22 -21 -23 -27 -23
-175 l0 -153 -65 0 -65 0 0 152 c0 142 -1 153 -22 175 -27 29 -55 29 -85 1
-22 -21 -23 -27 -23 -175 l0 -153 -80 0 -80 0 0 152 c0 142 -1 153 -22 175
-27 29 -55 29 -85 1 -22 -21 -23 -27 -23 -175 l0 -153 -120 0 -120 0 0 152 c0
142 -1 153 -22 175 -27 29 -55 29 -85 1 -22 -21 -23 -27 -23 -175 l0 -153
-165 0 -165 0 0 152 c0 142 -1 153 -22 175 -27 29 -55 29 -85 1 -22 -21 -23
-27 -23 -175 l0 -153 -270 0 -270 0 0 152 c0 142 -1 153 -22 175 -27 29 -55
29 -85 1 -22 -21 -23 -27 -23 -175 l0 -153 -500 0 -500 0 0 322 c0 317 0 322
-22 345 -27 29 -55 29 -85 1 l-23 -21 0 -324 c0 -316 0 -323 -20 -323 -19 0
-20 7 -20 152 0 142 -1 153 -22 175 -27 29 -55 29 -85 1 -22 -21 -23 -27 -23
-175 l0 -153 -30 0 -30 0 0 152 c0 142 -1 153 -22 175 -27 29 -55 29 -85 1
-22 -21 -23 -27 -23 -175 l0 -153 -45 0 -45 0 0 152 c0 142 -1 153 -22 175
-27 29 -55 29 -85 1 -22 -21 -23 -27 -23 -175 l0 -153 -55 0 -55 0 0 152 c0
142 -1 153 -22 175 -27 29 -55 29 -85 1 -22 -21 -23 -27 -23 -175 l0 -153 -85
0 -85 0 0 152 c0 142 -1 153 -22 175 -27 29 -55 29 -85 1 -22 -21 -23 -27 -23
-175 l0 -153 -115 0 -115 0 0 153 c0 150 -1 154 -25 177 -22 21 -25 31 -27
124 -3 93 -5 101 -23 101 -19 0 -20 -8 -23 -112 -2 -83 -6 -114 -17 -123 -12
-10 -15 -43 -15 -166 l0 -154 -170 0 -170 0 0 152 c0 142 -1 153 -22 175 -27
29 -55 29 -85 1 -22 -21 -23 -27 -23 -175 l0 -153 -265 0 -265 0 0 152 c0 142
-1 153 -22 175 -27 29 -55 29 -85 1 -22 -21 -23 -27 -23 -175 l0 -153 -500 0
-500 0 0 322 c0 317 0 322 -22 345 -27 29 -55 29 -85 1 l-23 -21 0 -324 c0
-316 0 -323 -20 -323 -19 0 -20 7 -20 152 0 142 -1 153 -22 175 -27 29 -55 29
-85 1 -22 -21 -23 -27 -23 -175 l0 -153 -30 0 -30 0 0 152 c0 142 -1 153 -22
175 -27 29 -55 29 -85 1 -22 -21 -23 -27 -23 -175 l0 -153 -45 0 -45 0 0 152
c0 142 -1 153 -22 175 -27 29 -55 29 -85 1 -22 -21 -23 -27 -23 -175 l0 -153
-60 0 -60 0 0 152 c0 142 -1 153 -22 175 -27 29 -55 29 -85 1 -22 -21 -23 -27
-23 -175 l0 -153 -85 0 -85 0 0 152 c0 142 -1 153 -22 175 -27 29 -55 29 -85
1 -22 -21 -23 -27 -23 -175 l0 -153 -115 0 -115 0 0 152 c0 142 -1 153 -22
175 -27 29 -55 29 -85 1 -22 -21 -23 -27 -23 -175 l0 -153 -170 0 -170 0 0
152 c0 142 -1 153 -22 175 -27 29 -55 29 -85 1 -22 -21 -23 -27 -23 -175 l0
-153 -265 0 -265 0 0 152 c0 142 -1 153 -22 175 -27 29 -55 29 -85 1 -22 -21
-23 -27 -23 -175 l0 -153 -500 0 -500 0 0 322 c0 317 0 322 -22 345 -27 29
-55 29 -85 1 l-23 -21 0 -324 c0 -316 0 -323 -20 -323 -19 0 -20 7 -20 152 0
142 -1 153 -22 175 -27 29 -55 29 -85 1 -22 -21 -23 -27 -23 -175 l0 -153 -35
0 -35 0 0 152 c0 142 -1 153 -22 175 -27 29 -55 29 -85 1 -22 -21 -23 -27 -23
-175 l0 -153 -40 0 -40 0 0 152 c0 142 -1 153 -22 175 -27 29 -55 29 -85 1
-22 -21 -23 -27 -23 -175 l0 -153 -60 0 -60 0 0 152 c0 142 -1 153 -22 175
-27 29 -55 29 -85 1 -22 -21 -23 -27 -23 -175 l0 -153 -85 0 -85 0 0 152 c0
142 -1 153 -22 175 -27 29 -55 29 -85 1 -22 -21 -23 -27 -23 -175 l0 -153
-115 0 -115 0 0 152 c0 142 -1 153 -22 175 -27 29 -55 29 -85 1 -22 -21 -23
-27 -23 -175 l0 -153 -170 0 -170 0 0 152 c0 142 -1 153 -22 175 -27 29 -55
29 -85 1 -22 -21 -23 -27 -23 -175 l0 -153 -265 0 -265 0 0 152 c0 142 -1 153
-22 175 -27 29 -55 29 -85 1 -22 -21 -23 -27 -23 -175 l0 -153 -500 0 -500 0
0 322 c0 317 0 322 -22 345 -27 29 -55 29 -85 1 l-23 -21 0 -324 0 -323 -25 0
-25 0 0 152 c0 142 -1 153 -22 175 -27 29 -55 29 -85 1 -22 -21 -23 -27 -23
-175 l0 -153 -30 0 -30 0 0 152 c0 142 -1 153 -22 175 -27 29 -55 29 -85 1
-22 -21 -23 -27 -23 -175 l0 -153 -45 0 -45 0 0 152 c0 142 -1 153 -22 175
-27 29 -55 29 -85 1 -22 -21 -23 -27 -23 -175 l0 -153 -60 0 -60 0 0 152 c0
142 -1 153 -22 175 -27 29 -55 29 -85 1 -22 -21 -23 -27 -23 -175 l0 -153 -80
0 -80 0 0 152 c0 142 -1 153 -22 175 -27 29 -55 29 -85 1 -22 -21 -23 -27 -23
-175 l0 -153 -120 0 -120 0 0 152 c0 142 -1 153 -22 175 -27 29 -55 29 -85 1
-22 -21 -23 -27 -23 -175 l0 -153 -170 0 -170 0 0 152 c0 142 -1 153 -22 175
-27 29 -55 29 -85 1 -22 -21 -23 -27 -23 -175 l0 -153 -265 0 -265 0 0 152 c0
142 -1 153 -22 175 -27 29 -55 29 -85 1 -22 -21 -23 -27 -23 -175 l0 -153
-500 0 -500 0 0 322 c0 317 0 322 -22 345 -27 29 -55 29 -85 1 l-23 -21 0
-324 c0 -316 0 -323 -20 -323 -19 0 -20 7 -20 152 0 142 -1 153 -22 175 -27
29 -55 29 -85 1 -22 -21 -23 -27 -23 -175 l0 -153 -30 0 -30 0 0 152 c0 142
-1 153 -22 175 -27 29 -55 29 -85 1 -22 -21 -23 -27 -23 -175 l0 -153 -45 0
-45 0 0 152 c0 142 -1 153 -22 175 -27 29 -55 29 -85 1 -22 -21 -23 -27 -23
-175 l0 -153 -60 0 -60 0 0 152 c0 142 -1 153 -22 175 -27 29 -55 29 -85 1
-22 -21 -23 -27 -23 -175 l0 -153 -85 0 -85 0 0 152 c0 142 -1 153 -22 175
-27 29 -55 29 -85 1 -22 -21 -23 -27 -23 -175 l0 -153 -115 0 -115 0 0 152 c0
142 -1 153 -22 175 -27 29 -55 29 -85 1 -22 -21 -23 -27 -23 -175 l0 -153
-170 0 -170 0 0 152 c0 142 -1 153 -22 175 -27 29 -55 29 -85 1 -22 -21 -23
-27 -23 -175 l0 -153 -265 0 -265 0 0 152 c0 142 -1 153 -22 175 -27 29 -55
29 -85 1 -22 -21 -23 -27 -23 -175 l0 -153 -500 0 -500 0 0 322 c0 317 0 322
-22 345 -27 29 -55 29 -85 1 l-23 -21 0 -324 c0 -316 0 -323 -20 -323 -19 0
-20 7 -20 152 0 142 -1 153 -22 175 -27 29 -55 29 -85 1 -22 -21 -23 -27 -23
-175 l0 -153 -30 0 -30 0 0 152 c0 142 -1 153 -22 175 -27 29 -55 29 -85 1
-22 -21 -23 -27 -23 -175 l0 -153 -45 0 -45 0 0 152 c0 142 -1 153 -22 175
-27 29 -55 29 -85 1 -22 -21 -23 -27 -23 -175 l0 -153 -60 0 -60 0 0 152 c0
142 -1 153 -22 175 -27 29 -55 29 -85 1 -22 -21 -23 -27 -23 -175 l0 -153 -85
0 -85 0 0 152 c0 142 -1 153 -22 175 -27 29 -55 29 -85 1 -22 -21 -23 -27 -23
-175 l0 -153 -115 0 -115 0 0 152 c0 142 -1 153 -22 175 -27 29 -55 29 -85 1
-22 -21 -23 -27 -23 -175 l0 -153 -170 0 -170 0 0 152 c0 142 -1 153 -22 175
-27 29 -55 29 -85 1 -22 -21 -23 -27 -23 -175 l0 -153 -85 0 -85 0 0 1400 0
1400 152 0 c142 0 153 1 175 22 29 27 29 55 1 85 -21 22 -27 23 -175 23 l-153
0 0 1260 0 1260 152 0 c142 0 153 1 175 22 29 27 29 55 1 85 -21 22 -27 23
-175 23 l-153 0 0 474 0 473 113 6 112 5 637 -159 c351 -88 654 -159 674 -159
44 0 86 23 108 60 12 22 16 54 16 142 l0 114 917 -1 918 0 36 23 c27 16 52 22
96 22 55 0 60 -2 59 -22 -1 -23 1 -23 129 -23 128 0 130 0 129 23 -1 21 2 22
106 22 104 0 107 -1 106 -23 -1 -22 1 -22 129 -22 128 0 130 0 129 23 -1 21 2
22 106 22 104 0 107 -1 106 -22 -1 -23 1 -23 129 -23 128 0 130 0 129 23 -1
21 2 22 106 22 104 0 107 -1 106 -22 -1 -23 1 -23 129 -23 128 0 130 0 129 23
-1 21 2 22 106 22 104 0 107 -1 106 -22 -1 -23 1 -23 129 -23 128 0 130 0 129
23 -1 21 2 22 106 22 104 0 107 -1 106 -22 -1 -23 1 -23 129 -23 128 0 130 0
129 23 -1 21 2 22 106 22 104 0 107 -1 106 -22 -1 -23 1 -23 129 -23 128 0
130 0 129 22 -1 22 2 23 106 23 104 0 107 -1 106 -22 -1 -23 1 -23 129 -23
123 0 130 1 130 20 0 18 -9 21 -85 26 -47 3 232 6 620 7 503 2 842 8 1185 22
264 11 530 20 590 20 61 0 383 27 715 59 l606 59 749 242 c680 219 755 245
800 280 28 22 205 164 395 317 l344 278 191 232 190 232 567 1255 568 1256
372 1630 372 1630 950 2 951 3 0 4460 c0 4453 0 4460 -20 4460 -20 0 -20 -8
-23 -4437 l-2 -4438 -920 0 c-631 0 -920 3 -920 10 0 6 162 721 360 1590 l361
1579 375 1968 c206 1082 462 2397 569 2922 l195 953 565 2029 565 2030 734
1167 733 1167 364 227 364 226 200 71 c193 68 220 74 750 180 l550 110 770 50
c1192 77 1110 76 10420 79 5809 2 7466 -1 7457 -10z"/>
<path d="M10335 38129 c-45 -13 -97 -61 -128 -118 -36 -64 -14 -70 26 -7 28
44 70 71 104 64 39 -7 27 -64 -72 -353 -52 -154 -95 -283 -95 -287 0 -5 27 -8
59 -8 l59 0 28 83 c15 45 53 159 86 252 l59 170 58 42 c113 83 193 103 245 62
20 -16 26 -29 26 -58 0 -21 -49 -181 -113 -372 -105 -309 -126 -378 -141 -466
l-5 -33 63 0 64 0 6 54 c4 30 61 215 126 411 140 419 149 454 127 508 -27 63
-102 82 -204 52 -41 -12 -148 -78 -220 -137 -8 -7 -10 6 -6 50 5 55 4 60 -22
80 -29 23 -76 27 -130 11z"/>
<path d="M11290 37179 c-35 -14 -59 -38 -82 -82 l-19 -38 -28 39 c-54 74 -136
81 -200 17 -32 -32 -36 -41 -39 -102 -3 -58 0 -73 20 -103 60 -90 194 -92 249
-4 11 19 22 34 24 34 2 0 19 -22 39 -50 60 -83 126 -100 196 -50 79 56 98 199
38 283 -39 54 -134 81 -198 56z m150 -55 c41 -35 60 -74 60 -124 0 -57 -23
-106 -62 -130 -67 -41 -140 -19 -184 56 l-27 45 28 65 c47 110 118 144 185 88z
m-325 -22 c17 -10 36 -31 44 -45 12 -23 12 -32 -4 -74 -36 -95 -108 -130 -167
-83 -69 54 -59 179 17 211 34 13 79 10 110 -9z"/>
<path d="M11413 36265 c-11 -30 12 -36 138 -33 116 3 124 4 124 23 0 19 -8 20
-128 23 -109 2 -128 0 -134 -13z"/>
<path d="M11883 36265 c-11 -30 12 -36 138 -33 116 3 124 4 124 23 0 19 -8 20
-128 23 -109 2 -128 0 -134 -13z"/>
<path d="M12353 36265 c-11 -30 12 -36 138 -33 116 3 124 4 124 23 0 19 -8 20
-128 23 -109 2 -128 0 -134 -13z"/>
<path d="M12823 36265 c-11 -30 12 -36 138 -33 116 3 124 4 124 23 0 19 -8 20
-128 23 -109 2 -128 0 -134 -13z"/>
<path d="M13293 36265 c-11 -30 12 -36 138 -33 116 3 124 4 124 23 0 19 -8 20
-128 23 -109 2 -128 0 -134 -13z"/>
<path d="M13763 36265 c-11 -30 12 -36 138 -33 116 3 124 4 124 23 0 19 -8 20
-128 23 -109 2 -128 0 -134 -13z"/>
<path d="M14233 36265 c-11 -30 12 -36 138 -33 116 3 124 4 124 23 0 19 -8 20
-128 23 -109 2 -128 0 -134 -13z"/>
<path d="M14703 36265 c-11 -30 12 -36 138 -33 116 3 124 4 124 23 0 19 -8 20
-128 23 -109 2 -128 0 -134 -13z"/>
<path d="M15173 36265 c-11 -30 12 -36 138 -33 116 3 124 4 124 23 0 19 -8 20
-128 23 -109 2 -128 0 -134 -13z"/>
<path d="M15643 36265 c-11 -30 12 -36 138 -33 116 3 124 4 124 23 0 19 -8 20
-128 23 -109 2 -128 0 -134 -13z"/>
<path d="M16113 36265 c-11 -30 12 -36 138 -33 116 3 124 4 124 23 0 19 -8 20
-128 23 -109 2 -128 0 -134 -13z"/>
<path d="M16583 36265 c-11 -30 12 -36 138 -33 116 3 124 4 124 23 0 19 -8 20
-128 23 -109 2 -128 0 -134 -13z"/>
<path d="M17053 36265 c-11 -30 12 -36 138 -33 116 3 124 4 124 23 0 19 -8 20
-128 23 -109 2 -128 0 -134 -13z"/>
<path d="M17523 36265 c-11 -30 12 -36 138 -33 116 3 124 4 124 23 0 19 -8 20
-128 23 -109 2 -128 0 -134 -13z"/>
<path d="M17993 36265 c-11 -30 12 -36 138 -33 116 3 124 4 124 23 0 19 -8 20
-128 23 -109 2 -128 0 -134 -13z"/>
<path d="M18463 36265 c-11 -30 12 -36 138 -33 116 3 124 4 124 23 0 19 -8 20
-128 23 -109 2 -128 0 -134 -13z"/>
<path d="M18933 36265 c-11 -30 12 -36 138 -33 116 3 124 4 124 23 0 19 -8 20
-128 23 -109 2 -128 0 -134 -13z"/>
<path d="M19403 36265 c-11 -30 12 -36 138 -33 116 3 124 4 124 23 0 19 -8 20
-128 23 -109 2 -128 0 -134 -13z"/>
<path d="M19873 36265 c-11 -30 12 -36 138 -33 116 3 124 4 124 23 0 19 -8 20
-128 23 -109 2 -128 0 -134 -13z"/>
<path d="M20343 36265 c-11 -30 12 -36 138 -33 116 3 124 4 124 23 0 19 -8 20
-128 23 -109 2 -128 0 -134 -13z"/>
<path d="M20813 36265 c-11 -30 12 -36 138 -33 116 3 124 4 124 23 0 19 -8 20
-128 23 -109 2 -128 0 -134 -13z"/>
<path d="M21283 36265 c-11 -30 12 -36 138 -33 116 3 124 4 124 23 0 19 -8 20
-128 23 -109 2 -128 0 -134 -13z"/>
<path d="M21753 36265 c-11 -30 12 -36 138 -33 116 3 124 4 124 23 0 19 -8 20
-128 23 -109 2 -128 0 -134 -13z"/>
<path d="M22223 36265 c-11 -30 12 -36 138 -33 116 3 124 4 124 23 0 19 -8 20
-128 23 -109 2 -128 0 -134 -13z"/>
<path d="M22693 36265 c-11 -30 12 -36 138 -33 116 3 124 4 124 23 0 19 -8 20
-128 23 -109 2 -128 0 -134 -13z"/>
<path d="M23163 36265 c-11 -30 12 -36 138 -33 116 3 124 4 124 23 0 19 -8 20
-128 23 -109 2 -128 0 -134 -13z"/>
<path d="M23633 36265 c-11 -30 12 -36 138 -33 116 3 124 4 124 23 0 19 -8 20
-128 23 -109 2 -128 0 -134 -13z"/>
<path d="M24103 36265 c-11 -30 12 -36 138 -33 116 3 124 4 124 23 0 19 -8 20
-128 23 -109 2 -128 0 -134 -13z"/>
<path d="M24573 36265 c-11 -30 12 -36 138 -33 116 3 124 4 124 23 0 19 -8 20
-128 23 -109 2 -128 0 -134 -13z"/>
<path d="M25043 36265 c-11 -30 12 -36 138 -33 116 3 124 4 124 23 0 19 -8 20
-128 23 -109 2 -128 0 -134 -13z"/>
<path d="M25513 36265 c-11 -30 12 -36 138 -33 116 3 124 4 124 23 0 19 -8 20
-128 23 -109 2 -128 0 -134 -13z"/>
<path d="M25983 36265 c-11 -30 12 -36 138 -33 116 3 124 4 124 23 0 19 -8 20
-128 23 -109 2 -128 0 -134 -13z"/>
<path d="M26453 36265 c-11 -30 12 -36 138 -33 116 3 124 4 124 23 0 19 -8 20
-128 23 -109 2 -128 0 -134 -13z"/>
<path d="M26923 36265 c-11 -30 12 -36 138 -33 116 3 124 4 124 23 0 19 -8 20
-128 23 -109 2 -128 0 -134 -13z"/>
<path d="M27393 36265 c-11 -30 12 -36 133 -33 111 3 119 4 119 23 0 19 -8 20
-123 23 -105 2 -123 0 -129 -13z"/>
<path d="M27853 36265 c-11 -30 12 -36 138 -33 116 3 124 4 124 23 0 19 -8 20
-128 23 -109 2 -128 0 -134 -13z"/>
<path d="M28323 36265 c-11 -30 12 -36 138 -33 116 3 124 4 124 23 0 19 -8 20
-128 23 -109 2 -128 0 -134 -13z"/>
<path d="M28793 36265 c-11 -30 12 -36 138 -33 116 3 124 4 124 23 0 19 -8 20
-128 23 -109 2 -128 0 -134 -13z"/>
<path d="M29263 36265 c-11 -30 12 -36 138 -33 116 3 124 4 124 23 0 19 -8 20
-128 23 -109 2 -128 0 -134 -13z"/>
<path d="M29733 36265 c-11 -30 12 -36 138 -33 116 3 124 4 124 23 0 19 -8 20
-128 23 -109 2 -128 0 -134 -13z"/>
<path d="M30203 36265 c-11 -30 12 -36 138 -33 116 3 124 4 124 23 0 19 -8 20
-128 23 -109 2 -128 0 -134 -13z"/>
<path d="M26835 36218 c-3 -8 -4 -68 -3 -134 3 -111 4 -119 23 -119 19 0 20 7
20 130 0 116 -2 130 -18 133 -9 2 -19 -3 -22 -10z"/>
<path d="M26835 35748 c-3 -8 -4 -68 -3 -134 3 -111 4 -119 23 -119 19 0 20 7
20 130 0 116 -2 130 -18 133 -9 2 -19 -3 -22 -10z"/>
<path d="M26835 35278 c-3 -8 -4 -68 -3 -134 3 -111 4 -119 23 -119 19 0 20 7
20 130 0 116 -2 130 -18 133 -9 2 -19 -3 -22 -10z"/>
<path d="M23070 24876 c-61 -17 -126 -51 -177 -93 -24 -19 -43 -32 -43 -30 0
2 9 29 19 60 l20 57 -67 0 -67 0 -148 -438 c-81 -240 -147 -441 -147 -445 0
-4 32 -7 71 -5 l71 3 93 271 c104 303 119 337 177 400 105 114 304 139 353 44
24 -46 17 -75 -96 -409 -54 -161 -99 -298 -99 -303 0 -5 32 -8 72 -6 l71 3
114 334 c116 343 128 399 104 464 -33 87 -185 130 -321 93z"/>
<path d="M10045 14169 c-45 -13 -97 -61 -128 -118 -36 -64 -14 -70 26 -7 28
44 70 71 104 64 39 -7 27 -64 -72 -353 -52 -154 -95 -283 -95 -287 0 -5 27 -8
59 -8 l59 0 28 83 c15 45 53 159 86 252 l59 170 58 42 c113 83 193 103 245 62
20 -16 26 -29 26 -58 0 -21 -49 -181 -113 -372 -105 -309 -126 -378 -141 -466
l-5 -33 63 0 64 0 6 54 c4 30 61 215 126 411 140 419 149 454 127 508 -27 63
-102 82 -204 52 -41 -12 -148 -78 -220 -137 -8 -7 -10 6 -6 50 5 55 4 60 -22
80 -29 23 -76 27 -130 11z"/>
<path d="M10965 13397 c-166 -79 -301 -382 -239 -537 42 -103 170 -88 282 34
84 92 152 257 152 366 0 48 -26 116 -53 138 -30 25 -88 25 -142 -1z m109 -29
c9 -12 16 -39 16 -59 0 -83 -80 -316 -139 -404 -31 -46 -84 -85 -117 -85 -79
0 -67 161 28 378 70 160 166 236 212 170z"/>
<path d="M26835 34338 c-3 -8 -4 -68 -3 -134 3 -111 4 -119 23 -119 19 0 20 7
20 130 0 116 -2 130 -18 133 -9 2 -19 -3 -22 -10z"/>
<path d="M26835 33868 c-3 -8 -4 -68 -3 -134 3 -111 4 -119 23 -119 19 0 20 7
20 130 0 116 -2 130 -18 133 -9 2 -19 -3 -22 -10z"/>
<path d="M26835 33398 c-3 -8 -4 -68 -3 -134 3 -111 4 -119 23 -119 19 0 20 7
20 130 0 116 -2 130 -18 133 -9 2 -19 -3 -22 -10z"/>
<path d="M26835 32928 c-3 -8 -4 -68 -3 -134 3 -111 4 -119 23 -119 19 0 20 7
20 130 0 116 -2 130 -18 133 -9 2 -19 -3 -22 -10z"/>
<path d="M26835 32458 c-3 -8 -4 -68 -3 -134 3 -111 4 -119 23 -119 19 0 20 7
20 130 0 116 -2 130 -18 133 -9 2 -19 -3 -22 -10z"/>
<path d="M26835 31988 c-3 -8 -4 -68 -3 -134 3 -111 4 -119 23 -119 19 0 20 7
20 130 0 116 -2 130 -18 133 -9 2 -19 -3 -22 -10z"/>
<path d="M26835 31518 c-3 -8 -4 -68 -3 -134 3 -111 4 -119 23 -119 19 0 20 7
20 130 0 116 -2 130 -18 133 -9 2 -19 -3 -22 -10z"/>
<path d="M26835 31048 c-3 -8 -4 -68 -3 -134 3 -111 4 -119 23 -119 19 0 20 7
20 130 0 116 -2 130 -18 133 -9 2 -19 -3 -22 -10z"/>
<path d="M26835 30578 c-3 -8 -4 -68 -3 -134 3 -111 4 -119 23 -119 19 0 20 7
20 130 0 116 -2 130 -18 133 -9 2 -19 -3 -22 -10z"/>
<path d="M26835 30108 c-3 -8 -4 -68 -3 -134 3 -111 4 -119 23 -119 19 0 20 7
20 130 0 116 -2 130 -18 133 -9 2 -19 -3 -22 -10z"/>
<path d="M26835 29638 c-3 -8 -4 -68 -3 -134 3 -111 4 -119 23 -119 19 0 20 7
20 130 0 116 -2 130 -18 133 -9 2 -19 -3 -22 -10z"/>
<path d="M26835 29168 c-3 -8 -4 -68 -3 -134 3 -111 4 -119 23 -119 19 0 20 7
20 130 0 116 -2 130 -18 133 -9 2 -19 -3 -22 -10z"/>
<path d="M26835 28698 c-3 -8 -4 -68 -3 -134 3 -111 4 -119 23 -119 19 0 20 7
20 130 0 116 -2 130 -18 133 -9 2 -19 -3 -22 -10z"/>
<path d="M28040 27810 l0 -610 75 0 75 0 1 513 0 512 110 -320 c60 -176 139
-407 175 -512 l66 -193 72 0 71 0 175 513 175 512 3 -512 2 -513 75 0 75 0 0
610 0 610 -109 0 -108 0 -174 -514 c-96 -283 -177 -512 -180 -508 -4 4 -82
235 -175 515 l-169 507 -117 0 -118 0 0 -610z"/>
<path d="M29450 28340 l0 -80 70 0 70 0 0 80 0 80 -70 0 -70 0 0 -80z"/>
<path d="M33240 27810 l0 -610 75 0 75 0 0 610 0 610 -75 0 -75 0 0 -610z"/>
<path d="M35050 28340 l0 -80 70 0 70 0 0 80 0 80 -70 0 -70 0 0 -80z"/>
<path d="M35420 27810 l0 -610 75 0 75 0 0 610 0 610 -75 0 -75 0 0 -610z"/>
<path d="M36290 27810 l0 -610 75 0 75 0 1 513 0 512 110 -320 c60 -176 139
-407 175 -512 l66 -193 72 0 71 0 175 513 175 512 3 -512 2 -513 75 0 75 0 0
610 0 610 -109 0 -108 0 -174 -514 c-96 -283 -177 -512 -180 -508 -4 4 -82
235 -175 515 l-169 507 -117 0 -118 0 0 -610z"/>
<path d="M38878 28405 c-145 -40 -245 -160 -271 -326 -29 -187 57 -365 211
-437 48 -23 71 -27 142 -27 76 0 93 4 152 33 36 18 82 51 103 73 20 22 39 38
42 35 8 -8 -15 -174 -32 -232 -39 -131 -124 -213 -231 -222 -110 -9 -187 47
-215 158 -14 54 -12 54 -98 43 l-53 -6 5 -41 c10 -69 66 -166 121 -208 134
-100 350 -86 479 32 114 104 157 236 164 505 6 209 -8 312 -57 411 -85 173
-278 260 -462 209z m193 -115 c50 -14 113 -71 138 -126 31 -66 38 -165 16
-239 -22 -77 -88 -147 -155 -165 -185 -50 -343 104 -310 304 27 169 162 267
311 226z"/>
<path d="M39843 28406 c-107 -35 -169 -93 -223 -208 -93 -199 -91 -610 5 -812
38 -79 88 -131 163 -168 61 -30 74 -33 162 -33 81 0 103 4 151 27 112 52 192
170 225 333 26 126 24 414 -4 527 -56 227 -168 335 -355 344 -53 3 -97 -1
-124 -10z m219 -143 c96 -69 129 -190 129 -463 0 -202 -16 -307 -59 -383 -104
-185 -336 -142 -396 73 -38 136 -40 469 -3 605 40 144 112 209 229 202 45 -3
67 -10 100 -34z"/>
<path d="M40931 28308 c-43 -62 -170 -241 -280 -398 l-201 -284 0 -68 0 -68
265 0 265 0 0 -145 0 -145 75 0 75 0 0 145 0 145 85 0 85 0 0 70 0 70 -85 0
-85 0 0 395 0 395 -60 0 -59 0 -80 -112z m46 -675 c-2 -2 -88 -2 -190 -1
l-185 3 187 268 186 268 3 -267 c1 -147 1 -269 -1 -271z"/>
<path d="M42820 28340 l0 -80 70 0 70 0 0 80 0 80 -70 0 -70 0 0 -80z"/>
<path d="M46700 28340 l0 -80 70 0 70 0 0 80 0 80 -70 0 -70 0 0 -80z"/>
<path d="M37795 28388 c-7 -25 -115 -602 -112 -604 1 -2 31 -7 66 -13 l64 -10
44 39 c59 51 128 74 207 68 148 -12 235 -111 236 -269 0 -92 -19 -153 -67
-209 -131 -153 -365 -101 -414 91 l-13 51 -76 -7 c-41 -4 -76 -8 -77 -9 -8 -7
32 -127 52 -163 34 -58 107 -118 174 -145 82 -32 241 -32 326 2 116 46 217
172 246 308 17 84 7 199 -26 269 -35 77 -112 154 -189 189 -52 24 -74 28 -152
29 -84 0 -95 -3 -163 -36 -67 -33 -72 -34 -67 -15 2 12 17 83 32 159 l27 137
243 0 244 0 0 75 0 75 -300 0 c-232 0 -302 -3 -305 -12z"/>
<path d="M47168 28349 l-68 -40 0 -110 0 -109 -55 0 -55 0 0 -60 0 -60 54 0
55 0 3 -337 c3 -379 4 -380 75 -425 33 -20 51 -23 135 -23 53 0 98 2 101 5 3
3 0 33 -6 68 l-10 62 -53 0 c-41 0 -59 5 -74 20 -19 19 -20 33 -20 325 l0 305
75 0 75 0 0 60 0 60 -75 0 -75 0 0 150 c0 83 -3 150 -7 150 -5 0 -38 -18 -75
-41z"/>
<path d="M26835 28228 c-3 -8 -4 -68 -3 -134 3 -111 4 -119 23 -119 19 0 20 7
20 130 0 116 -2 130 -18 133 -9 2 -19 -3 -22 -10z"/>
<path d="M30140 28097 c-59 -17 -111 -49 -149 -93 l-31 -35 0 61 0 60 -70 0
-70 0 0 -445 0 -445 74 0 74 0 4 303 c3 266 6 307 22 345 66 153 304 180 374
42 21 -43 22 -52 22 -367 l0 -323 76 0 75 0 -3 358 -3 357 -27 52 c-47 89
-125 133 -248 139 -43 2 -94 -1 -120 -9z"/>
<path d="M31020 28095 c-139 -39 -230 -135 -276 -290 -25 -87 -23 -258 5 -345
53 -168 177 -263 358 -277 170 -13 321 55 385 174 45 84 45 90 -4 98 -24 3
-57 9 -74 12 -29 4 -33 1 -62 -51 -70 -123 -239 -154 -359 -66 -51 38 -101
131 -110 208 l-6 52 332 0 331 0 0 43 c0 200 -100 371 -248 428 -75 28 -198
34 -272 14z m195 -116 c59 -17 129 -90 149 -158 29 -99 50 -91 -229 -91 l-245
0 0 33 c0 41 33 113 68 151 60 64 164 90 257 65z"/>
<path d="M31970 28088 c-25 -13 -59 -42 -77 -66 l-33 -44 0 56 0 56 -70 0 -70
0 0 -445 0 -445 74 0 74 0 4 303 c3 256 7 309 21 347 41 106 130 147 220 101
20 -10 39 -16 41 -12 6 10 46 115 46 122 0 13 -80 42 -130 46 -44 4 -64 0
-100 -19z"/>
<path d="M32560 28103 c-150 -25 -254 -111 -285 -236 -6 -23 -4 -25 37 -32 24
-3 55 -8 70 -11 24 -5 29 -1 49 46 39 92 107 126 234 118 131 -9 194 -67 195
-180 0 -44 -2 -47 -32 -56 -51 -16 -76 -20 -219 -42 -158 -23 -186 -31 -245
-65 -112 -66 -153 -209 -93 -326 83 -165 365 -186 557 -42 18 14 35 23 38 20
2 -2 10 -24 17 -48 l13 -44 77 -3 c42 -2 77 -1 77 1 0 3 -8 24 -17 48 -14 36
-18 98 -22 359 -6 313 -6 316 -31 365 -47 90 -161 137 -326 134 -38 -1 -80 -4
-94 -6z m298 -541 c-7 -92 -23 -136 -69 -181 -73 -73 -213 -102 -302 -63 -114
50 -114 190 -1 238 17 7 88 23 158 34 70 12 144 28 164 35 20 7 41 14 46 14 5
1 6 -34 4 -77z"/>
<path d="M34340 28097 c-110 -32 -202 -104 -249 -195 -70 -138 -67 -389 6
-525 37 -67 120 -141 191 -168 76 -30 231 -33 309 -6 67 23 152 85 187 135 87
126 107 362 45 528 -31 83 -130 182 -214 214 -74 27 -209 36 -275 17z m218
-133 c104 -52 144 -128 150 -291 7 -188 -39 -292 -154 -349 -47 -23 -63 -26
-117 -22 -35 3 -77 13 -94 21 -42 22 -90 71 -112 116 -59 116 -53 322 12 433
63 108 202 149 315 92z"/>
<path d="M43370 28096 c-102 -29 -154 -69 -189 -146 -29 -64 -27 -134 5 -198
41 -83 73 -99 393 -192 95 -28 131 -61 131 -120 0 -78 -88 -140 -198 -140
-115 0 -196 53 -222 144 -12 43 -15 47 -39 42 -14 -3 -47 -7 -73 -11 l-47 -6
16 -52 c20 -69 65 -139 111 -170 68 -48 118 -60 242 -61 147 0 210 21 285 98
56 57 75 104 75 185 0 65 -21 115 -66 157 -35 33 -115 63 -360 134 -84 24
-120 49 -129 91 -21 94 91 157 240 135 56 -9 120 -61 130 -106 4 -17 10 -32
14 -35 8 -4 132 13 139 20 7 7 -28 98 -50 130 -62 91 -263 141 -408 101z"/>
<path d="M44290 28096 c-131 -37 -215 -114 -262 -244 -30 -81 -32 -319 -4
-405 58 -175 215 -278 405 -264 165 13 298 130 326 289 8 41 18 35 -99 53
l-35 6 -16 -60 c-42 -147 -179 -212 -312 -146 -93 47 -131 122 -140 277 -10
162 19 262 96 331 82 74 212 76 289 4 27 -25 62 -88 62 -112 0 -17 5 -17 118
2 38 6 38 12 -9 110 -28 59 -70 102 -129 133 -73 38 -203 50 -290 26z"/>
<path d="M45140 28097 c-110 -32 -202 -104 -249 -195 -70 -138 -67 -389 6
-525 37 -67 120 -141 191 -168 76 -30 231 -33 309 -6 67 23 152 85 187 135 87
126 107 362 45 528 -31 83 -130 182 -214 214 -74 27 -209 36 -275 17z m218
-133 c104 -52 144 -128 150 -291 7 -188 -39 -292 -154 -349 -47 -23 -63 -26
-117 -22 -35 3 -77 13 -94 21 -42 22 -90 71 -112 116 -59 116 -53 322 12 433
63 108 202 149 315 92z"/>
<path d="M46020 28096 c-102 -29 -154 -69 -189 -146 -29 -64 -27 -134 5 -198
41 -83 73 -99 393 -192 95 -28 131 -61 131 -120 0 -78 -88 -140 -198 -140
-115 0 -196 53 -222 144 -12 43 -15 47 -39 42 -14 -3 -47 -7 -73 -11 l-47 -6
16 -52 c20 -69 65 -139 111 -170 68 -48 118 -60 242 -61 147 0 210 21 285 98
56 57 75 104 75 185 0 65 -21 115 -66 157 -35 33 -115 63 -360 134 -84 24
-120 49 -129 91 -21 94 91 157 240 135 56 -9 120 -61 130 -106 4 -17 10 -32
14 -35 8 -4 132 13 139 20 7 7 -28 98 -50 130 -62 91 -263 141 -408 101z"/>
<path d="M29450 27645 l0 -445 70 0 70 0 0 445 0 445 -70 0 -70 0 0 -445z"/>
<path d="M35050 27645 l0 -445 70 0 70 0 0 445 0 445 -70 0 -70 0 0 -445z"/>
<path d="M42039 27645 l166 -445 71 0 70 0 144 383 c78 210 154 410 167 445
l23 63 -77 -3 -77 -3 -115 -321 c-64 -176 -121 -333 -127 -350 l-11 -29 -17
58 c-16 52 -174 501 -213 605 l-16 42 -77 0 -77 0 166 -445z"/>
<path d="M42820 27645 l0 -445 70 0 70 0 0 445 0 445 -70 0 -70 0 0 -445z"/>
<path d="M46700 27645 l0 -445 70 0 70 0 0 445 0 445 -70 0 -70 0 0 -445z"/>
<path d="M47464 28072 c3 -10 77 -211 165 -447 l159 -430 -25 -70 c-33 -90
-46 -110 -90 -130 -27 -13 -52 -16 -95 -12 l-59 5 7 -61 c3 -34 10 -66 14 -70
4 -5 35 -11 68 -14 117 -11 197 52 261 204 28 64 368 988 379 1026 4 16 -2 18
-69 15 l-73 -3 -99 -275 c-54 -151 -109 -311 -122 -355 -20 -67 -25 -76 -31
-55 -8 28 -128 376 -195 568 l-43 122 -79 0 c-71 0 -78 -2 -73 -18z"/>
<path d="M26835 27758 c-3 -8 -4 -68 -3 -134 3 -111 4 -119 23 -119 19 0 20 7
20 130 0 116 -2 130 -18 133 -9 2 -19 -3 -22 -10z"/>
<path d="M26835 27288 c-3 -8 -4 -68 -3 -134 3 -111 4 -119 23 -119 19 0 20 7
20 130 0 116 -2 130 -18 133 -9 2 -19 -3 -22 -10z"/>
<path d="M26835 26818 c-3 -8 -4 -68 -3 -134 3 -111 4 -119 23 -119 19 0 20 7
20 130 0 116 -2 130 -18 133 -9 2 -19 -3 -22 -10z"/>
<path d="M26835 26348 c-3 -8 -4 -68 -3 -134 3 -111 4 -119 23 -119 19 0 20 7
20 130 0 116 -2 130 -18 133 -9 2 -19 -3 -22 -10z"/>
<path d="M26835 25878 c-3 -8 -4 -68 -3 -134 3 -111 4 -119 23 -119 19 0 20 7
20 130 0 116 -2 130 -18 133 -9 2 -19 -3 -22 -10z"/>
<path d="M26835 25408 c-3 -8 -4 -68 -3 -134 3 -111 4 -119 23 -119 19 0 20 7
20 130 0 116 -2 130 -18 133 -9 2 -19 -3 -22 -10z"/>
<path d="M26835 24938 c-3 -8 -4 -68 -3 -134 3 -111 4 -119 23 -119 19 0 20 7
20 130 0 116 -2 130 -18 133 -9 2 -19 -3 -22 -10z"/>
<path d="M26835 24468 c-3 -8 -4 -68 -3 -134 3 -111 4 -119 23 -119 19 0 20 7
20 130 0 116 -2 130 -18 133 -9 2 -19 -3 -22 -10z"/>
<path d="M26835 23998 c-3 -8 -4 -68 -3 -134 3 -111 4 -119 23 -119 19 0 20 7
20 130 0 116 -2 130 -18 133 -9 2 -19 -3 -22 -10z"/>
<path d="M26835 23528 c-3 -8 -4 -68 -3 -134 3 -111 4 -119 23 -119 19 0 20 7
20 130 0 116 -2 130 -18 133 -9 2 -19 -3 -22 -10z"/>
<path d="M26835 23058 c-3 -8 -4 -68 -3 -134 3 -111 4 -119 23 -119 19 0 20 7
20 130 0 116 -2 130 -18 133 -9 2 -19 -3 -22 -10z"/>
<path d="M26835 22588 c-3 -8 -4 -68 -3 -134 3 -111 4 -119 23 -119 19 0 20 7
20 130 0 116 -2 130 -18 133 -9 2 -19 -3 -22 -10z"/>
<path d="M26835 22118 c-3 -8 -4 -68 -3 -134 3 -111 4 -119 23 -119 19 0 20 7
20 130 0 116 -2 130 -18 133 -9 2 -19 -3 -22 -10z"/>
<path d="M26835 21648 c-3 -8 -4 -68 -3 -134 3 -111 4 -119 23 -119 19 0 20 7
20 130 0 116 -2 130 -18 133 -9 2 -19 -3 -22 -10z"/>
<path d="M26835 21178 c-3 -8 -4 -68 -3 -134 3 -111 4 -119 23 -119 19 0 20 7
20 130 0 116 -2 130 -18 133 -9 2 -19 -3 -22 -10z"/>
<path d="M26835 20708 c-3 -8 -4 -68 -3 -134 3 -111 4 -119 23 -119 19 0 20 7
20 130 0 116 -2 130 -18 133 -9 2 -19 -3 -22 -10z"/>
<path d="M26835 20238 c-3 -8 -4 -68 -3 -134 3 -111 4 -119 23 -119 19 0 20 7
20 130 0 116 -2 130 -18 133 -9 2 -19 -3 -22 -10z"/>
<path d="M26835 19778 c-3 -8 -4 -68 -3 -134 3 -111 4 -119 23 -119 19 0 20 7
20 130 0 116 -2 130 -18 133 -9 2 -19 -3 -22 -10z"/>
<path d="M26835 19308 c-3 -8 -4 -68 -3 -134 3 -111 4 -119 23 -119 19 0 20 7
20 130 0 116 -2 130 -18 133 -9 2 -19 -3 -22 -10z"/>
<path d="M26835 18838 c-3 -8 -4 -68 -3 -134 3 -111 4 -119 23 -119 19 0 20 7
20 130 0 116 -2 130 -18 133 -9 2 -19 -3 -22 -10z"/>
<path d="M26835 18368 c-3 -8 -4 -68 -3 -134 3 -111 4 -119 23 -119 19 0 20 7
20 130 0 116 -2 130 -18 133 -9 2 -19 -3 -22 -10z"/>
<path d="M26835 17898 c-3 -8 -4 -68 -3 -134 3 -111 4 -119 23 -119 19 0 20 7
20 130 0 116 -2 130 -18 133 -9 2 -19 -3 -22 -10z"/>
<path d="M28439 16949 c-211 -342 -385 -625 -387 -630 -2 -5 23 -9 55 -9 l58
1 365 591 c201 325 375 609 388 630 l23 38 -59 0 -58 0 -385 -621z"/>
<path d="M28010 17505 c-66 -67 -189 -151 -308 -211 l-107 -54 -22 -67 c-13
-36 -22 -68 -20 -69 6 -7 208 87 281 130 55 32 76 41 71 29 -10 -25 -315 -925
-315 -929 0 -2 33 -4 73 -4 l72 0 42 123 c22 67 115 341 206 610 l166 487 -47
0 c-43 0 -52 -4 -92 -45z"/>
<path d="M29055 17538 c-32 -88 -405 -1193 -405 -1199 0 -15 535 -10 623 6
184 32 331 150 398 316 26 67 29 161 6 206 -18 34 -84 93 -104 93 -25 0 -12
15 33 39 64 34 148 122 181 188 29 60 41 145 29 208 -10 49 -67 110 -124 131
-40 15 -91 18 -340 22 -236 3 -293 1 -297 -10z m503 -137 c86 -17 116 -77 87
-176 -19 -68 -75 -133 -143 -166 -43 -21 -63 -23 -255 -27 l-207 -4 39 108
c21 60 50 146 65 192 l28 82 171 0 c95 -1 191 -5 215 -9z m-106 -533 c49 -22
72 -59 72 -117 -1 -97 -79 -208 -178 -253 -47 -21 -67 -23 -273 -26 l-222 -4
72 212 72 211 210 -3 c167 -3 217 -7 247 -20z"/>
<path d="M26835 17428 c-3 -8 -4 -68 -3 -134 3 -111 4 -119 23 -119 19 0 20 7
20 130 0 116 -2 130 -18 133 -9 2 -19 -3 -22 -10z"/>
<path d="M26835 16958 c-3 -8 -4 -68 -3 -134 3 -111 4 -119 23 -119 19 0 20 7
20 130 0 116 -2 130 -18 133 -9 2 -19 -3 -22 -10z"/>
<path d="M26835 16488 c-3 -8 -4 -68 -3 -134 3 -111 4 -119 23 -119 19 0 20 7
20 130 0 116 -2 130 -18 133 -9 2 -19 -3 -22 -10z"/>
<path d="M30075 16387 c-66 -22 -99 -43 -142 -90 -40 -43 -68 -85 -61 -92 2
-2 20 -6 40 -10 34 -6 38 -5 53 24 44 86 197 121 255 59 28 -30 25 -77 -7
-126 -38 -56 -84 -93 -255 -207 -147 -97 -268 -206 -281 -254 l-5 -21 237 0
236 0 16 45 17 45 -175 0 c-162 0 -174 1 -162 17 8 9 82 61 164 116 237 157
300 221 326 334 10 44 10 55 -7 89 -29 57 -61 76 -141 80 -40 2 -85 -2 -108
-9z"/>
<path d="M26835 16018 c-3 -8 -4 -68 -3 -134 3 -111 4 -119 23 -119 19 0 20 7
20 130 0 116 -2 130 -18 133 -9 2 -19 -3 -22 -10z"/>
<path d="M26835 15548 c-3 -8 -4 -68 -3 -134 3 -111 4 -119 23 -119 19 0 20 7
20 130 0 116 -2 130 -18 133 -9 2 -19 -3 -22 -10z"/>
<path d="M26835 15078 c-3 -8 -4 -68 -3 -134 3 -111 4 -119 23 -119 19 0 20 7
20 130 0 116 -2 130 -18 133 -9 2 -19 -3 -22 -10z"/>
<path d="M26835 14608 c-3 -8 -4 -68 -3 -134 3 -111 4 -119 23 -119 19 0 20 7
20 130 0 116 -2 130 -18 133 -9 2 -19 -3 -22 -10z"/>
<path d="M26835 14138 c-3 -8 -4 -68 -3 -134 3 -111 4 -119 23 -119 19 0 20 7
20 130 0 116 -2 130 -18 133 -9 2 -19 -3 -22 -10z"/>
<path d="M26835 13668 c-3 -8 -4 -68 -3 -134 3 -111 4 -119 23 -119 19 0 20 7
20 130 0 116 -2 130 -18 133 -9 2 -19 -3 -22 -10z"/>
<path d="M26835 13198 c-3 -8 -4 -68 -3 -134 3 -111 4 -119 23 -119 19 0 20 7
20 130 0 116 -2 130 -18 133 -9 2 -19 -3 -22 -10z"/>
<path d="M26835 12728 c-3 -8 -4 -68 -3 -134 3 -111 4 -119 23 -119 19 0 20 7
20 130 0 116 -2 130 -18 133 -9 2 -19 -3 -22 -10z"/>
<path d="M26837 12264 c-4 -4 -7 -24 -7 -45 l0 -38 -117 -3 c-110 -3 -118 -4
-118 -23 0 -19 8 -20 117 -23 l117 -3 3 -62 c3 -54 5 -62 23 -62 19 0 20 7 20
130 0 109 -2 130 -15 133 -9 1 -19 0 -23 -4z"/>
<path d="M14843 12165 c-11 -30 12 -36 138 -33 116 3 124 4 124 23 0 19 -8 20
-128 23 -109 2 -128 0 -134 -13z"/>
<path d="M15313 12165 c-11 -30 12 -36 138 -33 116 3 124 4 124 23 0 19 -8 20
-128 23 -109 2 -128 0 -134 -13z"/>
<path d="M15783 12165 c-11 -30 12 -36 138 -33 116 3 124 4 124 23 0 19 -8 20
-128 23 -109 2 -128 0 -134 -13z"/>
<path d="M16253 12165 c-11 -30 12 -36 138 -33 116 3 124 4 124 23 0 19 -8 20
-128 23 -109 2 -128 0 -134 -13z"/>
<path d="M16723 12165 c-11 -30 12 -36 138 -33 116 3 124 4 124 23 0 19 -8 20
-128 23 -109 2 -128 0 -134 -13z"/>
<path d="M17193 12165 c-11 -30 12 -36 138 -33 116 3 124 4 124 23 0 19 -8 20
-128 23 -109 2 -128 0 -134 -13z"/>
<path d="M17663 12165 c-11 -30 12 -36 138 -33 116 3 124 4 124 23 0 19 -8 20
-128 23 -109 2 -128 0 -134 -13z"/>
<path d="M18133 12165 c-11 -30 12 -36 138 -33 116 3 124 4 124 23 0 19 -8 20
-128 23 -109 2 -128 0 -134 -13z"/>
<path d="M18603 12165 c-11 -30 12 -36 138 -33 116 3 124 4 124 23 0 19 -8 20
-128 23 -109 2 -128 0 -134 -13z"/>
<path d="M19073 12165 c-11 -30 12 -36 138 -33 116 3 124 4 124 23 0 19 -8 20
-128 23 -109 2 -128 0 -134 -13z"/>
<path d="M19543 12165 c-11 -30 12 -36 138 -33 116 3 124 4 124 23 0 19 -8 20
-128 23 -109 2 -128 0 -134 -13z"/>
<path d="M20013 12165 c-11 -30 12 -36 138 -33 116 3 124 4 124 23 0 19 -8 20
-128 23 -109 2 -128 0 -134 -13z"/>
<path d="M20483 12165 c-11 -30 12 -36 138 -33 116 3 124 4 124 23 0 19 -8 20
-128 23 -109 2 -128 0 -134 -13z"/>
<path d="M20953 12165 c-11 -30 12 -36 138 -33 116 3 124 4 124 23 0 19 -8 20
-128 23 -109 2 -128 0 -134 -13z"/>
<path d="M21423 12165 c-11 -30 12 -36 138 -33 116 3 124 4 124 23 0 19 -8 20
-128 23 -109 2 -128 0 -134 -13z"/>
<path d="M21893 12165 c-11 -30 12 -36 138 -33 116 3 124 4 124 23 0 19 -8 20
-128 23 -109 2 -128 0 -134 -13z"/>
<path d="M22363 12165 c-11 -30 12 -36 138 -33 116 3 124 4 124 23 0 19 -8 20
-128 23 -109 2 -128 0 -134 -13z"/>
<path d="M22833 12165 c-11 -30 12 -36 138 -33 116 3 124 4 124 23 0 19 -8 20
-128 23 -109 2 -128 0 -134 -13z"/>
<path d="M23303 12165 c-11 -30 12 -36 138 -33 116 3 124 4 124 23 0 19 -8 20
-128 23 -109 2 -128 0 -134 -13z"/>
<path d="M23773 12165 c-11 -30 12 -36 138 -33 116 3 124 4 124 23 0 19 -8 20
-128 23 -109 2 -128 0 -134 -13z"/>
<path d="M24243 12165 c-11 -30 12 -36 138 -33 116 3 124 4 124 23 0 19 -8 20
-128 23 -109 2 -128 0 -134 -13z"/>
<path d="M24713 12165 c-11 -30 12 -36 138 -33 116 3 124 4 124 23 0 19 -8 20
-128 23 -109 2 -128 0 -134 -13z"/>
<path d="M25183 12165 c-11 -30 12 -36 138 -33 116 3 124 4 124 23 0 19 -8 20
-128 23 -109 2 -128 0 -134 -13z"/>
<path d="M25653 12165 c-11 -30 12 -36 138 -33 116 3 124 4 124 23 0 19 -8 20
-128 23 -109 2 -128 0 -134 -13z"/>
<path d="M26123 12165 c-11 -30 12 -36 138 -33 116 3 124 4 124 23 0 19 -8 20
-128 23 -109 2 -128 0 -134 -13z"/>
<path d="M27063 12165 c-11 -30 12 -36 138 -33 116 3 124 4 124 23 0 19 -8 20
-128 23 -109 2 -128 0 -134 -13z"/>
<path d="M27533 12165 c-11 -30 12 -36 133 -33 111 3 119 4 119 23 0 19 -8 20
-123 23 -105 2 -123 0 -129 -13z"/>
<path d="M27993 12165 c-11 -30 12 -36 138 -33 116 3 124 4 124 23 0 19 -8 20
-128 23 -109 2 -128 0 -134 -13z"/>
<path d="M28463 12165 c-11 -30 12 -36 138 -33 116 3 124 4 124 23 0 19 -8 20
-128 23 -109 2 -128 0 -134 -13z"/>
<path d="M28933 12165 c-11 -30 12 -36 138 -33 116 3 124 4 124 23 0 19 -8 20
-128 23 -109 2 -128 0 -134 -13z"/>
<path d="M29403 12165 c-11 -30 12 -36 138 -33 116 3 124 4 124 23 0 19 -8 20
-128 23 -109 2 -128 0 -134 -13z"/>
<path d="M29873 12165 c-11 -30 12 -36 138 -33 116 3 124 4 124 23 0 19 -8 20
-128 23 -109 2 -128 0 -134 -13z"/>
<path d="M30343 12165 c-11 -30 12 -36 138 -33 116 3 124 4 124 23 0 19 -8 20
-128 23 -109 2 -128 0 -134 -13z"/>
<path d="M30813 12165 c-11 -30 12 -36 138 -33 116 3 124 4 124 23 0 19 -8 20
-128 23 -109 2 -128 0 -134 -13z"/>
<path d="M31283 12165 c-11 -30 12 -36 138 -33 116 3 124 4 124 23 0 19 -8 20
-128 23 -109 2 -128 0 -134 -13z"/>
<path d="M31753 12165 c-11 -30 12 -36 138 -33 116 3 124 4 124 23 0 19 -8 20
-128 23 -109 2 -128 0 -134 -13z"/>
<path d="M32223 12165 c-11 -30 12 -36 138 -33 116 3 124 4 124 23 0 19 -8 20
-128 23 -109 2 -128 0 -134 -13z"/>
<path d="M32693 12165 c-11 -30 12 -36 138 -33 116 3 124 4 124 23 0 19 -8 20
-128 23 -109 2 -128 0 -134 -13z"/>
<path d="M33163 12165 c-11 -30 12 -36 138 -33 116 3 124 4 124 23 0 19 -8 20
-128 23 -109 2 -128 0 -134 -13z"/>
<path d="M33633 12165 c-11 -30 12 -36 138 -33 116 3 124 4 124 23 0 19 -8 20
-128 23 -109 2 -128 0 -134 -13z"/>
<path d="M34103 12165 c-11 -30 12 -36 138 -33 116 3 124 4 124 23 0 19 -8 20
-128 23 -109 2 -128 0 -134 -13z"/>
<path d="M34573 12165 c-11 -30 12 -36 138 -33 116 3 124 4 124 23 0 19 -8 20
-128 23 -109 2 -128 0 -134 -13z"/>
<path d="M35043 12165 c-11 -30 12 -36 138 -33 116 3 124 4 124 23 0 19 -8 20
-128 23 -109 2 -128 0 -134 -13z"/>
<path d="M35513 12165 c-11 -30 12 -36 138 -33 116 3 124 4 124 23 0 19 -8 20
-128 23 -109 2 -128 0 -134 -13z"/>
<path d="M35983 12165 c-11 -30 12 -36 138 -33 116 3 124 4 124 23 0 19 -8 20
-128 23 -109 2 -128 0 -134 -13z"/>
<path d="M36453 12165 c-11 -30 12 -36 138 -33 116 3 124 4 124 23 0 19 -8 20
-128 23 -109 2 -128 0 -134 -13z"/>
<path d="M36923 12165 c-11 -30 12 -36 138 -33 116 3 124 4 124 23 0 19 -8 20
-128 23 -109 2 -128 0 -134 -13z"/>
<path d="M37393 12165 c-11 -30 12 -36 138 -33 116 3 124 4 124 23 0 19 -8 20
-128 23 -109 2 -128 0 -134 -13z"/>
<path d="M37863 12165 c-11 -30 12 -36 138 -33 116 3 124 4 124 23 0 19 -8 20
-128 23 -109 2 -128 0 -134 -13z"/>
<path d="M38333 12165 c-11 -30 12 -36 138 -33 116 3 124 4 124 23 0 19 -8 20
-128 23 -109 2 -128 0 -134 -13z"/>
<path d="M38803 12165 c-11 -30 12 -36 138 -33 116 3 124 4 124 23 0 19 -8 20
-128 23 -109 2 -128 0 -134 -13z"/>
<path d="M39273 12165 c-11 -30 12 -36 138 -33 116 3 124 4 124 23 0 19 -8 20
-128 23 -109 2 -128 0 -134 -13z"/>
<path d="M39743 12165 c-11 -30 12 -36 138 -33 116 3 124 4 124 23 0 19 -8 20
-128 23 -109 2 -128 0 -134 -13z"/>
<path d="M40213 12165 c-11 -30 12 -36 138 -33 116 3 124 4 124 23 0 19 -8 20
-128 23 -109 2 -128 0 -134 -13z"/>
<path d="M40683 12165 c-11 -30 12 -36 138 -33 116 3 124 4 124 23 0 19 -8 20
-128 23 -109 2 -128 0 -134 -13z"/>
<path d="M41153 12165 c-11 -30 12 -36 138 -33 116 3 124 4 124 23 0 19 -8 20
-128 23 -109 2 -128 0 -134 -13z"/>
<path d="M41623 12165 c-11 -30 12 -36 138 -33 116 3 124 4 124 23 0 19 -8 20
-128 23 -109 2 -128 0 -134 -13z"/>
<path d="M42093 12165 c-11 -30 12 -36 138 -33 116 3 124 4 124 23 0 19 -8 20
-128 23 -109 2 -128 0 -134 -13z"/>
<path d="M42563 12165 c-11 -30 12 -36 138 -33 116 3 124 4 124 23 0 19 -8 20
-128 23 -109 2 -128 0 -134 -13z"/>
<path d="M43033 12165 c-11 -30 12 -36 138 -33 116 3 124 4 124 23 0 19 -8 20
-128 23 -109 2 -128 0 -134 -13z"/>
<path d="M43503 12165 c-11 -30 12 -36 138 -33 116 3 124 4 124 23 0 19 -8 20
-128 23 -109 2 -128 0 -134 -13z"/>
<path d="M43973 12165 c-11 -30 12 -36 138 -33 116 3 124 4 124 23 0 19 -8 20
-128 23 -109 2 -128 0 -134 -13z"/>
<path d="M44443 12165 c-11 -30 12 -36 138 -33 116 3 124 4 124 23 0 19 -8 20
-128 23 -109 2 -128 0 -134 -13z"/>
<path d="M44913 12165 c-11 -30 12 -36 138 -33 116 3 124 4 124 23 0 19 -8 20
-128 23 -109 2 -128 0 -134 -13z"/>
<path d="M45383 12165 c-11 -30 12 -36 138 -33 116 3 124 4 124 23 0 19 -8 20
-128 23 -109 2 -128 0 -134 -13z"/>
<path d="M45853 12165 c-11 -30 12 -36 138 -33 116 3 124 4 124 23 0 19 -8 20
-128 23 -109 2 -128 0 -134 -13z"/>
<path d="M46323 12165 c-11 -30 12 -36 138 -33 116 3 124 4 124 23 0 19 -8 20
-128 23 -109 2 -128 0 -134 -13z"/>
<path d="M46793 12165 c-11 -30 12 -36 138 -33 116 3 124 4 124 23 0 19 -8 20
-128 23 -109 2 -128 0 -134 -13z"/>
<path d="M47263 12165 c-11 -30 12 -36 138 -33 116 3 124 4 124 23 0 19 -8 20
-128 23 -109 2 -128 0 -134 -13z"/>
<path d="M47733 12165 c-11 -30 12 -36 138 -33 116 3 124 4 124 23 0 19 -8 20
-128 23 -109 2 -128 0 -134 -13z"/>
<path d="M48203 12165 c-11 -30 12 -36 138 -33 116 3 124 4 124 23 0 19 -8 20
-128 23 -109 2 -128 0 -134 -13z"/>
<path d="M26835 11788 c-3 -8 -4 -68 -3 -134 3 -111 4 -119 23 -119 19 0 20 7
20 130 0 116 -2 130 -18 133 -9 2 -19 -3 -22 -10z"/>
<path d="M26835 11318 c-3 -8 -4 -68 -3 -134 3 -111 4 -119 23 -119 19 0 20 7
20 130 0 116 -2 130 -18 133 -9 2 -19 -3 -22 -10z"/>
<path d="M26835 10848 c-3 -8 -4 -68 -3 -134 3 -111 4 -119 23 -119 19 0 20 7
20 130 0 116 -2 130 -18 133 -9 2 -19 -3 -22 -10z"/>
<path d="M26835 10378 c-3 -8 -4 -68 -3 -134 3 -111 4 -119 23 -119 19 0 20 7
20 130 0 116 -2 130 -18 133 -9 2 -19 -3 -22 -10z"/>
<path d="M26835 9908 c-3 -8 -4 -68 -3 -134 3 -111 4 -119 23 -119 19 0 20 7
20 130 0 116 -2 130 -18 133 -9 2 -19 -3 -22 -10z"/>
<path d="M26835 9438 c-3 -8 -4 -68 -3 -134 3 -111 4 -119 23 -119 19 0 20 7
20 130 0 116 -2 130 -18 133 -9 2 -19 -3 -22 -10z"/>
<path d="M26835 8968 c-3 -8 -4 -68 -3 -134 3 -111 4 -119 23 -119 19 0 20 7
20 130 0 116 -2 130 -18 133 -9 2 -19 -3 -22 -10z"/>
<path d="M26835 8498 c-3 -8 -4 -68 -3 -134 3 -111 4 -119 23 -119 19 0 20 7
20 130 0 116 -2 130 -18 133 -9 2 -19 -3 -22 -10z"/>
<path d="M26835 8028 c-3 -8 -4 -68 -3 -134 3 -111 4 -119 23 -119 19 0 20 7
20 130 0 116 -2 130 -18 133 -9 2 -19 -3 -22 -10z"/>
<path d="M26835 7558 c-3 -8 -4 -68 -3 -134 3 -111 4 -119 23 -119 19 0 20 7
20 130 0 116 -2 130 -18 133 -9 2 -19 -3 -22 -10z"/>
<path d="M26835 7088 c-3 -8 -4 -68 -3 -134 3 -111 4 -119 23 -119 19 0 20 7
20 130 0 116 -2 130 -18 133 -9 2 -19 -3 -22 -10z"/>
<path d="M26835 6618 c-3 -8 -4 -68 -3 -134 3 -111 4 -119 23 -119 19 0 20 7
20 130 0 116 -2 130 -18 133 -9 2 -19 -3 -22 -10z"/>
<path d="M4200 36685 c-100 -31 -178 -138 -206 -282 -8 -41 -14 -131 -14 -199
0 -210 39 -344 124 -422 103 -95 279 -95 382 0 88 82 124 202 124 423 0 158
-15 246 -56 330 -66 135 -208 195 -354 150z m169 -125 c94 -48 116 -116 116
-360 0 -174 -2 -188 -25 -244 -32 -77 -81 -117 -148 -124 -90 -8 -163 51 -193
158 -18 62 -18 358 -1 427 35 135 145 198 251 143z"/>
<path d="M5340 36685 c-100 -31 -178 -138 -206 -282 -8 -41 -14 -131 -14 -199
0 -210 39 -344 124 -422 103 -95 279 -95 382 0 88 82 124 202 124 423 0 158
-15 246 -56 330 -66 135 -208 195 -354 150z m169 -125 c94 -48 116 -116 116
-360 0 -174 -2 -188 -25 -244 -32 -77 -81 -117 -148 -124 -90 -8 -163 51 -193
158 -18 62 -18 358 -1 427 35 135 145 198 251 143z"/>
<path d="M6078 36684 c-85 -30 -159 -114 -182 -206 -6 -28 -11 -26 82 -43 25
-5 29 -1 52 47 20 42 34 58 70 76 105 53 227 7 246 -93 14 -75 -55 -141 -160
-152 -50 -5 -54 -8 -60 -36 -3 -16 -6 -41 -6 -56 0 -25 2 -26 51 -22 74 5 115
-6 156 -42 165 -145 -23 -403 -224 -306 -47 23 -73 54 -94 112 -14 41 -7 39
-100 21 -29 -6 -31 -8 -24 -42 15 -82 79 -163 160 -202 23 -11 72 -23 109 -27
222 -20 396 156 357 362 -14 80 -52 133 -119 167 l-53 27 31 16 c43 22 88 88
96 141 14 98 -48 201 -148 244 -69 30 -175 36 -240 14z"/>
<path d="M4800 35780 l0 -60 70 0 70 0 0 60 0 60 -70 0 -70 0 0 -60z"/>
<path d="M2220 27490 l0 -160 60 0 60 0 0 85 0 85 655 0 655 0 0 -85 0 -85 60
0 60 0 0 160 0 160 -775 0 -775 0 0 -160z"/>
<path d="M2011 27334 c-64 -45 -67 -168 -5 -259 29 -43 27 -50 -10 -35 -27 10
-27 10 -24 -32 l3 -42 255 -87 c140 -49 258 -88 263 -88 4 -1 7 18 7 42 l0 43
-169 58 c-92 32 -185 69 -204 83 -73 52 -100 161 -52 209 31 31 32 31 258 -46
l168 -57 -3 45 -3 45 -200 68 c-110 38 -214 69 -230 69 -17 0 -41 -7 -54 -16z"/>
<path d="M2644 26816 c-75 -33 -109 -124 -101 -271 7 -121 27 -181 88 -260 78
-100 182 -149 268 -125 72 19 96 57 160 252 23 70 51 138 62 152 25 31 56 33
101 6 71 -41 108 -120 108 -227 0 -122 -42 -173 -145 -173 l-38 0 8 -72 c3
-40 12 -76 18 -81 7 -4 42 -6 78 -5 52 3 75 9 107 31 64 42 85 92 90 220 7
161 -29 270 -123 375 -80 89 -217 139 -284 103 -41 -22 -75 -86 -126 -232 -28
-82 -59 -159 -68 -169 -25 -29 -78 -26 -117 7 -45 38 -70 101 -70 179 0 103
32 144 112 144 l31 0 -7 61 c-3 34 -6 70 -6 80 0 16 -8 19 -57 19 -32 -1 -72
-7 -89 -14z"/>
<path d="M3000 25747 c-77 -40 -52 -158 34 -157 73 1 111 81 64 134 -28 31
-65 40 -98 23z"/>
<path d="M2630 25571 c-60 -32 -84 -95 -88 -226 -4 -131 13 -219 61 -308 35
-66 108 -142 167 -176 l38 -21 7 72 c7 69 6 73 -16 88 -57 37 -105 91 -122
137 -35 97 -16 237 36 265 22 11 117 4 147 -12 22 -12 41 -93 66 -275 26 -188
84 -310 179 -378 96 -67 205 -86 265 -44 60 40 73 68 78 163 7 128 -18 214
-97 347 l-23 37 29 0 c69 0 73 6 73 85 l0 72 -72 5 c-56 4 -136 26 -349 97
-153 50 -292 91 -311 91 -18 0 -49 -8 -68 -19z m475 -271 c143 -64 225 -187
225 -339 0 -67 -2 -75 -29 -102 -37 -36 -81 -38 -134 -5 -72 44 -95 96 -122
266 -9 58 -23 127 -31 154 -8 27 -14 54 -14 58 0 12 28 3 105 -32z"/>
<path d="M4200 25415 c-100 -31 -178 -138 -206 -282 -8 -41 -14 -131 -14 -199
0 -210 39 -344 124 -422 103 -95 279 -95 382 0 88 82 124 202 124 423 0 158
-15 246 -56 330 -66 135 -208 195 -354 150z m169 -125 c94 -48 116 -116 116
-360 0 -174 -2 -188 -25 -244 -32 -77 -81 -117 -148 -124 -90 -8 -163 51 -193
158 -18 62 -18 358 -1 427 35 135 145 198 251 143z"/>
<path d="M5340 25415 c-100 -31 -178 -138 -206 -282 -8 -41 -14 -131 -14 -199
0 -210 39 -344 124 -422 103 -95 279 -95 382 0 88 82 124 202 124 423 0 158
-15 246 -56 330 -66 135 -208 195 -354 150z m169 -125 c94 -48 116 -116 116
-360 0 -174 -2 -188 -25 -244 -32 -77 -81 -117 -148 -124 -90 -8 -163 51 -193
158 -18 62 -18 358 -1 427 35 135 145 198 251 143z"/>
<path d="M6087 25416 c-103 -30 -169 -98 -192 -200 l-13 -54 37 -6 c20 -4 48
-9 64 -12 24 -5 27 -3 27 24 0 42 38 94 90 120 124 62 280 -13 280 -135 0 -96
-45 -156 -246 -323 -158 -132 -224 -206 -254 -288 -38 -100 -66 -92 305 -92
l325 0 0 60 0 60 -241 2 -241 3 22 27 c11 15 91 86 175 158 218 184 278 270
278 400 0 110 -57 196 -158 241 -62 28 -187 35 -258 15z"/>
<path d="M2376 24758 c-59 -16 -109 -72 -130 -149 -16 -55 -19 -107 -20 -358
l-1 -295 595 -202 c327 -112 598 -203 603 -204 4 0 7 36 7 79 l0 79 -244 82
-244 81 -4 242 c-4 223 -6 247 -27 307 -46 127 -135 226 -261 290 -111 56
-189 70 -274 48z m248 -195 c70 -34 113 -78 144 -143 25 -53 26 -63 30 -277
l4 -222 -219 73 -218 73 2 217 c2 191 4 221 20 249 41 71 132 83 237 30z"/>
<path d="M4800 24510 l0 -60 70 0 70 0 0 60 0 60 -70 0 -70 0 0 -60z"/>
<path d="M2220 23200 l0 -160 775 0 775 0 0 160 0 160 -60 0 -60 0 0 -85 0
-85 -655 0 -655 0 0 85 0 85 -60 0 -60 0 0 -160z"/>
<path d="M2550 22362 l0 -77 293 -97 c160 -54 319 -105 352 -114 l60 -17 -80
-24 c-44 -13 -201 -66 -350 -117 l-270 -93 -3 -76 c-2 -46 1 -77 7 -77 5 0
203 70 440 155 236 85 437 155 445 155 33 0 145 -52 172 -81 27 -28 29 -36 29
-111 l0 -80 65 7 c36 4 67 9 69 11 2 2 6 39 9 82 4 65 1 85 -16 119 -32 61
-102 116 -206 162 -77 34 -989 351 -1009 351 -4 0 -7 -35 -7 -78z"/>
<path d="M3348 21593 l-38 -4 0 -58 c0 -95 13 -91 -338 -91 l-302 0 0 75 0 75
-60 0 -60 0 0 -75 0 -75 -151 0 c-83 0 -149 -4 -147 -8 2 -5 21 -38 43 -75
l39 -67 108 0 108 0 0 -55 0 -55 60 0 60 0 0 55 0 55 333 0 c305 0 335 2 367
19 52 28 80 88 80 175 0 39 -3 81 -6 94 -7 23 -11 24 -96 15z"/>
<path d="M2220 20965 l0 -75 80 0 80 0 0 75 0 75 -80 0 -80 0 0 -75z"/>
<path d="M2550 20965 l0 -75 440 0 440 0 0 75 0 75 -440 0 -440 0 0 -75z"/>
<path d="M3085 20684 c-79 -43 -105 -89 -170 -304 -55 -181 -67 -208 -101
-220 -91 -35 -154 29 -154 155 0 100 39 162 114 181 29 7 30 14 19 102 l-6 54
-36 -7 c-147 -28 -220 -155 -208 -361 11 -188 95 -284 248 -284 122 0 186 65
240 244 63 206 81 255 105 281 22 24 31 27 70 22 81 -9 124 -74 124 -187 0
-123 -57 -209 -148 -225 l-38 -6 10 -75 c5 -44 14 -74 21 -74 32 0 116 37 162
72 79 60 105 122 111 263 5 128 -10 197 -61 272 -48 71 -113 107 -201 111 -51
2 -79 -2 -101 -14z"/>
<path d="M2830 19836 c-185 -54 -291 -193 -291 -382 0 -192 107 -330 296 -380
66 -18 256 -18 320 0 109 30 167 67 226 146 53 71 72 143 67 255 -9 173 -97
294 -253 349 -66 24 -299 31 -365 12z m362 -170 c95 -45 138 -113 138 -213 -1
-102 -49 -171 -150 -216 -56 -25 -228 -35 -311 -18 -109 23 -191 99 -207 192
-18 102 26 194 118 244 70 38 110 44 245 41 96 -2 117 -6 167 -30z"/>
<path d="M3124 18896 l-9 -74 49 -11 c110 -25 172 -114 164 -235 -5 -87 -41
-139 -123 -181 -57 -29 -61 -30 -209 -30 -139 0 -155 2 -199 24 -50 25 -108
87 -126 134 -15 40 -14 121 3 161 18 44 61 82 115 103 l43 17 -7 70 c-4 39 -8
72 -10 74 -2 2 -28 -4 -58 -14 -70 -22 -136 -78 -176 -150 -28 -48 -33 -68
-38 -152 -5 -83 -2 -106 17 -162 42 -124 129 -203 266 -241 103 -28 288 -24
377 8 112 42 201 133 232 241 26 88 17 231 -18 297 -33 62 -40 71 -99 118 -42
33 -140 77 -173 77 -7 0 -15 -29 -21 -74z"/>
<path d="M3085 18054 c-79 -43 -105 -89 -170 -304 -55 -181 -67 -208 -101
-220 -91 -35 -154 29 -154 155 0 100 39 162 114 181 29 7 30 14 19 102 l-6 54
-36 -7 c-147 -28 -220 -155 -208 -361 11 -188 95 -284 248 -284 122 0 186 65
240 244 63 206 81 255 105 281 22 24 31 27 70 22 81 -9 124 -74 124 -187 0
-123 -57 -209 -148 -225 l-38 -6 10 -75 c5 -44 14 -74 21 -74 32 0 116 37 162
72 79 60 105 122 111 263 5 128 -10 197 -61 272 -48 71 -113 107 -201 111 -51
2 -79 -2 -101 -14z"/>
<path d="M2220 17105 l0 -75 80 0 80 0 0 75 0 75 -80 0 -80 0 0 -75z"/>
<path d="M2550 17105 l0 -75 440 0 440 0 0 75 0 75 -440 0 -440 0 0 -75z"/>
<path d="M2220 16818 l0 -83 398 -150 c218 -82 458 -171 532 -196 75 -26 128
-50 120 -53 -8 -3 -91 -32 -185 -64 -93 -32 -326 -115 -517 -183 l-348 -124 0
-82 c0 -46 4 -83 9 -83 4 0 275 104 601 230 326 127 595 230 596 230 2 0 4 37
4 83 l0 83 -597 237 c-329 131 -601 237 -605 237 -5 0 -8 -37 -8 -82z"/>
<path d="M4200 6155 c-100 -31 -178 -138 -206 -282 -8 -41 -14 -131 -14 -199
0 -210 39 -344 124 -422 103 -95 279 -95 382 0 88 82 124 202 124 423 0 158
-15 246 -56 330 -66 135 -208 195 -354 150z m169 -125 c94 -48 116 -116 116
-360 0 -174 -2 -188 -25 -244 -32 -77 -81 -117 -148 -124 -90 -8 -163 51 -193
158 -18 62 -18 358 -1 427 35 135 145 198 251 143z"/>
<path d="M5340 6155 c-100 -31 -178 -138 -206 -282 -8 -41 -14 -131 -14 -199
0 -210 39 -344 124 -422 103 -95 279 -95 382 0 88 82 124 202 124 423 0 158
-15 246 -56 330 -66 135 -208 195 -354 150z m169 -125 c94 -48 116 -116 116
-360 0 -174 -2 -188 -25 -244 -32 -77 -81 -117 -148 -124 -90 -8 -163 51 -193
158 -18 62 -18 358 -1 427 35 135 145 198 251 143z"/>
<path d="M6230 6136 c-31 -51 -132 -141 -200 -178 l-60 -33 0 -57 0 -58 28 11
c38 14 108 55 165 96 l47 35 0 -381 0 -381 60 0 60 0 0 490 0 490 -39 0 c-34
0 -42 -5 -61 -34z"/>
<path d="M4800 5250 l0 -60 70 0 70 0 0 60 0 60 -70 0 -70 0 0 -60z"/>
<path d="M14165 4799 c-38 -11 -79 -52 -99 -100 l-15 -37 31 -6 c44 -9 48 -8
48 10 0 8 13 29 29 45 76 76 210 -9 161 -102 -13 -24 -61 -49 -93 -49 -17 0
-27 -7 -31 -22 -11 -42 -8 -47 28 -41 80 13 150 -62 127 -137 -32 -107 -174
-121 -219 -22 -9 20 -17 39 -18 40 -2 2 -16 1 -33 -3 -35 -8 -40 -29 -17 -74
66 -128 260 -135 337 -12 52 82 33 184 -42 230 l-31 19 25 17 c34 22 51 66 44
121 -11 99 -119 156 -232 123z"/>
<path d="M17923 4799 c-43 -13 -90 -62 -104 -110 -14 -45 -14 -44 28 -53 29
-7 32 -5 38 22 14 67 106 103 173 68 37 -19 52 -44 52 -86 0 -51 -22 -80 -153
-203 -120 -112 -157 -161 -157 -206 0 -21 4 -21 195 -21 l195 0 0 35 0 35
-145 0 c-84 0 -145 4 -145 9 0 6 44 48 98 95 151 129 184 176 184 256 0 125
-120 199 -259 159z"/>
<path d="M21742 4759 c-24 -27 -64 -61 -88 -75 -38 -23 -44 -30 -44 -60 0 -39
7 -38 88 13 29 18 55 33 57 33 3 0 5 -103 5 -230 l0 -230 35 0 35 0 0 300 0
300 -22 0 c-15 -1 -39 -19 -66 -51z"/>
<path d="M25284 4796 c-41 -18 -82 -73 -100 -133 -21 -67 -20 -246 0 -317 37
-125 142 -179 250 -126 51 24 80 67 101 145 31 119 13 298 -38 373 -42 62
-141 89 -213 58z m135 -81 c43 -37 56 -84 56 -210 0 -126 -13 -173 -56 -210
-61 -51 -144 -16 -168 71 -14 50 -14 227 0 278 25 89 105 123 168 71z"/>
<path d="M29092 4759 c-24 -27 -64 -61 -88 -75 -38 -23 -44 -30 -44 -60 0 -39
7 -38 88 13 29 18 55 33 57 33 3 0 5 -103 5 -230 l0 -230 35 0 35 0 0 300 0
300 -22 0 c-15 -1 -39 -19 -66 -51z"/>
<path d="M32783 4799 c-43 -13 -90 -62 -104 -110 -14 -45 -14 -44 28 -53 29
-7 32 -5 38 22 14 67 106 103 173 68 37 -19 52 -44 52 -86 0 -51 -22 -80 -153
-203 -120 -112 -157 -161 -157 -206 0 -21 4 -21 195 -21 l195 0 0 35 0 35
-145 0 c-84 0 -145 4 -145 9 0 6 44 48 98 95 151 129 184 176 184 256 0 125
-120 199 -259 159z"/>
<path d="M36535 4799 c-38 -11 -79 -52 -99 -100 l-15 -37 31 -6 c44 -9 48 -8
48 10 0 8 13 29 29 45 76 76 210 -9 161 -102 -13 -24 -61 -49 -93 -49 -17 0
-27 -7 -31 -22 -11 -42 -8 -47 28 -41 80 13 150 -62 127 -137 -32 -107 -174
-121 -219 -22 -9 20 -17 39 -18 40 -2 2 -16 1 -33 -3 -35 -8 -40 -29 -17 -74
66 -128 260 -135 337 -12 52 82 33 184 -42 230 l-31 19 25 17 c34 22 51 66 44
121 -11 99 -119 156 -232 123z"/>
<path d="M47805 4791 c-91 -41 -129 -128 -130 -296 0 -159 33 -237 119 -276
78 -35 181 -13 223 47 97 140 22 334 -129 334 -37 0 -117 -36 -125 -56 -12
-32 -22 -11 -17 34 17 126 98 192 183 147 16 -8 34 -28 41 -45 12 -28 16 -30
44 -24 17 3 33 8 35 10 9 8 -11 55 -36 85 -50 59 -132 75 -208 40z m125 -276
c57 -29 77 -112 44 -181 -40 -83 -158 -84 -200 -1 -61 117 44 240 156 182z"/>
<path d="M10406 4610 c-112 -157 -136 -197 -136 -225 l0 -35 130 0 130 0 0
-70 0 -70 35 0 35 0 0 70 0 70 40 0 c39 0 40 1 40 35 0 34 -1 35 -40 35 l-40
0 0 190 0 190 -29 0 c-26 0 -42 -18 -165 -190z m124 -60 l0 -130 -95 0 -94 0
91 130 c50 72 93 130 95 130 1 0 3 -58 3 -130z"/>
<path d="M40276 4610 c-112 -157 -136 -197 -136 -225 l0 -35 130 0 130 0 0
-70 0 -70 35 0 35 0 0 70 0 70 40 0 c39 0 40 1 40 35 0 34 -1 35 -40 35 l-40
0 0 190 0 190 -29 0 c-26 0 -42 -18 -165 -190z m124 -60 l0 -130 -95 0 -94 0
91 130 c50 72 93 130 95 130 1 0 3 -58 3 -130z"/>
<path d="M43972 4673 c-13 -71 -26 -140 -29 -154 -4 -24 -1 -28 27 -34 26 -6
37 -2 60 20 37 35 101 44 145 21 114 -62 69 -255 -60 -256 -45 0 -91 33 -105
74 -12 37 -18 40 -57 30 -29 -8 -29 -35 -2 -83 61 -109 222 -122 308 -25 83
94 77 223 -13 302 -55 48 -143 54 -204 14 -23 -15 -24 -15 -19 3 3 11 11 48
18 83 l12 62 118 0 119 0 0 35 0 35 -148 0 -147 0 -23 -127z"/>
<path d="M10010 4425 l0 -35 110 0 110 0 0 35 0 35 -110 0 -110 0 0 -35z"/>
<path d="M13760 4425 l0 -35 110 0 110 0 0 35 0 35 -110 0 -110 0 0 -35z"/>
<path d="M17520 4425 l0 -35 110 0 110 0 0 35 0 35 -110 0 -110 0 0 -35z"/>
<path d="M21270 4425 l0 -35 110 0 110 0 0 35 0 35 -110 0 -110 0 0 -35z"/>
<path d="M8870 4406 c-31 -51 -132 -141 -200 -178 l-60 -33 0 -57 0 -58 28 11
c38 14 108 55 165 96 l47 35 0 -381 0 -381 60 0 60 0 0 490 0 490 -39 0 c-34
0 -42 -5 -61 -34z"/>
<path d="M9500 4425 c-100 -31 -178 -138 -206 -282 -8 -41 -14 -131 -14 -199
0 -210 39 -344 124 -422 103 -95 279 -95 382 0 88 82 124 202 124 423 0 158
-15 246 -56 330 -66 135 -208 195 -354 150z m169 -125 c94 -48 116 -116 116
-360 0 -174 -2 -188 -25 -244 -32 -77 -81 -117 -148 -124 -90 -8 -163 51 -193
158 -18 62 -18 358 -1 427 35 135 145 198 251 143z"/>
<path d="M12620 4406 c-31 -51 -132 -141 -200 -178 l-60 -33 0 -57 0 -58 28
11 c38 14 108 55 165 96 l47 35 0 -381 0 -381 60 0 60 0 0 490 0 490 -39 0
c-34 0 -42 -5 -61 -34z"/>
<path d="M13250 4425 c-100 -31 -178 -138 -206 -282 -8 -41 -14 -131 -14 -199
0 -210 39 -344 124 -422 103 -95 279 -95 382 0 88 82 124 202 124 423 0 158
-15 246 -56 330 -66 135 -208 195 -354 150z m169 -125 c94 -48 116 -116 116
-360 0 -174 -2 -188 -25 -244 -32 -77 -81 -117 -148 -124 -90 -8 -163 51 -193
158 -18 62 -18 358 -1 427 35 135 145 198 251 143z"/>
<path d="M16380 4406 c-31 -51 -132 -141 -200 -178 l-60 -33 0 -57 0 -58 28
11 c38 14 108 55 165 96 l47 35 0 -381 0 -381 60 0 60 0 0 490 0 490 -39 0
c-34 0 -42 -5 -61 -34z"/>
<path d="M17010 4425 c-100 -31 -178 -138 -206 -282 -8 -41 -14 -131 -14 -199
0 -210 39 -344 124 -422 103 -95 279 -95 382 0 88 82 124 202 124 423 0 158
-15 246 -56 330 -66 135 -208 195 -354 150z m169 -125 c94 -48 116 -116 116
-360 0 -174 -2 -188 -25 -244 -32 -77 -81 -117 -148 -124 -90 -8 -163 51 -193
158 -18 62 -18 358 -1 427 35 135 145 198 251 143z"/>
<path d="M20130 4406 c-31 -51 -132 -141 -200 -178 l-60 -33 0 -57 0 -58 28
11 c38 14 108 55 165 96 l47 35 0 -381 0 -381 60 0 60 0 0 490 0 490 -39 0
c-34 0 -42 -5 -61 -34z"/>
<path d="M20760 4425 c-100 -31 -178 -138 -206 -282 -8 -41 -14 -131 -14 -199
0 -210 39 -344 124 -422 103 -95 279 -95 382 0 88 82 124 202 124 423 0 158
-15 246 -56 330 -66 135 -208 195 -354 150z m169 -125 c94 -48 116 -116 116
-360 0 -174 -2 -188 -25 -244 -32 -77 -81 -117 -148 -124 -90 -8 -163 51 -193
158 -18 62 -18 358 -1 427 35 135 145 198 251 143z"/>
<path d="M24020 4406 c-31 -51 -132 -141 -200 -178 l-60 -33 0 -57 0 -58 28
11 c38 14 108 55 165 96 l47 35 0 -381 0 -381 60 0 60 0 0 490 0 490 -39 0
c-34 0 -42 -5 -61 -34z"/>
<path d="M24650 4425 c-100 -31 -178 -138 -206 -282 -8 -41 -14 -131 -14 -199
0 -210 39 -344 124 -422 103 -95 279 -95 382 0 88 82 124 202 124 423 0 158
-15 246 -56 330 -66 135 -208 195 -354 150z m169 -125 c94 -48 116 -116 116
-360 0 -174 -2 -188 -25 -244 -32 -77 -81 -117 -148 -124 -90 -8 -163 51 -193
158 -18 62 -18 358 -1 427 35 135 145 198 251 143z"/>
<path d="M27770 4406 c-31 -51 -132 -141 -200 -178 l-60 -33 0 -57 0 -58 28
11 c38 14 108 55 165 96 l47 35 0 -381 0 -381 60 0 60 0 0 490 0 490 -39 0
c-34 0 -42 -5 -61 -34z"/>
<path d="M28400 4425 c-100 -31 -178 -138 -206 -282 -8 -41 -14 -131 -14 -199
0 -210 39 -344 124 -422 103 -95 279 -95 382 0 88 82 124 202 124 423 0 158
-15 246 -56 330 -66 135 -208 195 -354 150z m169 -125 c94 -48 116 -116 116
-360 0 -174 -2 -188 -25 -244 -32 -77 -81 -117 -148 -124 -90 -8 -163 51 -193
158 -18 62 -18 358 -1 427 35 135 145 198 251 143z"/>
<path d="M31520 4406 c-31 -51 -132 -141 -200 -178 l-60 -33 0 -57 0 -58 28
11 c38 14 108 55 165 96 l47 35 0 -381 0 -381 60 0 60 0 0 490 0 490 -39 0
c-34 0 -42 -5 -61 -34z"/>
<path d="M32150 4425 c-100 -31 -178 -138 -206 -282 -8 -41 -14 -131 -14 -199
0 -210 39 -344 124 -422 103 -95 279 -95 382 0 88 82 124 202 124 423 0 158
-15 246 -56 330 -66 135 -208 195 -354 150z m169 -125 c94 -48 116 -116 116
-360 0 -174 -2 -188 -25 -244 -32 -77 -81 -117 -148 -124 -90 -8 -163 51 -193
158 -18 62 -18 358 -1 427 35 135 145 198 251 143z"/>
<path d="M35270 4406 c-31 -51 -132 -141 -200 -178 l-60 -33 0 -57 0 -58 28
11 c38 14 108 55 165 96 l47 35 0 -381 0 -381 60 0 60 0 0 490 0 490 -39 0
c-34 0 -42 -5 -61 -34z"/>
<path d="M35900 4425 c-100 -31 -178 -138 -206 -282 -8 -41 -14 -131 -14 -199
0 -210 39 -344 124 -422 103 -95 279 -95 382 0 88 82 124 202 124 423 0 158
-15 246 -56 330 -66 135 -208 195 -354 150z m169 -125 c94 -48 116 -116 116
-360 0 -174 -2 -188 -25 -244 -32 -77 -81 -117 -148 -124 -90 -8 -163 51 -193
158 -18 62 -18 358 -1 427 35 135 145 198 251 143z"/>
<path d="M39020 4406 c-31 -51 -132 -141 -200 -178 l-60 -33 0 -57 0 -58 28
11 c38 14 108 55 165 96 l47 35 0 -381 0 -381 60 0 60 0 0 490 0 490 -39 0
c-34 0 -42 -5 -61 -34z"/>
<path d="M39650 4425 c-100 -31 -178 -138 -206 -282 -8 -41 -14 -131 -14 -199
0 -210 39 -344 124 -422 103 -95 279 -95 382 0 88 82 124 202 124 423 0 158
-15 246 -56 330 -66 135 -208 195 -354 150z m169 -125 c94 -48 116 -116 116
-360 0 -174 -2 -188 -25 -244 -32 -77 -81 -117 -148 -124 -90 -8 -163 51 -193
158 -18 62 -18 358 -1 427 35 135 145 198 251 143z"/>
<path d="M42780 4406 c-31 -51 -132 -141 -200 -178 l-60 -33 0 -57 0 -58 28
11 c38 14 108 55 165 96 l47 35 0 -381 0 -381 60 0 60 0 0 490 0 490 -39 0
c-34 0 -42 -5 -61 -34z"/>
<path d="M43410 4425 c-100 -31 -178 -138 -206 -282 -8 -41 -14 -131 -14 -199
0 -210 39 -344 124 -422 103 -95 279 -95 382 0 88 82 124 202 124 423 0 158
-15 246 -56 330 -66 135 -208 195 -354 150z m169 -125 c94 -48 116 -116 116
-360 0 -174 -2 -188 -25 -244 -32 -77 -81 -117 -148 -124 -90 -8 -163 51 -193
158 -18 62 -18 358 -1 427 35 135 145 198 251 143z"/>
<path d="M46530 4406 c-31 -51 -132 -141 -200 -178 l-60 -33 0 -57 0 -58 28
11 c38 14 108 55 165 96 l47 35 0 -381 0 -381 60 0 60 0 0 490 0 490 -39 0
c-34 0 -42 -5 -61 -34z"/>
<path d="M47160 4425 c-100 -31 -178 -138 -206 -282 -8 -41 -14 -131 -14 -199
0 -210 39 -344 124 -422 103 -95 279 -95 382 0 88 82 124 202 124 423 0 158
-15 246 -56 330 -66 135 -208 195 -354 150z m169 -125 c94 -48 116 -116 116
-360 0 -174 -2 -188 -25 -244 -32 -77 -81 -117 -148 -124 -90 -8 -163 51 -193
158 -18 62 -18 358 -1 427 35 135 145 198 251 143z"/>
<path d="M33169 3024 c-32 -34 -141 -106 -203 -135 -20 -9 -34 -27 -43 -53 -7
-22 -12 -41 -10 -43 2 -1 47 19 100 46 53 26 97 45 97 41 0 -4 -40 -127 -90
-273 -49 -146 -90 -268 -90 -271 0 -4 19 -6 43 -6 l42 0 119 353 c66 193 121
358 124 365 3 8 -6 12 -25 12 -20 0 -40 -11 -64 -36z"/>
<path d="M22974 2625 c-179 -39 -289 -160 -289 -320 0 -131 77 -234 212 -285
32 -12 134 -42 226 -66 183 -48 251 -77 289 -123 74 -87 23 -225 -105 -282
-44 -20 -68 -24 -163 -24 -110 0 -112 0 -190 40 -94 47 -136 101 -156 196 -13
66 -10 64 -105 53 -52 -7 -53 -8 -53 -39 0 -44 27 -132 56 -181 30 -52 108
-126 160 -152 103 -52 272 -74 402 -52 91 15 198 67 246 120 19 22 48 63 63
92 24 47 28 64 28 143 0 78 -4 97 -27 141 -61 117 -151 164 -446 234 -151 37
-214 63 -252 107 -25 28 -30 42 -30 84 0 63 20 101 71 139 52 38 133 54 237
47 146 -9 238 -76 257 -188 7 -43 9 -44 104 -32 l53 6 -5 47 c-13 105 -83 202
-180 250 -115 56 -271 74 -403 45z"/>
<path d="M32431 2618 c-5 -13 -11 -33 -15 -45 l-7 -23 136 0 c149 0 137 -5
159 68 l7 22 -136 0 c-131 0 -136 -1 -144 -22z"/>
<path d="M23800 2010 l0 -610 74 0 74 0 4 303 c3 283 4 305 24 348 70 150 303
175 372 39 21 -43 22 -52 22 -367 l0 -323 75 0 75 0 0 330 c0 200 -4 349 -11
380 -15 70 -62 128 -134 165 -53 27 -67 30 -154 30 -111 -1 -161 -18 -230 -80
l-41 -37 0 216 0 216 -75 0 -75 0 0 -610z"/>
<path d="M31100 1840 l0 -780 160 0 160 0 0 60 0 60 -90 0 -90 0 0 660 0 660
90 0 90 0 0 60 0 60 -160 0 -160 0 0 -780z"/>
<path d="M33230 2560 l0 -60 90 0 90 0 0 -660 0 -660 -90 0 -90 0 0 -60 0 -60
165 0 165 0 0 780 0 780 -165 0 -165 0 0 -60z"/>
<path d="M29298 2549 l-68 -40 0 -110 0 -109 -55 0 -55 0 0 -60 0 -60 54 0 55
0 3 -337 c3 -379 4 -380 75 -425 33 -20 51 -23 135 -23 53 0 98 2 101 5 3 3 0
33 -6 68 l-10 62 -53 0 c-41 0 -59 5 -74 20 -19 19 -20 33 -20 325 l0 305 75
0 75 0 0 60 0 60 -75 0 -75 0 0 150 c0 83 -3 150 -7 150 -5 0 -38 -18 -75 -41z"/>
<path d="M25000 2295 c-139 -39 -230 -135 -276 -290 -25 -87 -23 -258 5 -345
53 -168 177 -263 358 -277 170 -13 321 55 385 174 45 84 45 90 -4 98 -24 3
-57 9 -74 12 -29 4 -33 1 -62 -51 -70 -123 -239 -154 -359 -66 -51 38 -101
131 -110 208 l-6 52 332 0 331 0 0 43 c0 200 -100 371 -248 428 -75 28 -198
34 -272 14z m195 -116 c59 -17 129 -90 149 -158 29 -99 50 -91 -229 -91 l-245
0 0 33 c0 41 33 113 68 151 60 64 164 90 257 65z"/>
<path d="M25970 2303 c-150 -25 -254 -111 -285 -236 -6 -23 -4 -25 37 -32 24
-3 55 -8 70 -11 24 -5 29 -1 49 46 39 92 107 126 234 118 131 -9 194 -67 195
-180 0 -44 -2 -47 -32 -56 -51 -16 -76 -20 -219 -42 -158 -23 -186 -31 -245
-65 -112 -66 -153 -209 -93 -326 83 -165 365 -186 557 -42 18 14 35 23 38 20
2 -2 10 -24 17 -48 l13 -44 77 -3 c42 -2 77 -1 77 1 0 3 -8 24 -17 48 -14 36
-18 98 -22 359 -6 313 -6 316 -31 365 -47 90 -161 137 -326 134 -38 -1 -80 -4
-94 -6z m298 -541 c-7 -92 -23 -136 -69 -181 -73 -73 -213 -102 -302 -63 -114
50 -114 190 -1 238 17 7 88 23 158 34 70 12 144 28 164 35 20 7 41 14 46 14 5
1 6 -34 4 -77z"/>
<path d="M26900 2288 c-25 -13 -59 -42 -77 -66 l-33 -44 0 56 0 56 -70 0 -70
0 0 -445 0 -445 74 0 74 0 4 303 c3 256 7 309 21 347 41 106 130 147 220 101
20 -10 39 -16 41 -12 6 10 46 115 46 122 0 13 -80 42 -130 46 -44 4 -64 0
-100 -19z"/>
<path d="M27930 2288 c-25 -13 -59 -42 -77 -66 l-33 -44 0 56 0 56 -70 0 -70
0 0 -445 0 -445 74 0 74 0 4 303 c3 256 7 309 21 347 41 106 130 147 220 101
20 -10 39 -16 41 -12 6 10 46 115 46 122 0 13 -80 42 -130 46 -44 4 -64 0
-100 -19z"/>
<path d="M28520 2303 c-150 -25 -254 -111 -285 -236 -6 -23 -4 -25 37 -32 24
-3 55 -8 70 -11 24 -5 29 -1 49 46 39 92 107 126 234 118 131 -9 194 -67 195
-180 0 -44 -2 -47 -32 -56 -51 -16 -76 -20 -219 -42 -158 -23 -186 -31 -245
-65 -112 -66 -153 -209 -93 -326 83 -165 365 -186 557 -42 18 14 35 23 38 20
2 -2 10 -24 17 -48 l13 -44 77 -3 c42 -2 77 -1 77 1 0 3 -8 24 -17 48 -14 36
-18 98 -22 359 -6 313 -6 316 -31 365 -47 90 -161 137 -326 134 -38 -1 -80 -4
-94 -6z m298 -541 c-7 -92 -23 -136 -69 -181 -73 -73 -213 -102 -302 -63 -114
50 -114 190 -1 238 17 7 88 23 158 34 70 12 144 28 164 35 20 7 41 14 46 14 5
1 6 -34 4 -77z"/>
<path d="M29920 2295 c-139 -39 -230 -135 -276 -290 -25 -87 -23 -258 5 -345
53 -168 177 -263 358 -277 170 -13 321 55 385 174 45 84 45 90 -4 98 -24 3
-57 9 -74 12 -29 4 -33 1 -62 -51 -70 -123 -239 -154 -359 -66 -51 38 -101
131 -110 208 l-6 52 332 0 331 0 0 43 c0 200 -100 371 -248 428 -75 28 -198
34 -272 14z m195 -116 c59 -17 129 -90 149 -158 29 -99 50 -91 -229 -91 l-245
0 0 33 c0 41 33 113 68 151 60 64 164 90 257 65z"/>
<path d="M32030 2292 c-36 -9 -87 -30 -113 -46 -171 -99 -232 -297 -121 -385
15 -12 98 -44 184 -71 176 -56 196 -70 187 -127 -14 -87 -109 -153 -231 -161
-133 -8 -207 49 -193 151 l5 39 -31 -6 c-18 -3 -54 -8 -81 -12 l-48 -7 4 -77
c3 -56 10 -87 27 -113 68 -111 318 -129 500 -37 152 76 256 260 204 360 -26
51 -67 73 -238 130 -169 56 -201 78 -188 129 19 76 88 120 200 128 101 7 147
-10 169 -63 9 -21 14 -48 11 -62 -4 -22 -2 -23 27 -18 17 3 52 8 79 12 l47 6
0 57 c0 82 -23 120 -93 155 -75 38 -207 46 -307 18z"/>
</g>
</svg>
