<?xml version="1.0" standalone="no"?>
<!DOCTYPE svg PUBLIC "-//W3C//DTD SVG 20010904//EN"
 "http://www.w3.org/TR/2001/REC-SVG-20010904/DTD/svg10.dtd">
<svg version="1.0" xmlns="http://www.w3.org/2000/svg"
 width="5196.000000pt" height="4251.000000pt" viewBox="0 0 5196.000000 4251.000000"
 preserveAspectRatio="xMidYMid meet">

<g transform="translate(0.000000,4251.000000) scale(0.100000,-0.100000)"
fill="#000000" stroke="none">
<path d="M7122 39997 l-22 -23 0 -865 c-1 -744 -3 -867 -15 -883 -8 -11 -15
-38 -15 -61 0 -23 7 -50 15 -61 13 -17 14 -1976 15 -16100 l0 -16081 23 -21
23 -22 20805 0 20806 0 21 23 22 23 0 17025 0 17026 -23 21 -23 22 -20805 0
-20806 0 -21 -23z m41548 -782 l0 -675 -152 0 c-142 0 -153 -1 -175 -22 -29
-27 -29 -55 -1 -85 21 -22 27 -23 175 -23 l153 0 0 -895 0 -895 -152 0 c-142
0 -153 -1 -175 -22 -29 -27 -29 -55 -1 -85 21 -22 27 -23 175 -23 l153 0 0
-1280 0 -1280 -152 0 c-142 0 -153 -1 -175 -22 -29 -27 -29 -55 -1 -85 21 -22
27 -23 175 -23 l153 0 0 -2240 0 -2240 -322 0 c-317 0 -322 0 -345 -22 -29
-27 -29 -55 -1 -85 l21 -23 324 0 323 0 0 -285 0 -285 -152 0 c-142 0 -153 -1
-175 -22 -29 -27 -29 -55 -1 -85 21 -22 27 -23 175 -23 l153 0 0 -330 0 -330
-152 0 c-142 0 -153 -1 -175 -22 -29 -27 -29 -55 -1 -85 21 -22 27 -23 175
-23 l153 0 0 -375 0 -375 -152 0 c-142 0 -153 -1 -175 -22 -29 -27 -29 -55 -1
-85 21 -22 27 -23 175 -23 l153 0 0 -450 0 -450 -152 0 c-142 0 -153 -1 -175
-22 -29 -27 -29 -55 -1 -85 21 -22 27 -23 175 -23 l153 0 0 -540 0 -540 -152
0 c-142 0 -153 -1 -175 -22 -29 -27 -29 -55 -1 -85 21 -22 27 -23 175 -23
l153 0 0 -680 0 -680 -152 0 c-142 0 -153 -1 -175 -22 -29 -27 -29 -55 -1 -85
21 -22 27 -23 175 -23 l153 0 0 -890 0 -890 -152 0 c-142 0 -153 -1 -175 -22
-29 -27 -29 -55 -1 -85 21 -22 27 -23 175 -23 l153 0 0 -1275 0 -1275 -152 0
c-142 0 -153 -1 -175 -22 -29 -27 -29 -55 -1 -85 21 -22 27 -23 175 -23 l153
0 0 -2240 0 -2240 -322 0 c-317 0 -322 0 -345 -22 -29 -27 -29 -55 -1 -85 l21
-23 324 0 323 0 0 -285 0 -285 -152 0 c-142 0 -153 -1 -175 -22 -29 -27 -29
-55 -1 -85 21 -22 27 -23 175 -23 l153 0 0 -330 0 -330 -152 0 c-142 0 -153
-1 -175 -22 -29 -27 -29 -55 -1 -85 21 -22 27 -23 175 -23 l153 0 0 -380 0
-380 -152 0 c-142 0 -153 -1 -175 -22 -29 -27 -29 -55 -1 -85 21 -22 27 -23
175 -23 l153 0 0 -445 0 -445 -152 0 c-142 0 -153 -1 -175 -22 -29 -27 -29
-55 -1 -85 21 -22 27 -23 175 -23 l153 0 0 -540 0 -540 -152 0 c-142 0 -153
-1 -175 -22 -29 -27 -29 -55 -1 -85 21 -22 27 -23 175 -23 l153 0 0 -680 0
-680 -152 0 c-142 0 -153 -1 -175 -22 -29 -27 -29 -55 -1 -85 21 -22 27 -23
175 -23 l153 0 0 -890 0 -890 -265 0 -265 0 0 152 c0 142 -1 153 -22 175 -27
29 -55 29 -85 1 -22 -21 -23 -27 -23 -175 l0 -153 -500 0 -500 0 0 322 c0 317
0 322 -22 345 -27 29 -55 29 -85 1 l-23 -21 0 -324 c0 -316 0 -323 -20 -323
-19 0 -20 7 -20 152 0 142 -1 153 -22 175 -27 29 -55 29 -85 1 -22 -21 -23
-27 -23 -175 l0 -153 -30 0 -30 0 0 152 c0 142 -1 153 -22 175 -27 29 -55 29
-85 1 -22 -21 -23 -27 -23 -175 l0 -153 -45 0 -45 0 0 152 c0 142 -1 153 -22
175 -27 29 -55 29 -85 1 -22 -21 -23 -27 -23 -175 l0 -153 -60 0 -60 0 0 152
c0 142 -1 153 -22 175 -27 29 -55 29 -85 1 -22 -21 -23 -27 -23 -175 l0 -153
-85 0 -85 0 0 152 c0 142 -1 153 -22 175 -27 29 -55 29 -85 1 -22 -21 -23 -27
-23 -175 l0 -153 -115 0 -115 0 0 152 c0 142 -1 153 -22 175 -27 29 -55 29
-85 1 -22 -21 -23 -27 -23 -175 l0 -153 -170 0 -170 0 0 152 c0 142 -1 153
-22 175 -27 29 -55 29 -85 1 -22 -21 -23 -27 -23 -175 l0 -153 -265 0 -265 0
0 152 c0 142 -1 153 -22 175 -27 29 -55 29 -85 1 -22 -21 -23 -27 -23 -175 l0
-153 -500 0 -500 0 0 322 c0 317 0 322 -22 345 -27 29 -55 29 -85 1 l-23 -21
0 -324 0 -323 -25 0 -25 0 0 152 c0 142 -1 153 -22 175 -27 29 -55 29 -85 1
-22 -21 -23 -27 -23 -175 l0 -153 -30 0 -30 0 0 152 c0 142 -1 153 -22 175
-27 29 -55 29 -85 1 -22 -21 -23 -27 -23 -175 l0 -153 -40 0 -40 0 0 152 c0
142 -1 153 -22 175 -27 29 -55 29 -85 1 -22 -21 -23 -27 -23 -175 l0 -153 -65
0 -65 0 0 152 c0 142 -1 153 -22 175 -27 29 -55 29 -85 1 -22 -21 -23 -27 -23
-175 l0 -153 -80 0 -80 0 0 152 c0 142 -1 153 -22 175 -27 29 -55 29 -85 1
-22 -21 -23 -27 -23 -175 l0 -153 -120 0 -120 0 0 152 c0 142 -1 153 -22 175
-27 29 -55 29 -85 1 -22 -21 -23 -27 -23 -175 l0 -153 -170 0 -170 0 0 152 c0
142 -1 153 -22 175 -27 29 -55 29 -85 1 -22 -21 -23 -27 -23 -175 l0 -153
-265 0 -265 0 0 152 c0 142 -1 153 -22 175 -27 29 -55 29 -85 1 -22 -21 -23
-27 -23 -175 l0 -153 -500 0 -500 0 0 322 c0 317 0 322 -22 345 -27 29 -55 29
-85 1 l-23 -21 0 -324 c0 -316 0 -323 -20 -323 -19 0 -20 7 -20 152 0 142 -1
153 -22 175 -27 29 -55 29 -85 1 -22 -21 -23 -27 -23 -175 l0 -153 -30 0 -30
0 0 152 c0 142 -1 153 -22 175 -27 29 -55 29 -85 1 -22 -21 -23 -27 -23 -175
l0 -153 -45 0 -45 0 0 152 c0 142 -1 153 -22 175 -27 29 -55 29 -85 1 -22 -21
-23 -27 -23 -175 l0 -153 -60 0 -60 0 0 152 c0 142 -1 153 -22 175 -27 29 -55
29 -85 1 -22 -21 -23 -27 -23 -175 l0 -153 -85 0 -85 0 0 152 c0 142 -1 153
-22 175 -27 29 -55 29 -85 1 -22 -21 -23 -27 -23 -175 l0 -153 -115 0 -115 0
0 152 c0 142 -1 153 -22 175 -27 29 -55 29 -85 1 -22 -21 -23 -27 -23 -175 l0
-153 -170 0 -170 0 0 152 c0 142 -1 153 -22 175 -27 29 -55 29 -85 1 -22 -21
-23 -27 -23 -175 l0 -153 -265 0 -265 0 0 152 c0 142 -1 153 -22 175 -27 29
-55 29 -85 1 -22 -21 -23 -27 -23 -175 l0 -153 -500 0 -500 0 0 322 c0 317 0
322 -22 345 -27 29 -55 29 -85 1 l-23 -21 0 -324 c0 -316 0 -323 -20 -323 -19
0 -20 7 -20 152 0 142 -1 153 -22 175 -27 29 -55 29 -85 1 -22 -21 -23 -27
-23 -175 l0 -153 -30 0 -30 0 0 152 c0 142 -1 153 -22 175 -27 29 -55 29 -85
1 -22 -21 -23 -27 -23 -175 l0 -153 -45 0 -45 0 0 152 c0 142 -1 153 -22 175
-27 29 -55 29 -85 1 -22 -21 -23 -27 -23 -175 l0 -153 -60 0 -60 0 0 152 c0
142 -1 153 -22 175 -27 29 -55 29 -85 1 -22 -21 -23 -27 -23 -175 l0 -153 -85
0 -85 0 0 152 c0 142 -1 153 -22 175 -27 29 -55 29 -85 1 -22 -21 -23 -27 -23
-175 l0 -153 -115 0 -115 0 0 152 c0 142 -1 153 -22 175 -27 29 -55 29 -85 1
-22 -21 -23 -27 -23 -175 l0 -153 -170 0 -170 0 0 152 c0 142 -1 153 -22 175
-27 29 -55 29 -85 1 -22 -21 -23 -27 -23 -175 l0 -153 -265 0 -265 0 0 152 c0
142 -1 153 -22 175 -27 29 -55 29 -85 1 -22 -21 -23 -27 -23 -175 l0 -153
-500 0 -500 0 0 322 c0 317 0 322 -22 345 -27 29 -55 29 -85 1 l-23 -21 0
-324 c0 -316 0 -323 -20 -323 -19 0 -20 7 -20 152 0 142 -1 153 -22 175 -27
29 -55 29 -85 1 -22 -21 -23 -27 -23 -175 l0 -153 -35 0 -35 0 0 152 c0 142
-1 153 -22 175 -27 29 -55 29 -85 1 -22 -21 -23 -27 -23 -175 l0 -153 -40 0
-40 0 0 152 c0 142 -1 153 -22 175 -27 29 -55 29 -85 1 -22 -21 -23 -27 -23
-175 l0 -153 -65 0 -65 0 0 152 c0 142 -1 153 -22 175 -27 29 -55 29 -85 1
-22 -21 -23 -27 -23 -175 l0 -153 -80 0 -80 0 0 152 c0 142 -1 153 -22 175
-27 29 -55 29 -85 1 -22 -21 -23 -27 -23 -175 l0 -153 -120 0 -120 0 0 152 c0
142 -1 153 -22 175 -27 29 -55 29 -85 1 -22 -21 -23 -27 -23 -175 l0 -153
-165 0 -165 0 0 152 c0 142 -1 153 -22 175 -27 29 -55 29 -85 1 -22 -21 -23
-27 -23 -175 l0 -153 -270 0 -270 0 0 152 c0 142 -1 153 -22 175 -27 29 -55
29 -85 1 -22 -21 -23 -27 -23 -175 l0 -153 -500 0 -500 0 0 322 c0 317 0 322
-22 345 -27 29 -55 29 -85 1 l-23 -21 0 -324 c0 -316 0 -323 -20 -323 -19 0
-20 7 -20 152 0 142 -1 153 -22 175 -27 29 -55 29 -85 1 -22 -21 -23 -27 -23
-175 l0 -153 -30 0 -30 0 0 152 c0 142 -1 153 -22 175 -27 29 -55 29 -85 1
-22 -21 -23 -27 -23 -175 l0 -153 -40 0 -40 0 0 152 c0 142 -1 153 -22 175
-27 29 -55 29 -85 1 -22 -21 -23 -27 -23 -175 l0 -153 -60 0 -60 0 0 152 c0
142 -1 153 -22 175 -27 29 -55 29 -85 1 -22 -21 -23 -27 -23 -175 l0 -153 -85
0 -85 0 0 152 c0 142 -1 153 -22 175 -27 29 -55 29 -85 1 -22 -21 -23 -27 -23
-175 l0 -153 -115 0 -115 0 0 152 c0 142 -1 153 -22 175 -27 29 -55 29 -85 1
-22 -21 -23 -27 -23 -175 l0 -153 -170 0 -170 0 0 152 c0 142 -1 153 -22 175
-27 29 -55 29 -85 1 -22 -21 -23 -27 -23 -175 l0 -153 -265 0 -265 0 0 152 c0
142 -1 153 -22 175 -27 29 -55 29 -85 1 -22 -21 -23 -27 -23 -175 l0 -153
-500 0 -500 0 0 322 c0 317 0 322 -22 345 -27 29 -55 29 -85 1 l-23 -21 0
-324 c0 -316 0 -323 -20 -323 -19 0 -20 7 -20 152 0 142 -1 153 -22 175 -27
29 -55 29 -85 1 -22 -21 -23 -27 -23 -175 l0 -153 -30 0 -30 0 0 152 c0 142
-1 153 -22 175 -27 29 -55 29 -85 1 -22 -21 -23 -27 -23 -175 l0 -153 -45 0
-45 0 0 152 c0 142 -1 153 -22 175 -27 29 -55 29 -85 1 -22 -21 -23 -27 -23
-175 l0 -153 -60 0 -60 0 0 152 c0 142 -1 153 -22 175 -27 29 -55 29 -85 1
-22 -21 -23 -27 -23 -175 l0 -153 -85 0 -85 0 0 152 c0 142 -1 153 -22 175
-27 29 -55 29 -85 1 -22 -21 -23 -27 -23 -175 l0 -153 -115 0 -115 0 0 152 c0
142 -1 153 -22 175 -27 29 -55 29 -85 1 -22 -21 -23 -27 -23 -175 l0 -153
-170 0 -170 0 0 152 c0 142 -1 153 -22 175 -27 29 -55 29 -85 1 -22 -21 -23
-27 -23 -175 l0 -153 -255 0 -255 0 0 94 c0 53 -4 98 -10 101 -5 3 -10 29 -10
57 0 85 -56 124 -107 76 -22 -21 -23 -27 -23 -175 l0 -153 -500 0 -500 0 0
322 c0 317 0 322 -22 345 -27 29 -55 29 -85 1 l-23 -21 0 -324 c0 -316 0 -323
-20 -323 -19 0 -20 7 -20 152 0 142 -1 153 -22 175 -27 29 -55 29 -85 1 -22
-21 -23 -27 -23 -175 l0 -153 -35 0 -35 0 0 152 c0 142 -1 153 -22 175 -27 29
-55 29 -85 1 -22 -21 -23 -27 -23 -175 l0 -153 -40 0 -40 0 0 152 c0 142 -1
153 -22 175 -27 29 -55 29 -85 1 -22 -21 -23 -27 -23 -175 l0 -153 -60 0 -60
0 0 152 c0 142 -1 153 -22 175 -27 29 -55 29 -85 1 -22 -21 -23 -27 -23 -175
l0 -153 -85 0 -85 0 0 152 c0 142 -1 153 -22 175 -27 29 -55 29 -85 1 -22 -21
-23 -27 -23 -175 l0 -153 -115 0 -115 0 0 152 c0 142 -1 153 -22 175 -27 29
-55 29 -85 1 -22 -21 -23 -27 -23 -175 l0 -153 -170 0 -170 0 0 152 c0 142 -1
153 -22 175 -27 29 -55 29 -85 1 -22 -21 -23 -27 -23 -175 l0 -153 -265 0
-265 0 0 152 c0 142 -1 153 -22 175 -27 29 -55 29 -85 1 -22 -21 -23 -27 -23
-175 l0 -153 -500 0 -500 0 0 322 c0 317 0 322 -22 345 -27 29 -55 29 -85 1
l-23 -21 0 -324 0 -323 -25 0 -25 0 0 152 c0 142 -1 153 -22 175 -27 29 -55
29 -85 1 -22 -21 -23 -27 -23 -175 l0 -153 -30 0 -30 0 0 152 c0 142 -1 153
-22 175 -27 29 -55 29 -85 1 -22 -21 -23 -27 -23 -175 l0 -153 -45 0 -45 0 0
152 c0 142 -1 153 -22 175 -27 29 -55 29 -85 1 -22 -21 -23 -27 -23 -175 l0
-153 -60 0 -60 0 0 152 c0 142 -1 153 -22 175 -27 29 -55 29 -85 1 -22 -21
-23 -27 -23 -175 l0 -153 -80 0 -80 0 0 152 c0 142 -1 153 -22 175 -27 29 -55
29 -85 1 -22 -21 -23 -27 -23 -175 l0 -153 -120 0 -120 0 0 152 c0 142 -1 153
-22 175 -27 29 -55 29 -85 1 -22 -21 -23 -27 -23 -175 l0 -153 -170 0 -170 0
0 152 c0 142 -1 153 -22 175 -27 29 -55 29 -85 1 -22 -21 -23 -27 -23 -175 l0
-153 -265 0 -265 0 0 152 c0 142 -1 153 -22 175 -27 29 -55 29 -85 1 -22 -21
-23 -27 -23 -175 l0 -153 -500 0 -500 0 0 322 c0 317 0 322 -22 345 -27 29
-55 29 -85 1 l-23 -21 0 -324 c0 -316 0 -323 -20 -323 -19 0 -20 7 -20 152 0
142 -1 153 -22 175 -27 29 -55 29 -85 1 -22 -21 -23 -27 -23 -175 l0 -153 -30
0 -30 0 0 152 c0 142 -1 153 -22 175 -27 29 -55 29 -85 1 -22 -21 -23 -27 -23
-175 l0 -153 -45 0 -45 0 0 152 c0 142 -1 153 -22 175 -27 29 -55 29 -85 1
-22 -21 -23 -27 -23 -175 l0 -153 -60 0 -60 0 0 152 c0 142 -1 153 -22 175
-27 29 -55 29 -85 1 -22 -21 -23 -27 -23 -175 l0 -153 -85 0 -85 0 0 152 c0
142 -1 153 -22 175 -27 29 -55 29 -85 1 -22 -21 -23 -27 -23 -175 l0 -153
-115 0 -115 0 0 152 c0 142 -1 153 -22 175 -27 29 -55 29 -85 1 -22 -21 -23
-27 -23 -175 l0 -153 -170 0 -170 0 0 152 c0 142 -1 153 -22 175 -27 29 -55
29 -85 1 -22 -21 -23 -27 -23 -175 l0 -153 -265 0 -265 0 0 152 c0 142 -1 153
-22 175 -27 29 -55 29 -85 1 -22 -21 -23 -27 -23 -175 l0 -153 -500 0 -500 0
0 322 c0 317 0 322 -22 345 -27 29 -55 29 -85 1 l-23 -21 0 -324 c0 -316 0
-323 -20 -323 -19 0 -20 7 -20 152 0 142 -1 153 -22 175 -27 29 -55 29 -85 1
-22 -21 -23 -27 -23 -175 l0 -153 -30 0 -30 0 0 152 c0 142 -1 153 -22 175
-27 29 -55 29 -85 1 -22 -21 -23 -27 -23 -175 l0 -153 -45 0 -45 0 0 152 c0
142 -1 153 -22 175 -27 29 -55 29 -85 1 -22 -21 -23 -27 -23 -175 l0 -153 -60
0 -60 0 0 152 c0 142 -1 153 -22 175 -27 29 -55 29 -85 1 -22 -21 -23 -27 -23
-175 l0 -153 -85 0 -85 0 0 152 c0 142 -1 153 -22 175 -27 29 -55 29 -85 1
-22 -21 -23 -27 -23 -175 l0 -153 -115 0 -115 0 0 152 c0 142 -1 153 -22 175
-27 29 -55 29 -85 1 -22 -21 -23 -27 -23 -175 l0 -153 -170 0 -170 0 0 152 c0
142 -1 153 -22 175 -27 29 -55 29 -85 1 -22 -21 -23 -27 -23 -175 l0 -153 -85
0 -85 0 0 640 c0 352 2 640 5 640 3 0 293 -72 645 -160 352 -88 656 -160 676
-160 44 0 86 23 108 60 12 22 16 55 16 144 l0 116 921 0 c835 0 924 2 949 16
82 49 80 170 -4 220 -30 18 -70 19 -948 22 l-918 3 0 110 c0 85 -4 117 -16
139 -22 37 -64 60 -108 60 -20 0 -324 -72 -676 -160 -352 -88 -642 -160 -645
-160 -3 0 -5 56 -5 125 l0 125 152 0 c142 0 153 1 175 22 29 27 29 55 1 85
-21 22 -27 23 -175 23 l-153 0 0 680 0 680 152 0 c142 0 153 1 175 22 29 27
29 55 1 85 -21 22 -27 23 -175 23 l-153 0 0 540 0 540 152 0 c142 0 153 1 175
22 29 27 29 55 1 85 -21 22 -27 23 -175 23 l-153 0 0 445 0 445 152 0 c142 0
153 1 175 22 29 27 29 55 1 85 -21 22 -27 23 -175 23 l-153 0 0 380 0 380 152
0 c142 0 153 1 175 22 29 27 29 55 1 85 -21 22 -27 23 -175 23 l-153 0 0 330
0 330 152 0 c142 0 153 1 175 22 29 27 29 55 1 85 -21 22 -27 23 -175 23
l-153 0 0 285 0 285 322 0 c317 0 322 0 345 22 29 27 29 55 1 85 l-21 23 -324
0 -323 0 0 2240 0 2240 152 0 c142 0 153 1 175 22 29 27 29 55 1 85 -21 22
-27 23 -175 23 l-153 0 0 1275 0 1275 152 0 c142 0 153 1 175 22 29 27 29 55
1 85 -21 22 -27 23 -175 23 l-153 0 0 890 0 890 152 0 c142 0 153 1 175 22 29
27 29 55 1 85 -21 22 -27 23 -175 23 l-153 0 0 680 0 680 152 0 c142 0 153 1
175 22 29 27 29 55 1 85 -21 22 -27 23 -175 23 l-153 0 0 540 0 540 152 0
c142 0 153 1 175 22 29 27 29 55 1 85 -21 22 -27 23 -175 23 l-153 0 0 450 0
450 152 0 c142 0 153 1 175 22 29 27 29 55 1 85 -21 22 -27 23 -175 23 l-153
0 0 375 0 375 152 0 c142 0 153 1 175 22 29 27 29 55 1 85 -21 22 -27 23 -175
23 l-153 0 0 330 0 330 152 0 c142 0 153 1 175 22 29 27 29 55 1 85 -21 22
-27 23 -175 23 l-153 0 0 285 0 285 322 0 c317 0 322 0 345 22 29 27 29 55 1
85 l-21 23 -324 0 -323 0 0 2240 0 2240 152 0 c142 0 153 1 175 22 29 27 29
55 1 85 -21 22 -27 23 -175 23 l-153 0 0 1280 0 1280 152 0 c142 0 153 1 175
22 29 27 29 55 1 85 -21 22 -27 23 -175 23 l-153 0 0 700 c0 466 3 700 10 700
6 0 280 -67 610 -150 330 -82 616 -150 636 -150 20 0 48 7 64 16 46 28 60 63
60 154 l0 81 78 -5 c42 -3 199 -8 347 -11 1041 -22 3016 -146 3955 -250 124
-14 464 -59 755 -101 495 -70 579 -85 1278 -230 706 -145 770 -160 1125 -264
501 -145 648 -197 1307 -465 l560 -228 745 -424 745 -424 376 -277 c561 -414
670 -506 1309 -1112 l564 -535 745 -870 c737 -861 749 -875 1126 -1380 484
-648 618 -842 1299 -1879 520 -792 607 -930 1300 -2080 409 -677 823 -1370
922 -1541 l179 -310 5 -2655 5 -2655 1512 -3 1511 -2 168 -293 c226 -394 908
-1550 1136 -1927 102 -168 443 -714 759 -1215 l575 -910 749 -1065 c744 -1059
751 -1068 1150 -1565 622 -774 678 -838 1299 -1480 l562 -580 743 -614 744
-613 396 -257 c594 -386 674 -430 1327 -737 l569 -266 750 -255 c745 -252 752
-255 1125 -343 579 -137 702 -162 1345 -269 544 -91 670 -108 1350 -185 862
-98 1277 -132 2211 -181 807 -43 787 -43 819 -10 56 55 19 138 -66 149 -24 3
-354 22 -734 41 -946 49 -1345 81 -2225 181 -665 75 -820 96 -1295 175 -579
96 -751 131 -1335 269 -373 88 -380 91 -1125 343 l-750 255 -569 266 c-648
304 -735 353 -1300 719 l-369 239 -740 612 -741 611 -562 580 c-621 642 -677
706 -1299 1480 -399 497 -405 505 -1146 1560 l-745 1060 -559 885 c-631 1001
-773 1233 -1305 2134 -601 1022 -2306 3995 -3190 5566 -464 824 -1002 1743
-1686 2876 -695 1153 -779 1287 -1310 2095 -694 1057 -844 1275 -1329 1923
-377 506 -388 520 -1127 1383 l-747 872 -3 73 c-3 65 -5 73 -23 73 -16 0 -21
-8 -25 -47 l-5 -46 -540 511 c-613 580 -717 668 -1290 1091 l-390 287 -753
430 -752 429 -568 231 c-665 271 -811 323 -1314 469 -355 104 -419 119 -1125
264 -710 147 -777 159 -1313 235 -869 124 -1346 171 -2485 246 -379 25 -714
48 -743 51 -51 5 -52 6 -37 27 20 28 19 92 -1 127 -9 15 -31 36 -48 46 -30 18
-70 19 -943 22 l-913 3 0 110 c0 85 -4 117 -16 139 -22 37 -64 60 -108 60 -20
0 -306 -67 -636 -150 -330 -82 -604 -150 -610 -150 -5 0 -10 23 -10 50 l0 50
152 0 c142 0 153 1 175 22 29 27 29 55 1 85 -21 22 -27 23 -175 23 l-153 0 0
675 0 675 20720 0 20720 0 0 -675z m-21113 -14035 c94 -162 253 -441 353 -620
530 -942 1965 -3457 2386 -4182 l33 -58 -1474 0 -1475 0 0 2582 c0 1420 2
2579 4 2577 2 -2 80 -137 173 -299z"/>
<path d="M10613 38145 c-11 -30 12 -36 138 -33 116 3 124 4 124 23 0 19 -8 20
-128 23 -109 2 -128 0 -134 -13z"/>
<path d="M11083 38145 c-11 -30 12 -36 138 -33 116 3 124 4 124 23 0 19 -8 20
-128 23 -109 2 -128 0 -134 -13z"/>
<path d="M11553 38145 c-11 -30 12 -36 138 -33 116 3 124 4 124 23 0 19 -8 20
-128 23 -109 2 -128 0 -134 -13z"/>
<path d="M12023 38145 c-11 -30 12 -36 138 -33 116 3 124 4 124 23 0 19 -8 20
-128 23 -109 2 -128 0 -134 -13z"/>
<path d="M12493 38145 c-11 -30 12 -36 138 -33 116 3 124 4 124 23 0 19 -8 20
-128 23 -109 2 -128 0 -134 -13z"/>
<path d="M12963 38145 c-11 -30 12 -36 138 -33 116 3 124 4 124 23 0 19 -8 20
-128 23 -109 2 -128 0 -134 -13z"/>
<path d="M13433 38145 c-11 -30 12 -36 138 -33 116 3 124 4 124 23 0 19 -8 20
-128 23 -109 2 -128 0 -134 -13z"/>
<path d="M13903 38145 c-11 -30 12 -36 138 -33 116 3 124 4 124 23 0 19 -8 20
-128 23 -109 2 -128 0 -134 -13z"/>
<path d="M14373 38145 c-11 -30 12 -36 138 -33 116 3 124 4 124 23 0 19 -8 20
-128 23 -109 2 -128 0 -134 -13z"/>
<path d="M14843 38145 c-11 -30 12 -36 138 -33 116 3 124 4 124 23 0 19 -8 20
-128 23 -109 2 -128 0 -134 -13z"/>
<path d="M15313 38145 c-11 -30 12 -36 138 -33 116 3 124 4 124 23 0 19 -8 20
-128 23 -109 2 -128 0 -134 -13z"/>
<path d="M15783 38145 c-11 -30 12 -36 138 -33 116 3 124 4 124 23 0 19 -8 20
-128 23 -109 2 -128 0 -134 -13z"/>
<path d="M16253 38145 c-11 -30 12 -36 138 -33 116 3 124 4 124 23 0 19 -8 20
-128 23 -109 2 -128 0 -134 -13z"/>
<path d="M16723 38145 c-11 -30 12 -36 138 -33 116 3 124 4 124 23 0 19 -8 20
-128 23 -109 2 -128 0 -134 -13z"/>
<path d="M17193 38145 c-11 -30 12 -36 138 -33 116 3 124 4 124 23 0 19 -8 20
-128 23 -109 2 -128 0 -134 -13z"/>
<path d="M17663 38145 c-11 -30 12 -36 138 -33 116 3 124 4 124 23 0 19 -8 20
-128 23 -109 2 -128 0 -134 -13z"/>
<path d="M18133 38145 c-11 -30 12 -36 138 -33 116 3 124 4 124 23 0 19 -8 20
-128 23 -109 2 -128 0 -134 -13z"/>
<path d="M18603 38145 c-11 -30 12 -36 138 -33 116 3 124 4 124 23 0 19 -8 20
-128 23 -109 2 -128 0 -134 -13z"/>
<path d="M19073 38145 c-11 -30 12 -36 138 -33 116 3 124 4 124 23 0 19 -8 20
-128 23 -109 2 -128 0 -134 -13z"/>
<path d="M19543 38145 c-11 -30 12 -36 138 -33 116 3 124 4 124 23 0 19 -8 20
-128 23 -109 2 -128 0 -134 -13z"/>
<path d="M20013 38145 c-11 -30 12 -36 138 -33 116 3 124 4 124 23 0 19 -8 20
-128 23 -109 2 -128 0 -134 -13z"/>
<path d="M20483 38145 c-11 -30 12 -36 138 -33 116 3 124 4 124 23 0 19 -8 20
-128 23 -109 2 -128 0 -134 -13z"/>
<path d="M20953 38145 c-11 -30 12 -36 138 -33 116 3 124 4 124 23 0 19 -8 20
-128 23 -109 2 -128 0 -134 -13z"/>
<path d="M21423 38145 c-11 -30 12 -36 138 -33 116 3 124 4 124 23 0 19 -8 20
-128 23 -109 2 -128 0 -134 -13z"/>
<path d="M21835 38148 c-3 -8 -4 -68 -3 -134 3 -111 4 -119 23 -119 19 0 20 7
20 130 0 116 -2 130 -18 133 -9 2 -19 -3 -22 -10z"/>
<path d="M21893 38145 c-11 -30 12 -36 138 -33 116 3 124 4 124 23 0 19 -8 20
-128 23 -109 2 -128 0 -134 -13z"/>
<path d="M22363 38145 c-11 -30 12 -36 138 -33 116 3 124 4 124 23 0 19 -8 20
-128 23 -109 2 -128 0 -134 -13z"/>
<path d="M22833 38145 c-11 -30 12 -36 138 -33 116 3 124 4 124 23 0 19 -8 20
-128 23 -109 2 -128 0 -134 -13z"/>
<path d="M23303 38145 c-11 -30 12 -36 138 -33 116 3 124 4 124 23 0 19 -8 20
-128 23 -109 2 -128 0 -134 -13z"/>
<path d="M23773 38145 c-11 -30 12 -36 138 -33 116 3 124 4 124 23 0 19 -8 20
-128 23 -109 2 -128 0 -134 -13z"/>
<path d="M24243 38145 c-11 -30 12 -36 138 -33 116 3 124 4 124 23 0 19 -8 20
-128 23 -109 2 -128 0 -134 -13z"/>
<path d="M24713 38145 c-11 -30 12 -36 138 -33 116 3 124 4 124 23 0 19 -8 20
-128 23 -109 2 -128 0 -134 -13z"/>
<path d="M25183 38145 c-11 -30 12 -36 138 -33 116 3 124 4 124 23 0 19 -8 20
-128 23 -109 2 -128 0 -134 -13z"/>
<path d="M25653 38145 c-11 -30 12 -36 138 -33 116 3 124 4 124 23 0 19 -8 20
-128 23 -109 2 -128 0 -134 -13z"/>
<path d="M26123 38145 c-11 -30 12 -36 138 -33 116 3 124 4 124 23 0 19 -8 20
-128 23 -109 2 -128 0 -134 -13z"/>
<path d="M26593 38145 c-11 -30 12 -36 138 -33 116 3 124 4 124 23 0 19 -8 20
-128 23 -109 2 -128 0 -134 -13z"/>
<path d="M27063 38145 c-11 -30 12 -36 138 -33 116 3 124 4 124 23 0 19 -8 20
-128 23 -109 2 -128 0 -134 -13z"/>
<path d="M27533 38145 c-11 -30 12 -36 133 -33 111 3 119 4 119 23 0 19 -8 20
-123 23 -105 2 -123 0 -129 -13z"/>
<path d="M27993 38145 c-11 -30 12 -36 138 -33 116 3 124 4 124 23 0 19 -8 20
-128 23 -109 2 -128 0 -134 -13z"/>
<path d="M28463 38145 c-11 -30 12 -36 138 -33 116 3 124 4 124 23 0 19 -8 20
-128 23 -109 2 -128 0 -134 -13z"/>
<path d="M28933 38145 c-11 -30 12 -36 138 -33 116 3 124 4 124 23 0 19 -8 20
-128 23 -109 2 -128 0 -134 -13z"/>
<path d="M29403 38145 c-11 -30 12 -36 138 -33 116 3 124 4 124 23 0 19 -8 20
-128 23 -109 2 -128 0 -134 -13z"/>
<path d="M29873 38145 c-11 -30 12 -36 138 -33 116 3 124 4 124 23 0 19 -8 20
-128 23 -109 2 -128 0 -134 -13z"/>
<path d="M30343 38145 c-11 -30 12 -36 138 -33 116 3 124 4 124 23 0 19 -8 20
-128 23 -109 2 -128 0 -134 -13z"/>
<path d="M30813 38145 c-11 -30 12 -36 138 -33 116 3 124 4 124 23 0 19 -8 20
-128 23 -109 2 -128 0 -134 -13z"/>
<path d="M31283 38145 c-11 -30 12 -36 138 -33 116 3 124 4 124 23 0 19 -8 20
-128 23 -109 2 -128 0 -134 -13z"/>
<path d="M31753 38145 c-11 -30 12 -36 138 -33 116 3 124 4 124 23 0 19 -8 20
-128 23 -109 2 -128 0 -134 -13z"/>
<path d="M32223 38145 c-11 -30 12 -36 138 -33 116 3 124 4 124 23 0 19 -8 20
-128 23 -109 2 -128 0 -134 -13z"/>
<path d="M32693 38145 c-11 -30 12 -36 138 -33 116 3 124 4 124 23 0 19 -8 20
-128 23 -109 2 -128 0 -134 -13z"/>
<path d="M33163 38145 c-11 -30 12 -36 138 -33 116 3 124 4 124 23 0 19 -8 20
-128 23 -109 2 -128 0 -134 -13z"/>
<path d="M33633 38145 c-11 -30 12 -36 138 -33 116 3 124 4 124 23 0 19 -8 20
-128 23 -109 2 -128 0 -134 -13z"/>
<path d="M34103 38145 c-11 -30 12 -36 138 -33 116 3 124 4 124 23 0 19 -8 20
-128 23 -109 2 -128 0 -134 -13z"/>
<path d="M34573 38145 c-11 -30 12 -36 138 -33 116 3 124 4 124 23 0 19 -8 20
-128 23 -109 2 -128 0 -134 -13z"/>
<path d="M35043 38145 c-11 -30 12 -36 138 -33 116 3 124 4 124 23 0 19 -8 20
-128 23 -109 2 -128 0 -134 -13z"/>
<path d="M35513 38145 c-11 -30 12 -36 138 -33 116 3 124 4 124 23 0 19 -8 20
-128 23 -109 2 -128 0 -134 -13z"/>
<path d="M35983 38145 c-11 -30 12 -36 138 -33 116 3 124 4 124 23 0 19 -8 20
-128 23 -109 2 -128 0 -134 -13z"/>
<path d="M36453 38145 c-11 -30 12 -36 138 -33 116 3 124 4 124 23 0 19 -8 20
-128 23 -109 2 -128 0 -134 -13z"/>
<path d="M36923 38145 c-11 -30 12 -36 138 -33 116 3 124 4 124 23 0 19 -8 20
-128 23 -109 2 -128 0 -134 -13z"/>
<path d="M37393 38145 c-11 -30 12 -36 138 -33 116 3 124 4 124 23 0 19 -8 20
-128 23 -109 2 -128 0 -134 -13z"/>
<path d="M37863 38145 c-11 -30 12 -36 138 -33 116 3 124 4 124 23 0 19 -8 20
-128 23 -109 2 -128 0 -134 -13z"/>
<path d="M38333 38145 c-11 -30 12 -36 138 -33 116 3 124 4 124 23 0 19 -8 20
-128 23 -109 2 -128 0 -134 -13z"/>
<path d="M38803 38145 c-11 -30 12 -36 138 -33 116 3 124 4 124 23 0 19 -8 20
-128 23 -109 2 -128 0 -134 -13z"/>
<path d="M39273 38145 c-11 -30 12 -36 138 -33 116 3 124 4 124 23 0 19 -8 20
-128 23 -109 2 -128 0 -134 -13z"/>
<path d="M39743 38145 c-11 -30 12 -36 138 -33 116 3 124 4 124 23 0 19 -8 20
-128 23 -109 2 -128 0 -134 -13z"/>
<path d="M40213 38145 c-11 -30 12 -36 138 -33 116 3 124 4 124 23 0 19 -8 20
-128 23 -109 2 -128 0 -134 -13z"/>
<path d="M40683 38145 c-11 -30 12 -36 138 -33 116 3 124 4 124 23 0 19 -8 20
-128 23 -109 2 -128 0 -134 -13z"/>
<path d="M41153 38145 c-11 -30 12 -36 138 -33 116 3 124 4 124 23 0 19 -8 20
-128 23 -109 2 -128 0 -134 -13z"/>
<path d="M41623 38145 c-11 -30 12 -36 138 -33 116 3 124 4 124 23 0 19 -8 20
-128 23 -109 2 -128 0 -134 -13z"/>
<path d="M42093 38145 c-11 -30 12 -36 138 -33 116 3 124 4 124 23 0 19 -8 20
-128 23 -109 2 -128 0 -134 -13z"/>
<path d="M42563 38145 c-11 -30 12 -36 138 -33 116 3 124 4 124 23 0 19 -8 20
-128 23 -109 2 -128 0 -134 -13z"/>
<path d="M43033 38145 c-11 -30 12 -36 138 -33 116 3 124 4 124 23 0 19 -8 20
-128 23 -109 2 -128 0 -134 -13z"/>
<path d="M43503 38145 c-11 -30 12 -36 138 -33 116 3 124 4 124 23 0 19 -8 20
-128 23 -109 2 -128 0 -134 -13z"/>
<path d="M43973 38145 c-11 -30 12 -36 138 -33 116 3 124 4 124 23 0 19 -8 20
-128 23 -109 2 -128 0 -134 -13z"/>
<path d="M44443 38145 c-11 -30 12 -36 138 -33 116 3 124 4 124 23 0 19 -8 20
-128 23 -109 2 -128 0 -134 -13z"/>
<path d="M44913 38145 c-11 -30 12 -36 138 -33 116 3 124 4 124 23 0 19 -8 20
-128 23 -109 2 -128 0 -134 -13z"/>
<path d="M45383 38145 c-11 -30 12 -36 138 -33 116 3 124 4 124 23 0 19 -8 20
-128 23 -109 2 -128 0 -134 -13z"/>
<path d="M45853 38145 c-11 -30 12 -36 138 -33 116 3 124 4 124 23 0 19 -8 20
-128 23 -109 2 -128 0 -134 -13z"/>
<path d="M46323 38145 c-11 -30 12 -36 138 -33 116 3 124 4 124 23 0 19 -8 20
-128 23 -109 2 -128 0 -134 -13z"/>
<path d="M46793 38145 c-11 -30 12 -36 138 -33 116 3 124 4 124 23 0 19 -8 20
-128 23 -109 2 -128 0 -134 -13z"/>
<path d="M47263 38145 c-11 -30 12 -36 138 -33 116 3 124 4 124 23 0 19 -8 20
-128 23 -109 2 -128 0 -134 -13z"/>
<path d="M47733 38145 c-11 -30 12 -36 138 -33 116 3 124 4 124 23 0 19 -8 20
-128 23 -109 2 -128 0 -134 -13z"/>
<path d="M48203 38145 c-11 -30 12 -36 138 -33 116 3 124 4 124 23 0 19 -8 20
-128 23 -109 2 -128 0 -134 -13z"/>
<path d="M21835 37678 c-3 -8 -4 -68 -3 -134 3 -111 4 -119 23 -119 19 0 20 7
20 130 0 116 -2 130 -18 133 -9 2 -19 -3 -22 -10z"/>
<path d="M9555 37429 c-45 -13 -97 -61 -128 -118 -36 -64 -14 -70 26 -7 28 44
70 71 104 64 39 -7 27 -64 -72 -353 -52 -154 -95 -283 -95 -287 0 -5 27 -8 59
-8 l59 0 28 83 c15 45 53 159 86 252 l59 170 58 42 c113 83 193 103 245 62 20
-16 26 -29 26 -58 0 -21 -49 -181 -113 -372 -105 -309 -126 -378 -141 -466
l-5 -33 63 0 64 0 6 54 c4 30 61 215 126 411 140 419 149 454 127 508 -27 63
-102 82 -204 52 -41 -12 -148 -78 -220 -137 -8 -7 -10 6 -6 50 5 55 4 60 -22
80 -29 23 -76 27 -130 11z"/>
<path d="M21835 37208 c-3 -8 -4 -68 -3 -134 3 -111 4 -119 23 -119 19 0 20 7
20 130 0 116 -2 130 -18 133 -9 2 -19 -3 -22 -10z"/>
<path d="M33905 37084 c-93 -34 -154 -141 -163 -283 -8 -157 36 -266 133 -326
42 -26 58 -30 119 -30 85 1 136 24 189 86 63 73 89 199 68 324 -15 87 -39 133
-95 182 -70 62 -163 79 -251 47z m171 -125 c69 -65 72 -296 5 -371 -20 -22
-38 -31 -72 -35 -41 -5 -50 -2 -81 26 -42 37 -58 88 -58 191 0 103 16 154 58
191 31 27 41 31 79 26 27 -3 54 -14 69 -28z"/>
<path d="M34425 36638 c-132 -255 -282 -543 -333 -641 l-92 -178 62 3 63 3
327 630 c180 347 327 633 327 638 1 4 -25 7 -56 7 l-58 0 -240 -462z"/>
<path d="M43085 37084 c-199 -42 -335 -160 -405 -353 -117 -319 -12 -676 236
-808 111 -59 194 -78 334 -78 173 0 283 35 438 138 l62 42 0 227 0 228 -255 0
-255 0 0 -70 0 -70 180 0 180 0 0 -114 0 -115 -33 -25 c-44 -34 -128 -72 -202
-91 -204 -53 -429 36 -514 203 -50 99 -67 310 -35 436 37 142 128 252 246 297
53 20 81 24 173 24 100 0 116 -3 170 -28 78 -37 127 -85 161 -161 14 -33 28
-62 29 -64 2 -2 33 5 70 15 66 17 67 18 61 48 -12 58 -65 155 -111 200 -112
112 -329 161 -530 119z"/>
<path d="M30683 37066 c-107 -35 -169 -93 -223 -208 -93 -199 -91 -610 5 -812
38 -79 88 -131 163 -168 61 -30 74 -33 162 -33 81 0 103 4 151 27 112 52 192
170 225 333 26 126 24 414 -4 527 -56 227 -168 335 -355 344 -53 3 -97 -1
-124 -10z m219 -143 c96 -69 129 -190 129 -463 0 -202 -16 -307 -59 -383 -104
-185 -336 -142 -396 73 -38 136 -40 469 -3 605 40 144 112 209 229 202 45 -3
67 -10 100 -34z"/>
<path d="M32103 37066 c-107 -35 -169 -93 -223 -208 -93 -199 -91 -610 5 -812
38 -79 88 -131 163 -168 61 -30 74 -33 162 -33 81 0 103 4 151 27 112 52 192
170 225 333 26 126 24 414 -4 527 -56 227 -168 335 -355 344 -53 3 -97 -1
-124 -10z m219 -143 c96 -69 129 -190 129 -463 0 -202 -16 -307 -59 -383 -104
-185 -336 -142 -396 73 -38 136 -40 469 -3 605 40 144 112 209 229 202 45 -3
67 -10 100 -34z"/>
<path d="M35690 37076 c0 -3 90 -134 201 -291 110 -158 198 -293 196 -300 -3
-7 -97 -136 -209 -286 -112 -151 -214 -289 -226 -306 l-23 -33 95 0 95 0 154
213 c85 116 167 232 183 256 25 38 30 41 39 26 5 -9 84 -123 175 -253 l166
-237 97 -3 c53 -1 97 0 97 2 0 3 -99 145 -220 316 -121 171 -220 315 -220 320
0 6 82 124 183 263 100 138 193 267 206 285 l22 32 -85 0 -86 0 -122 -162
c-67 -90 -143 -193 -169 -230 l-46 -68 -28 43 c-15 23 -87 126 -159 229 l-131
187 -92 1 c-51 0 -93 -2 -93 -4z"/>
<path d="M39230 36470 l0 -610 74 0 74 0 4 303 c3 283 4 305 24 348 70 150
303 175 372 39 21 -43 22 -52 22 -367 l0 -323 75 0 75 0 0 330 c0 200 -4 349
-11 380 -15 70 -62 128 -134 165 -53 27 -67 30 -154 30 -111 -1 -161 -18 -230
-80 l-41 -37 0 216 0 216 -75 0 -75 0 0 -610z"/>
<path d="M32905 37048 c-7 -25 -115 -602 -112 -604 1 -2 31 -7 66 -13 l64 -10
44 39 c59 51 128 74 207 68 148 -12 235 -111 236 -269 0 -92 -19 -153 -67
-209 -131 -153 -365 -101 -414 91 l-13 51 -76 -7 c-41 -4 -76 -8 -77 -9 -8 -7
32 -127 52 -163 34 -58 107 -118 174 -145 82 -32 241 -32 326 2 116 46 217
172 246 308 17 84 7 199 -26 269 -35 77 -112 154 -189 189 -52 24 -74 28 -152
29 -84 0 -95 -3 -163 -36 -67 -33 -72 -34 -67 -15 2 12 17 83 32 159 l27 137
243 0 244 0 0 75 0 75 -300 0 c-232 0 -302 -3 -305 -12z"/>
<path d="M38858 37009 l-68 -40 0 -110 0 -109 -55 0 -55 0 0 -60 0 -60 54 0
55 0 3 -337 c3 -379 4 -380 75 -425 33 -20 51 -23 135 -23 53 0 98 2 101 5 3
3 0 33 -6 68 l-10 62 -53 0 c-41 0 -59 5 -74 20 -19 19 -20 33 -20 325 l0 305
75 0 75 0 0 60 0 60 -75 0 -75 0 0 150 c0 83 -3 150 -7 150 -5 0 -38 -18 -75
-41z"/>
<path d="M37130 36763 c-150 -25 -254 -111 -285 -236 -6 -23 -4 -25 37 -32 24
-3 55 -8 70 -11 24 -5 29 -1 49 46 39 92 107 126 234 118 131 -9 194 -67 195
-180 0 -44 -2 -47 -32 -56 -51 -16 -76 -20 -219 -42 -158 -23 -186 -31 -245
-65 -112 -66 -153 -209 -93 -326 83 -165 365 -186 557 -42 18 14 35 23 38 20
2 -2 10 -24 17 -48 l13 -44 77 -3 c42 -2 77 -1 77 1 0 3 -8 24 -17 48 -14 36
-18 98 -22 359 -6 313 -6 316 -31 365 -47 90 -161 137 -326 134 -38 -1 -80 -4
-94 -6z m298 -541 c-7 -92 -23 -136 -69 -181 -73 -73 -213 -102 -302 -63 -114
50 -114 190 -1 238 17 7 88 23 158 34 70 12 144 28 164 35 20 7 41 14 46 14 5
1 6 -34 4 -77z"/>
<path d="M38130 36757 c-59 -17 -111 -49 -149 -93 l-31 -35 0 61 0 60 -70 0
-70 0 0 -445 0 -445 74 0 74 0 4 303 c3 266 6 307 22 345 66 153 304 180 374
42 21 -43 22 -52 22 -367 l0 -323 76 0 75 0 -3 358 -3 357 -27 52 c-47 89
-125 133 -248 139 -43 2 -94 -1 -120 -9z"/>
<path d="M40450 36763 c-150 -25 -254 -111 -285 -236 -6 -23 -4 -25 37 -32 24
-3 55 -8 70 -11 24 -5 29 -1 49 46 39 92 107 126 234 118 131 -9 194 -67 195
-180 0 -44 -2 -47 -32 -56 -51 -16 -76 -20 -219 -42 -158 -23 -186 -31 -245
-65 -112 -66 -153 -209 -93 -326 83 -165 365 -186 557 -42 18 14 35 23 38 20
2 -2 10 -24 17 -48 l13 -44 77 -3 c42 -2 77 -1 77 1 0 3 -8 24 -17 48 -14 36
-18 98 -22 359 -6 313 -6 316 -31 365 -47 90 -161 137 -326 134 -38 -1 -80 -4
-94 -6z m298 -541 c-7 -92 -23 -136 -69 -181 -73 -73 -213 -102 -302 -63 -114
50 -114 190 -1 238 17 7 88 23 158 34 70 12 144 28 164 35 20 7 41 14 46 14 5
1 6 -34 4 -77z"/>
<path d="M41450 36757 c-59 -17 -111 -49 -149 -93 l-31 -35 0 61 0 60 -70 0
-70 0 0 -445 0 -445 74 0 74 0 4 303 c3 266 6 307 22 345 66 153 304 180 374
42 21 -43 22 -52 22 -367 l0 -323 76 0 75 0 -3 358 -3 357 -27 52 c-47 89
-125 133 -248 139 -43 2 -94 -1 -120 -9z"/>
<path d="M45220 36754 c-50 -18 -115 -62 -137 -93 -23 -34 -33 -24 -33 34 l0
55 -65 0 -65 0 0 -445 0 -445 74 0 74 0 4 303 3 303 30 59 c26 50 39 63 85 88
71 37 154 35 196 -4 52 -48 54 -62 54 -419 l0 -330 75 0 75 0 0 269 c0 351 12
414 93 472 72 52 174 51 233 -4 31 -28 36 -40 44 -102 5 -39 9 -197 10 -352
l0 -283 70 0 70 0 0 343 c0 381 -5 417 -62 483 -52 59 -100 78 -198 79 -73 0
-93 -4 -142 -28 -32 -16 -75 -48 -97 -73 l-40 -45 -14 28 c-19 36 -62 76 -106
98 -49 25 -174 30 -231 9z"/>
<path d="M21835 36738 c-3 -8 -4 -68 -3 -134 3 -111 4 -119 23 -119 19 0 20 7
20 130 0 116 -2 130 -18 133 -9 2 -19 -3 -22 -10z"/>
<path d="M43970 36428 c0 -351 7 -407 53 -477 36 -53 133 -101 220 -108 108
-9 230 40 286 114 l20 28 1 -62 0 -63 70 0 70 0 0 445 0 445 -74 0 -74 0 -4
-302 c-3 -264 -6 -308 -21 -343 -36 -79 -102 -124 -198 -132 -73 -7 -138 21
-171 75 -23 36 -23 43 -26 370 l-3 332 -75 0 -74 0 0 -322z"/>
<path d="M10475 36657 c-166 -79 -301 -382 -239 -537 42 -103 170 -88 282 34
84 92 152 257 152 366 0 48 -26 116 -53 138 -30 25 -88 25 -142 -1z m109 -29
c9 -12 16 -39 16 -59 0 -83 -80 -316 -139 -404 -31 -46 -84 -85 -117 -85 -79
0 -67 161 28 378 70 160 166 236 212 170z"/>
<path d="M34696 36466 c-52 -20 -110 -78 -138 -140 -20 -45 -23 -67 -23 -176
0 -110 3 -131 24 -178 46 -102 146 -161 251 -149 146 17 231 136 232 323 1
154 -48 256 -145 306 -53 26 -149 33 -201 14z m145 -112 c50 -25 73 -91 73
-204 0 -74 -5 -105 -21 -142 -47 -104 -164 -104 -214 0 -18 37 -21 57 -18 155
4 94 8 118 26 148 36 58 95 74 154 43z"/>
<path d="M42020 36300 l0 -70 235 0 235 0 0 70 0 70 -235 0 -235 0 0 -70z"/>
<path d="M21835 36268 c-3 -8 -4 -68 -3 -134 3 -111 4 -119 23 -119 19 0 20 7
20 130 0 116 -2 130 -18 133 -9 2 -19 -3 -22 -10z"/>
<path d="M31420 35940 l0 -80 85 0 85 0 0 80 0 80 -85 0 -85 0 0 -80z"/>
<path d="M21835 35798 c-3 -8 -4 -68 -3 -134 3 -111 4 -119 23 -119 19 0 20 7
20 130 0 116 -2 130 -18 133 -9 2 -19 -3 -22 -10z"/>
<path d="M21835 35328 c-3 -8 -4 -68 -3 -134 3 -111 4 -119 23 -119 19 0 20 7
20 130 0 116 -2 130 -18 133 -9 2 -19 -3 -22 -10z"/>
<path d="M32230 34390 l0 -610 75 0 75 0 0 610 0 610 -75 0 -75 0 0 -610z"/>
<path d="M34040 34920 l0 -80 70 0 70 0 0 80 0 80 -70 0 -70 0 0 -80z"/>
<path d="M37640 34920 l0 -80 70 0 70 0 0 80 0 80 -70 0 -70 0 0 -80z"/>
<path d="M41520 34920 l0 -80 70 0 70 0 0 80 0 80 -70 0 -70 0 0 -80z"/>
<path d="M33658 34929 l-68 -40 0 -110 0 -109 -55 0 -55 0 0 -60 0 -60 54 0
55 0 3 -337 c3 -379 4 -380 75 -425 33 -20 51 -23 135 -23 53 0 98 2 101 5 3
3 0 33 -6 68 l-10 62 -53 0 c-41 0 -59 5 -74 20 -19 19 -20 33 -20 325 l0 305
75 0 75 0 0 60 0 60 -75 0 -75 0 0 150 c0 83 -3 150 -7 150 -5 0 -38 -18 -75
-41z"/>
<path d="M41988 34929 l-68 -40 0 -110 0 -109 -55 0 -55 0 0 -60 0 -60 54 0
55 0 3 -337 c3 -379 4 -380 75 -425 33 -20 51 -23 135 -23 53 0 98 2 101 5 3
3 0 33 -6 68 l-10 62 -53 0 c-41 0 -59 5 -74 20 -19 19 -20 33 -20 325 l0 305
75 0 75 0 0 60 0 60 -75 0 -75 0 0 150 c0 83 -3 150 -7 150 -5 0 -38 -18 -75
-41z"/>
<path d="M21835 34858 c-3 -8 -4 -68 -3 -134 3 -111 4 -119 23 -119 19 0 20 7
20 130 0 116 -2 130 -18 133 -9 2 -19 -3 -22 -10z"/>
<path d="M30610 34676 c-102 -29 -154 -69 -189 -146 -29 -64 -27 -134 5 -198
41 -83 73 -99 393 -192 95 -28 131 -61 131 -120 0 -78 -88 -140 -198 -140
-115 0 -196 53 -222 144 -12 43 -15 47 -39 42 -14 -3 -47 -7 -73 -11 l-47 -6
16 -52 c20 -69 65 -139 111 -170 68 -48 118 -60 242 -61 147 0 210 21 285 98
56 57 75 104 75 185 0 65 -21 115 -66 157 -35 33 -115 63 -360 134 -84 24
-120 49 -129 91 -21 94 91 157 240 135 56 -9 120 -61 130 -106 4 -17 10 -32
14 -35 8 -4 132 13 139 20 7 7 -28 98 -50 130 -62 91 -263 141 -408 101z"/>
<path d="M31530 34677 c-110 -32 -202 -104 -249 -195 -70 -138 -67 -389 6
-525 37 -67 120 -141 191 -168 76 -30 231 -33 309 -6 67 23 152 85 187 135 87
126 107 362 45 528 -31 83 -130 182 -214 214 -74 27 -209 36 -275 17z m218
-133 c104 -52 144 -128 150 -291 7 -188 -39 -292 -154 -349 -47 -23 -63 -26
-117 -22 -35 3 -77 13 -94 21 -42 22 -90 71 -112 116 -59 116 -53 322 12 433
63 108 202 149 315 92z"/>
<path d="M34660 34677 c-110 -32 -202 -104 -249 -195 -70 -138 -67 -389 6
-525 37 -67 120 -141 191 -168 76 -30 231 -33 309 -6 67 23 152 85 187 135 87
126 107 362 45 528 -31 83 -130 182 -214 214 -74 27 -209 36 -275 17z m218
-133 c104 -52 144 -128 150 -291 7 -188 -39 -292 -154 -349 -47 -23 -63 -26
-117 -22 -35 3 -77 13 -94 21 -42 22 -90 71 -112 116 -59 116 -53 322 12 433
63 108 202 149 315 92z"/>
<path d="M35680 34677 c-59 -17 -111 -49 -149 -93 l-31 -35 0 61 0 60 -70 0
-70 0 0 -445 0 -445 74 0 74 0 4 303 c3 266 6 307 22 345 66 153 304 180 374
42 21 -43 22 -52 22 -367 l0 -323 76 0 75 0 -3 358 -3 357 -27 52 c-47 89
-125 133 -248 139 -43 2 -94 -1 -120 -9z"/>
<path d="M38190 34676 c-102 -29 -154 -69 -189 -146 -29 -64 -27 -134 5 -198
41 -83 73 -99 393 -192 95 -28 131 -61 131 -120 0 -78 -88 -140 -198 -140
-115 0 -196 53 -222 144 -12 43 -15 47 -39 42 -14 -3 -47 -7 -73 -11 l-47 -6
16 -52 c20 -69 65 -139 111 -170 68 -48 118 -60 242 -61 147 0 210 21 285 98
56 57 75 104 75 185 0 65 -21 115 -66 157 -35 33 -115 63 -360 134 -84 24
-120 49 -129 91 -21 94 91 157 240 135 56 -9 120 -61 130 -106 4 -17 10 -32
14 -35 8 -4 132 13 139 20 7 7 -28 98 -50 130 -62 91 -263 141 -408 101z"/>
<path d="M39110 34676 c-131 -37 -215 -114 -262 -244 -30 -81 -32 -319 -4
-405 58 -175 215 -278 405 -264 165 13 298 130 326 289 8 41 18 35 -99 53
l-35 6 -16 -60 c-42 -147 -179 -212 -312 -146 -93 47 -131 122 -140 277 -10
162 19 262 96 331 82 74 212 76 289 4 27 -25 62 -88 62 -112 0 -17 5 -17 118
2 38 6 38 12 -9 110 -28 59 -70 102 -129 133 -73 38 -203 50 -290 26z"/>
<path d="M39960 34677 c-110 -32 -202 -104 -249 -195 -70 -138 -67 -389 6
-525 37 -67 120 -141 191 -168 76 -30 231 -33 309 -6 67 23 152 85 187 135 87
126 107 362 45 528 -31 83 -130 182 -214 214 -74 27 -209 36 -275 17z m218
-133 c104 -52 144 -128 150 -291 7 -188 -39 -292 -154 -349 -47 -23 -63 -26
-117 -22 -35 3 -77 13 -94 21 -42 22 -90 71 -112 116 -59 116 -53 322 12 433
63 108 202 149 315 92z"/>
<path d="M40840 34676 c-102 -29 -154 -69 -189 -146 -29 -64 -27 -134 5 -198
41 -83 73 -99 393 -192 95 -28 131 -61 131 -120 0 -78 -88 -140 -198 -140
-115 0 -196 53 -222 144 -12 43 -15 47 -39 42 -14 -3 -47 -7 -73 -11 l-47 -6
16 -52 c20 -69 65 -139 111 -170 68 -48 118 -60 242 -61 147 0 210 21 285 98
56 57 75 104 75 185 0 65 -21 115 -66 157 -35 33 -115 63 -360 134 -84 24
-120 49 -129 91 -21 94 91 157 240 135 56 -9 120 -61 130 -106 4 -17 10 -32
14 -35 8 -4 132 13 139 20 7 7 -28 98 -50 130 -62 91 -263 141 -408 101z"/>
<path d="M32610 34348 c0 -351 7 -407 53 -477 36 -53 133 -101 220 -108 108
-9 230 40 286 114 l20 28 1 -62 0 -63 70 0 70 0 0 445 0 445 -74 0 -74 0 -4
-302 c-3 -264 -6 -308 -21 -343 -36 -79 -102 -124 -198 -132 -73 -7 -138 21
-171 75 -23 36 -23 43 -26 370 l-3 332 -75 0 -74 0 0 -322z"/>
<path d="M34040 34225 l0 -445 70 0 70 0 0 445 0 445 -70 0 -70 0 0 -445z"/>
<path d="M36859 34225 l166 -445 71 0 70 0 144 383 c78 210 154 410 167 445
l23 63 -77 -3 -77 -3 -115 -321 c-64 -176 -121 -333 -127 -350 l-11 -29 -17
58 c-16 52 -174 501 -213 605 l-16 42 -77 0 -77 0 166 -445z"/>
<path d="M37640 34225 l0 -445 70 0 70 0 0 445 0 445 -70 0 -70 0 0 -445z"/>
<path d="M41520 34225 l0 -445 70 0 70 0 0 445 0 445 -70 0 -70 0 0 -445z"/>
<path d="M42284 34652 c3 -10 77 -211 165 -447 l159 -430 -25 -70 c-33 -90
-46 -110 -90 -130 -27 -13 -52 -16 -95 -12 l-59 5 7 -61 c3 -34 10 -66 14 -70
4 -5 35 -11 68 -14 117 -11 197 52 261 204 28 64 368 988 379 1026 4 16 -2 18
-69 15 l-73 -3 -99 -275 c-54 -151 -109 -311 -122 -355 -20 -67 -25 -76 -31
-55 -8 28 -128 376 -195 568 l-43 122 -79 0 c-71 0 -78 -2 -73 -18z"/>
<path d="M21835 34388 c-3 -8 -4 -68 -3 -134 3 -111 4 -119 23 -119 19 0 20 7
20 130 0 116 -2 130 -18 133 -9 2 -19 -3 -22 -10z"/>
<path d="M21835 33448 c-3 -8 -4 -68 -3 -134 3 -111 4 -119 23 -119 19 0 20 7
20 130 0 116 -2 130 -18 133 -9 2 -19 -3 -22 -10z"/>
<path d="M21835 32978 c-3 -8 -4 -68 -3 -134 3 -111 4 -119 23 -119 19 0 20 7
20 130 0 116 -2 130 -18 133 -9 2 -19 -3 -22 -10z"/>
<path d="M21835 32508 c-3 -8 -4 -68 -3 -134 3 -111 4 -119 23 -119 19 0 20 7
20 130 0 116 -2 130 -18 133 -9 2 -19 -3 -22 -10z"/>
<path d="M21835 32038 c-3 -8 -4 -68 -3 -134 3 -111 4 -119 23 -119 19 0 20 7
20 130 0 116 -2 130 -18 133 -9 2 -19 -3 -22 -10z"/>
<path d="M21835 31568 c-3 -8 -4 -68 -3 -134 3 -111 4 -119 23 -119 19 0 20 7
20 130 0 116 -2 130 -18 133 -9 2 -19 -3 -22 -10z"/>
<path d="M21835 31098 c-3 -8 -4 -68 -3 -134 3 -111 4 -119 23 -119 19 0 20 7
20 130 0 116 -2 130 -18 133 -9 2 -19 -3 -22 -10z"/>
<path d="M21835 30628 c-3 -8 -4 -68 -3 -134 3 -111 4 -119 23 -119 19 0 20 7
20 130 0 116 -2 130 -18 133 -9 2 -19 -3 -22 -10z"/>
<path d="M21835 30160 c-4 -6 -4 -66 0 -132 6 -90 11 -121 22 -125 31 -12 36
13 27 139 -7 102 -12 123 -26 126 -9 2 -19 -2 -23 -8z"/>
<path d="M21845 29688 c-3 -8 -4 -68 -3 -134 3 -111 4 -119 23 -119 19 0 20 7
20 130 0 116 -2 130 -18 133 -9 2 -19 -3 -22 -10z"/>
<path d="M21845 29218 c-3 -8 -4 -68 -3 -134 3 -111 4 -119 23 -119 19 0 20 7
20 130 0 116 -2 130 -18 133 -9 2 -19 -3 -22 -10z"/>
<path d="M21845 28748 c-3 -8 -4 -68 -3 -134 3 -111 4 -119 23 -119 19 0 20 7
20 130 0 116 -2 130 -18 133 -9 2 -19 -3 -22 -10z"/>
<path d="M21845 28278 c-3 -8 -4 -68 -3 -134 3 -111 4 -119 23 -119 19 0 20 7
20 130 0 116 -2 130 -18 133 -9 2 -19 -3 -22 -10z"/>
<path d="M21845 27808 c-3 -8 -4 -68 -3 -134 3 -111 4 -119 23 -119 19 0 20 7
20 130 0 116 -2 130 -18 133 -9 2 -19 -3 -22 -10z"/>
<path d="M21845 27338 c-3 -8 -4 -68 -3 -134 3 -111 4 -119 23 -119 19 0 20 7
20 130 0 116 -2 130 -18 133 -9 2 -19 -3 -22 -10z"/>
<path d="M21845 26868 c-3 -8 -4 -68 -3 -134 3 -111 4 -119 23 -119 19 0 20 7
20 130 0 116 -2 130 -18 133 -9 2 -19 -3 -22 -10z"/>
<path d="M21845 26398 c-3 -8 -4 -68 -3 -134 3 -111 4 -119 23 -119 19 0 20 7
20 130 0 116 -2 130 -18 133 -9 2 -19 -3 -22 -10z"/>
<path d="M21845 25928 c-3 -8 -4 -68 -3 -134 3 -111 4 -119 23 -119 19 0 20 7
20 130 0 116 -2 130 -18 133 -9 2 -19 -3 -22 -10z"/>
<path d="M21845 25458 c-3 -8 -4 -68 -3 -134 3 -111 4 -119 23 -119 19 0 20 7
20 130 0 116 -2 130 -18 133 -9 2 -19 -3 -22 -10z"/>
<path d="M21845 24988 c-3 -8 -4 -68 -3 -134 3 -111 4 -119 23 -119 19 0 20 7
20 130 0 116 -2 130 -18 133 -9 2 -19 -3 -22 -10z"/>
<path d="M21845 24518 c-3 -8 -4 -68 -3 -134 3 -111 4 -119 23 -119 19 0 20 7
20 130 0 116 -2 130 -18 133 -9 2 -19 -3 -22 -10z"/>
<path d="M19889 23889 c-211 -342 -385 -625 -387 -630 -2 -5 23 -9 55 -9 l58
1 365 591 c201 325 375 609 388 630 l23 38 -59 0 -58 0 -385 -621z"/>
<path d="M19460 24445 c-66 -67 -189 -151 -308 -211 l-107 -54 -22 -67 c-13
-36 -22 -68 -20 -69 6 -7 208 87 281 130 55 32 76 41 71 29 -10 -25 -315 -925
-315 -929 0 -2 33 -4 73 -4 l72 0 42 123 c22 67 115 341 206 610 l166 487 -47
0 c-43 0 -52 -4 -92 -45z"/>
<path d="M20505 24478 c-32 -88 -405 -1193 -405 -1199 0 -15 535 -10 623 6
184 32 331 150 398 316 26 67 29 161 6 206 -18 34 -84 93 -104 93 -25 0 -12
15 33 39 64 34 148 122 181 188 29 60 41 145 29 208 -10 49 -67 110 -124 131
-40 15 -91 18 -340 22 -236 3 -293 1 -297 -10z m503 -137 c86 -17 116 -77 87
-176 -19 -68 -75 -133 -143 -166 -43 -21 -63 -23 -255 -27 l-207 -4 39 108
c21 60 50 146 65 192 l28 82 171 0 c95 -1 191 -5 215 -9z m-106 -533 c49 -22
72 -59 72 -117 -1 -97 -79 -208 -178 -253 -47 -21 -67 -23 -273 -26 l-222 -4
72 212 72 211 210 -3 c167 -3 217 -7 247 -20z"/>
<path d="M21845 24048 c-3 -8 -4 -68 -3 -134 3 -111 4 -119 23 -119 19 0 20 7
20 130 0 116 -2 130 -18 133 -9 2 -19 -3 -22 -10z"/>
<path d="M30295 23757 c-60 -20 -120 -53 -160 -88 -39 -35 -42 -31 -20 31 8
23 15 44 15 46 0 2 -30 4 -67 4 l-68 0 -204 -603 c-112 -331 -206 -608 -209
-614 -3 -10 15 -13 70 -13 l73 0 64 188 c36 103 68 197 72 210 9 22 9 22 47
-16 47 -47 110 -67 190 -59 227 21 431 213 523 492 31 93 34 252 5 305 -45 86
-105 120 -215 126 -47 2 -91 -1 -116 -9z m125 -130 c78 -52 94 -144 51 -287
-67 -219 -198 -362 -346 -377 -101 -11 -168 41 -181 139 -9 61 25 192 77 296
93 190 290 303 399 229z"/>
<path d="M21845 23578 c-3 -8 -4 -68 -3 -134 3 -111 4 -119 23 -119 19 0 20 7
20 130 0 116 -2 130 -18 133 -9 2 -19 -3 -22 -10z"/>
<path d="M21629 23304 c-32 -34 -141 -106 -203 -135 -20 -9 -34 -27 -43 -53
-7 -22 -12 -41 -10 -43 2 -1 47 19 100 46 53 26 97 45 97 41 0 -4 -40 -127
-90 -273 -49 -146 -90 -268 -90 -271 0 -4 19 -6 43 -6 l42 0 119 353 c66 193
121 358 124 365 3 8 -6 12 -25 12 -20 0 -40 -11 -64 -36z"/>
<path d="M21845 23108 c-3 -8 -4 -68 -3 -134 3 -111 4 -119 23 -119 19 0 20 7
20 130 0 116 -2 130 -18 133 -9 2 -19 -3 -22 -10z"/>
<path d="M21845 22638 c-3 -8 -4 -68 -3 -134 3 -111 4 -119 23 -119 19 0 20 7
20 130 0 116 -2 130 -18 133 -9 2 -19 -3 -22 -10z"/>
<path d="M21845 22168 c-3 -8 -4 -68 -3 -134 3 -111 4 -119 23 -119 19 0 20 7
20 130 0 116 -2 130 -18 133 -9 2 -19 -3 -22 -10z"/>
<path d="M21845 21698 c-3 -8 -4 -68 -3 -134 3 -111 4 -119 23 -119 19 0 20 7
20 130 0 116 -2 130 -18 133 -9 2 -19 -3 -22 -10z"/>
<path d="M21845 21228 c-3 -8 -4 -68 -3 -134 3 -111 4 -119 23 -119 19 0 20 7
20 130 0 116 -2 130 -18 133 -9 2 -19 -3 -22 -10z"/>
<path d="M21845 20758 c-3 -8 -4 -68 -3 -134 3 -111 4 -119 23 -119 19 0 20 7
20 130 0 116 -2 130 -18 133 -9 2 -19 -3 -22 -10z"/>
<path d="M21845 20288 c-3 -8 -4 -68 -3 -134 3 -111 4 -119 23 -119 19 0 20 7
20 130 0 116 -2 130 -18 133 -9 2 -19 -3 -22 -10z"/>
<path d="M21845 19828 c-3 -8 -4 -68 -3 -134 3 -111 4 -119 23 -119 19 0 20 7
20 130 0 116 -2 130 -18 133 -9 2 -19 -3 -22 -10z"/>
<path d="M21845 19358 c-3 -8 -4 -68 -3 -134 3 -111 4 -119 23 -119 19 0 20 7
20 130 0 116 -2 130 -18 133 -9 2 -19 -3 -22 -10z"/>
<path d="M21845 18888 c-3 -8 -4 -68 -3 -134 3 -111 4 -119 23 -119 19 0 20 7
20 130 0 116 -2 130 -18 133 -9 2 -19 -3 -22 -10z"/>
<path d="M21845 18418 c-3 -8 -4 -68 -3 -134 3 -111 4 -119 23 -119 19 0 20 7
20 130 0 116 -2 130 -18 133 -9 2 -19 -3 -22 -10z"/>
<path d="M21845 17948 c-3 -8 -4 -68 -3 -134 3 -111 4 -119 23 -119 19 0 20 7
20 130 0 116 -2 130 -18 133 -9 2 -19 -3 -22 -10z"/>
<path d="M21845 17478 c-3 -8 -4 -68 -3 -134 3 -111 4 -119 23 -119 19 0 20 7
20 130 0 116 -2 130 -18 133 -9 2 -19 -3 -22 -10z"/>
<path d="M21845 17008 c-3 -8 -4 -68 -3 -134 3 -111 4 -119 23 -119 19 0 20 7
20 130 0 116 -2 130 -18 133 -9 2 -19 -3 -22 -10z"/>
<path d="M21845 16538 c-3 -8 -4 -68 -3 -134 3 -111 4 -119 23 -119 19 0 20 7
20 130 0 116 -2 130 -18 133 -9 2 -19 -3 -22 -10z"/>
<path d="M21845 16068 c-3 -8 -4 -68 -3 -134 3 -111 4 -119 23 -119 19 0 20 7
20 130 0 116 -2 130 -18 133 -9 2 -19 -3 -22 -10z"/>
<path d="M21845 15598 c-3 -8 -4 -68 -3 -134 3 -111 4 -119 23 -119 19 0 20 7
20 130 0 116 -2 130 -18 133 -9 2 -19 -3 -22 -10z"/>
<path d="M21845 15128 c-3 -8 -4 -68 -3 -134 3 -111 4 -119 23 -119 19 0 20 7
20 130 0 116 -2 130 -18 133 -9 2 -19 -3 -22 -10z"/>
<path d="M21845 14658 c-3 -8 -4 -68 -3 -134 3 -111 4 -119 23 -119 19 0 20 7
20 130 0 116 -2 130 -18 133 -9 2 -19 -3 -22 -10z"/>
<path d="M21845 14190 c-4 -6 -4 -66 0 -132 6 -90 11 -121 22 -125 31 -12 36
13 27 139 -7 102 -12 123 -26 126 -9 2 -19 -2 -23 -8z"/>
<path d="M21855 13718 c-3 -8 -4 -68 -3 -134 3 -111 4 -119 23 -119 19 0 20 7
20 130 0 116 -2 130 -18 133 -9 2 -19 -3 -22 -10z"/>
<path d="M21855 13248 c-3 -8 -4 -68 -3 -134 3 -111 4 -119 23 -119 19 0 20 7
20 130 0 116 -2 130 -18 133 -9 2 -19 -3 -22 -10z"/>
<path d="M21855 12778 c-3 -8 -4 -68 -3 -134 3 -111 4 -119 23 -119 19 0 20 7
20 130 0 116 -2 130 -18 133 -9 2 -19 -3 -22 -10z"/>
<path d="M21855 12308 c-3 -8 -4 -68 -3 -134 3 -111 4 -119 23 -119 19 0 20 7
20 130 0 116 -2 130 -18 133 -9 2 -19 -3 -22 -10z"/>
<path d="M21855 11838 c-3 -8 -4 -68 -3 -134 3 -111 4 -119 23 -119 19 0 20 7
20 130 0 116 -2 130 -18 133 -9 2 -19 -3 -22 -10z"/>
<path d="M21855 11368 c-3 -8 -4 -68 -3 -134 3 -111 4 -119 23 -119 19 0 20 7
20 130 0 116 -2 130 -18 133 -9 2 -19 -3 -22 -10z"/>
<path d="M21855 10898 c-3 -8 -4 -68 -3 -134 3 -111 4 -119 23 -119 19 0 20 7
20 130 0 116 -2 130 -18 133 -9 2 -19 -3 -22 -10z"/>
<path d="M21855 10428 c-3 -8 -4 -68 -3 -134 3 -111 4 -119 23 -119 19 0 20 7
20 130 0 116 -2 130 -18 133 -9 2 -19 -3 -22 -10z"/>
<path d="M21855 9958 c-3 -8 -4 -68 -3 -134 3 -111 4 -119 23 -119 19 0 20 7
20 130 0 116 -2 130 -18 133 -9 2 -19 -3 -22 -10z"/>
<path d="M21855 9488 c-3 -8 -4 -68 -3 -134 3 -111 4 -119 23 -119 19 0 20 7
20 130 0 116 -2 130 -18 133 -9 2 -19 -3 -22 -10z"/>
<path d="M9505 9319 c-45 -13 -97 -61 -128 -118 -36 -64 -14 -70 26 -7 28 44
70 71 104 64 39 -7 27 -64 -72 -353 -52 -154 -95 -283 -95 -287 0 -5 27 -8 59
-8 l59 0 28 83 c15 45 53 159 86 252 l59 170 58 42 c113 83 193 103 245 62 20
-16 26 -29 26 -58 0 -21 -49 -181 -113 -372 -105 -309 -126 -378 -141 -466
l-5 -33 63 0 64 0 6 54 c4 30 61 215 126 411 140 419 149 454 127 508 -27 63
-102 82 -204 52 -41 -12 -148 -78 -220 -137 -8 -7 -10 6 -6 50 5 55 4 60 -22
80 -29 23 -76 27 -130 11z"/>
<path d="M21855 9018 c-3 -8 -4 -68 -3 -134 3 -111 4 -119 23 -119 19 0 20 7
20 130 0 116 -2 130 -18 133 -9 2 -19 -3 -22 -10z"/>
<path d="M21855 8548 c-3 -8 -4 -68 -3 -134 3 -111 4 -119 23 -119 19 0 20 7
20 130 0 116 -2 130 -18 133 -9 2 -19 -3 -22 -10z"/>
<path d="M10460 8369 c-35 -14 -59 -38 -82 -82 l-19 -38 -28 39 c-54 74 -136
81 -200 17 -32 -32 -36 -41 -39 -102 -3 -58 0 -73 20 -103 60 -90 194 -92 249
-4 11 19 22 34 24 34 2 0 19 -22 39 -50 60 -83 126 -100 196 -50 79 56 98 199
38 283 -39 54 -134 81 -198 56z m150 -55 c41 -35 60 -74 60 -124 0 -57 -23
-106 -62 -130 -67 -41 -140 -19 -184 56 l-27 45 28 65 c47 110 118 144 185 88z
m-325 -22 c17 -10 36 -31 44 -45 12 -23 12 -32 -4 -74 -36 -95 -108 -130 -167
-83 -69 54 -59 179 17 211 34 13 79 10 110 -9z"/>
<path d="M21855 8078 c-3 -8 -4 -68 -3 -134 3 -111 4 -119 23 -119 19 0 20 7
20 130 0 116 -2 130 -18 133 -9 2 -19 -3 -22 -10z"/>
<path d="M21855 7608 c-3 -8 -4 -68 -3 -134 3 -111 4 -119 23 -119 19 0 20 7
20 130 0 116 -2 130 -18 133 -9 2 -19 -3 -22 -10z"/>
<path d="M10673 7425 c-11 -30 12 -36 138 -33 116 3 124 4 124 23 0 19 -8 20
-128 23 -109 2 -128 0 -134 -13z"/>
<path d="M11143 7425 c-11 -30 12 -36 138 -33 116 3 124 4 124 23 0 19 -8 20
-128 23 -109 2 -128 0 -134 -13z"/>
<path d="M11613 7425 c-11 -30 12 -36 138 -33 116 3 124 4 124 23 0 19 -8 20
-128 23 -109 2 -128 0 -134 -13z"/>
<path d="M12083 7425 c-11 -30 12 -36 138 -33 116 3 124 4 124 23 0 19 -8 20
-128 23 -109 2 -128 0 -134 -13z"/>
<path d="M12553 7425 c-11 -30 12 -36 138 -33 116 3 124 4 124 23 0 19 -8 20
-128 23 -109 2 -128 0 -134 -13z"/>
<path d="M13023 7425 c-11 -30 12 -36 138 -33 116 3 124 4 124 23 0 19 -8 20
-128 23 -109 2 -128 0 -134 -13z"/>
<path d="M13493 7425 c-11 -30 12 -36 138 -33 116 3 124 4 124 23 0 19 -8 20
-128 23 -109 2 -128 0 -134 -13z"/>
<path d="M13963 7425 c-11 -30 12 -36 138 -33 116 3 124 4 124 23 0 19 -8 20
-128 23 -109 2 -128 0 -134 -13z"/>
<path d="M14433 7425 c-11 -30 12 -36 138 -33 116 3 124 4 124 23 0 19 -8 20
-128 23 -109 2 -128 0 -134 -13z"/>
<path d="M14903 7425 c-11 -30 12 -36 138 -33 116 3 124 4 124 23 0 19 -8 20
-128 23 -109 2 -128 0 -134 -13z"/>
<path d="M15373 7425 c-11 -30 12 -36 138 -33 116 3 124 4 124 23 0 19 -8 20
-128 23 -109 2 -128 0 -134 -13z"/>
<path d="M15843 7425 c-11 -30 12 -36 138 -33 116 3 124 4 124 23 0 19 -8 20
-128 23 -109 2 -128 0 -134 -13z"/>
<path d="M16313 7425 c-11 -30 12 -36 138 -33 116 3 124 4 124 23 0 19 -8 20
-128 23 -109 2 -128 0 -134 -13z"/>
<path d="M16783 7425 c-11 -30 12 -36 138 -33 116 3 124 4 124 23 0 19 -8 20
-128 23 -109 2 -128 0 -134 -13z"/>
<path d="M17253 7425 c-11 -30 12 -36 138 -33 116 3 124 4 124 23 0 19 -8 20
-128 23 -109 2 -128 0 -134 -13z"/>
<path d="M17723 7425 c-11 -30 12 -36 138 -33 116 3 124 4 124 23 0 19 -8 20
-128 23 -109 2 -128 0 -134 -13z"/>
<path d="M18193 7425 c-11 -30 12 -36 138 -33 116 3 124 4 124 23 0 19 -8 20
-128 23 -109 2 -128 0 -134 -13z"/>
<path d="M18663 7425 c-11 -30 12 -36 138 -33 116 3 124 4 124 23 0 19 -8 20
-128 23 -109 2 -128 0 -134 -13z"/>
<path d="M19133 7425 c-11 -30 12 -36 138 -33 116 3 124 4 124 23 0 19 -8 20
-128 23 -109 2 -128 0 -134 -13z"/>
<path d="M19603 7425 c-11 -30 12 -36 138 -33 116 3 124 4 124 23 0 19 -8 20
-128 23 -109 2 -128 0 -134 -13z"/>
<path d="M20073 7425 c-11 -30 12 -36 138 -33 116 3 124 4 124 23 0 19 -8 20
-128 23 -109 2 -128 0 -134 -13z"/>
<path d="M20543 7425 c-11 -30 12 -36 138 -33 116 3 124 4 124 23 0 19 -8 20
-128 23 -109 2 -128 0 -134 -13z"/>
<path d="M21013 7425 c-11 -30 12 -36 138 -33 116 3 124 4 124 23 0 19 -8 20
-128 23 -109 2 -128 0 -134 -13z"/>
<path d="M21483 7425 c-11 -30 12 -36 138 -33 116 3 124 4 124 23 0 19 -8 20
-128 23 -109 2 -128 0 -134 -13z"/>
<path d="M21953 7425 c-11 -30 12 -36 138 -33 116 3 124 4 124 23 0 19 -8 20
-128 23 -109 2 -128 0 -134 -13z"/>
<path d="M22423 7425 c-11 -30 12 -36 138 -33 116 3 124 4 124 23 0 19 -8 20
-128 23 -109 2 -128 0 -134 -13z"/>
<path d="M22893 7425 c-11 -30 12 -36 138 -33 116 3 124 4 124 23 0 19 -8 20
-128 23 -109 2 -128 0 -134 -13z"/>
<path d="M23363 7425 c-11 -30 12 -36 138 -33 116 3 124 4 124 23 0 19 -8 20
-128 23 -109 2 -128 0 -134 -13z"/>
<path d="M23833 7425 c-11 -30 12 -36 138 -33 116 3 124 4 124 23 0 19 -8 20
-128 23 -109 2 -128 0 -134 -13z"/>
<path d="M24303 7425 c-11 -30 12 -36 138 -33 116 3 124 4 124 23 0 19 -8 20
-128 23 -109 2 -128 0 -134 -13z"/>
<path d="M24773 7425 c-11 -30 12 -36 138 -33 116 3 124 4 124 23 0 19 -8 20
-128 23 -109 2 -128 0 -134 -13z"/>
<path d="M25243 7425 c-11 -30 12 -36 138 -33 116 3 124 4 124 23 0 19 -8 20
-128 23 -109 2 -128 0 -134 -13z"/>
<path d="M25713 7425 c-11 -30 12 -36 138 -33 116 3 124 4 124 23 0 19 -8 20
-128 23 -109 2 -128 0 -134 -13z"/>
<path d="M26183 7425 c-11 -30 12 -36 138 -33 116 3 124 4 124 23 0 19 -8 20
-128 23 -109 2 -128 0 -134 -13z"/>
<path d="M26653 7425 c-11 -30 12 -36 138 -33 116 3 124 4 124 23 0 19 -8 20
-128 23 -109 2 -128 0 -134 -13z"/>
<path d="M27123 7425 c-11 -30 12 -36 138 -33 116 3 124 4 124 23 0 19 -8 20
-128 23 -109 2 -128 0 -134 -13z"/>
<path d="M27593 7425 c-11 -30 12 -36 133 -33 111 3 119 4 119 23 0 19 -8 20
-123 23 -105 2 -123 0 -129 -13z"/>
<path d="M28053 7425 c-11 -30 12 -36 138 -33 116 3 124 4 124 23 0 19 -8 20
-128 23 -109 2 -128 0 -134 -13z"/>
<path d="M28523 7425 c-11 -30 12 -36 138 -33 116 3 124 4 124 23 0 19 -8 20
-128 23 -109 2 -128 0 -134 -13z"/>
<path d="M28993 7425 c-11 -30 12 -36 138 -33 116 3 124 4 124 23 0 19 -8 20
-128 23 -109 2 -128 0 -134 -13z"/>
<path d="M29463 7425 c-11 -30 12 -36 138 -33 116 3 124 4 124 23 0 19 -8 20
-128 23 -109 2 -128 0 -134 -13z"/>
<path d="M29933 7425 c-11 -30 12 -36 138 -33 116 3 124 4 124 23 0 19 -8 20
-128 23 -109 2 -128 0 -134 -13z"/>
<path d="M30403 7425 c-11 -30 12 -36 138 -33 116 3 124 4 124 23 0 19 -8 20
-128 23 -109 2 -128 0 -134 -13z"/>
<path d="M30873 7425 c-11 -30 12 -36 138 -33 116 3 124 4 124 23 0 19 -8 20
-128 23 -109 2 -128 0 -134 -13z"/>
<path d="M31343 7425 c-11 -30 12 -36 138 -33 116 3 124 4 124 23 0 19 -8 20
-128 23 -109 2 -128 0 -134 -13z"/>
<path d="M31813 7425 c-11 -30 12 -36 138 -33 116 3 124 4 124 23 0 19 -8 20
-128 23 -109 2 -128 0 -134 -13z"/>
<path d="M32283 7425 c-11 -30 12 -36 138 -33 116 3 124 4 124 23 0 19 -8 20
-128 23 -109 2 -128 0 -134 -13z"/>
<path d="M32753 7425 c-11 -30 12 -36 138 -33 116 3 124 4 124 23 0 19 -8 20
-128 23 -109 2 -128 0 -134 -13z"/>
<path d="M33223 7425 c-11 -30 12 -36 138 -33 116 3 124 4 124 23 0 19 -8 20
-128 23 -109 2 -128 0 -134 -13z"/>
<path d="M33693 7425 c-11 -30 12 -36 138 -33 116 3 124 4 124 23 0 19 -8 20
-128 23 -109 2 -128 0 -134 -13z"/>
<path d="M34163 7425 c-11 -30 12 -36 138 -33 116 3 124 4 124 23 0 19 -8 20
-128 23 -109 2 -128 0 -134 -13z"/>
<path d="M34633 7425 c-11 -30 12 -36 138 -33 116 3 124 4 124 23 0 19 -8 20
-128 23 -109 2 -128 0 -134 -13z"/>
<path d="M35103 7425 c-11 -30 12 -36 138 -33 116 3 124 4 124 23 0 19 -8 20
-128 23 -109 2 -128 0 -134 -13z"/>
<path d="M35573 7425 c-11 -30 12 -36 138 -33 116 3 124 4 124 23 0 19 -8 20
-128 23 -109 2 -128 0 -134 -13z"/>
<path d="M36043 7425 c-11 -30 12 -36 138 -33 116 3 124 4 124 23 0 19 -8 20
-128 23 -109 2 -128 0 -134 -13z"/>
<path d="M36513 7425 c-11 -30 12 -36 138 -33 116 3 124 4 124 23 0 19 -8 20
-128 23 -109 2 -128 0 -134 -13z"/>
<path d="M36983 7425 c-11 -30 12 -36 138 -33 116 3 124 4 124 23 0 19 -8 20
-128 23 -109 2 -128 0 -134 -13z"/>
<path d="M37453 7425 c-11 -30 12 -36 138 -33 116 3 124 4 124 23 0 19 -8 20
-128 23 -109 2 -128 0 -134 -13z"/>
<path d="M37923 7425 c-11 -30 12 -36 138 -33 116 3 124 4 124 23 0 19 -8 20
-128 23 -109 2 -128 0 -134 -13z"/>
<path d="M38393 7425 c-11 -30 12 -36 138 -33 116 3 124 4 124 23 0 19 -8 20
-128 23 -109 2 -128 0 -134 -13z"/>
<path d="M38863 7425 c-11 -30 12 -36 138 -33 116 3 124 4 124 23 0 19 -8 20
-128 23 -109 2 -128 0 -134 -13z"/>
<path d="M39333 7425 c-11 -30 12 -36 138 -33 116 3 124 4 124 23 0 19 -8 20
-128 23 -109 2 -128 0 -134 -13z"/>
<path d="M39803 7425 c-11 -30 12 -36 138 -33 116 3 124 4 124 23 0 19 -8 20
-128 23 -109 2 -128 0 -134 -13z"/>
<path d="M40273 7425 c-11 -30 12 -36 138 -33 116 3 124 4 124 23 0 19 -8 20
-128 23 -109 2 -128 0 -134 -13z"/>
<path d="M40743 7425 c-11 -30 12 -36 138 -33 116 3 124 4 124 23 0 19 -8 20
-128 23 -109 2 -128 0 -134 -13z"/>
<path d="M41213 7425 c-11 -30 12 -36 138 -33 116 3 124 4 124 23 0 19 -8 20
-128 23 -109 2 -128 0 -134 -13z"/>
<path d="M41683 7425 c-11 -30 12 -36 138 -33 116 3 124 4 124 23 0 19 -8 20
-128 23 -109 2 -128 0 -134 -13z"/>
<path d="M42153 7425 c-11 -30 12 -36 138 -33 116 3 124 4 124 23 0 19 -8 20
-128 23 -109 2 -128 0 -134 -13z"/>
<path d="M42623 7425 c-11 -30 12 -36 138 -33 116 3 124 4 124 23 0 19 -8 20
-128 23 -109 2 -128 0 -134 -13z"/>
<path d="M43093 7425 c-11 -30 12 -36 138 -33 116 3 124 4 124 23 0 19 -8 20
-128 23 -109 2 -128 0 -134 -13z"/>
<path d="M43563 7425 c-11 -30 12 -36 138 -33 116 3 124 4 124 23 0 19 -8 20
-128 23 -109 2 -128 0 -134 -13z"/>
<path d="M44033 7425 c-11 -30 12 -36 138 -33 116 3 124 4 124 23 0 19 -8 20
-128 23 -109 2 -128 0 -134 -13z"/>
<path d="M44503 7425 c-11 -30 12 -36 138 -33 116 3 124 4 124 23 0 19 -8 20
-128 23 -109 2 -128 0 -134 -13z"/>
<path d="M44973 7425 c-11 -30 12 -36 138 -33 116 3 124 4 124 23 0 19 -8 20
-128 23 -109 2 -128 0 -134 -13z"/>
<path d="M45443 7425 c-11 -30 12 -36 138 -33 116 3 124 4 124 23 0 19 -8 20
-128 23 -109 2 -128 0 -134 -13z"/>
<path d="M45913 7425 c-11 -30 12 -36 138 -33 116 3 124 4 124 23 0 19 -8 20
-128 23 -109 2 -128 0 -134 -13z"/>
<path d="M46383 7425 c-11 -30 12 -36 138 -33 116 3 124 4 124 23 0 19 -8 20
-128 23 -109 2 -128 0 -134 -13z"/>
<path d="M46853 7425 c-11 -30 12 -36 138 -33 116 3 124 4 124 23 0 19 -8 20
-128 23 -109 2 -128 0 -134 -13z"/>
<path d="M47323 7425 c-11 -30 12 -36 138 -33 116 3 124 4 124 23 0 19 -8 20
-128 23 -109 2 -128 0 -134 -13z"/>
<path d="M47793 7425 c-11 -30 12 -36 138 -33 116 3 124 4 124 23 0 19 -8 20
-128 23 -109 2 -128 0 -134 -13z"/>
<path d="M48263 7425 c-11 -30 12 -36 138 -33 116 3 124 4 124 23 0 19 -8 20
-128 23 -109 2 -128 0 -134 -13z"/>
<path d="M21855 7138 c-3 -8 -4 -68 -3 -134 3 -111 4 -119 23 -119 19 0 20 7
20 130 0 116 -2 130 -18 133 -9 2 -19 -3 -22 -10z"/>
<path d="M21855 6668 c-3 -8 -4 -68 -3 -134 3 -111 4 -119 23 -119 19 0 20 7
20 130 0 116 -2 130 -18 133 -9 2 -19 -3 -22 -10z"/>
<path d="M6172 30069 c-24 -27 -64 -61 -88 -75 -38 -23 -44 -30 -44 -60 0 -39
7 -38 88 13 29 18 55 33 57 33 3 0 5 -103 5 -230 l0 -230 35 0 35 0 0 300 0
300 -22 0 c-15 -1 -39 -19 -66 -51z"/>
<path d="M5700 29735 l0 -35 110 0 110 0 0 35 0 35 -110 0 -110 0 0 -35z"/>
<path d="M4560 29716 c-31 -51 -132 -141 -200 -178 l-60 -33 0 -57 0 -58 28
11 c38 14 108 55 165 96 l47 35 0 -381 0 -381 60 0 60 0 0 490 0 490 -39 0
c-34 0 -42 -5 -61 -34z"/>
<path d="M5190 29735 c-100 -31 -178 -138 -206 -282 -8 -41 -14 -131 -14 -199
0 -210 39 -344 124 -422 103 -95 279 -95 382 0 88 82 124 202 124 423 0 158
-15 246 -56 330 -66 135 -208 195 -354 150z m169 -125 c94 -48 116 -116 116
-360 0 -174 -2 -188 -25 -244 -32 -77 -81 -117 -148 -124 -90 -8 -163 51 -193
158 -18 62 -18 358 -1 427 35 135 145 198 251 143z"/>
<path d="M2110 27905 l0 -156 -37 8 c-61 13 -134 6 -162 -15 -80 -58 -80 -172
0 -273 l30 -39 -41 15 -41 15 3 -42 3 -42 298 -101 c164 -56 298 -106 298
-111 -1 -5 -8 -31 -17 -58 -13 -39 -16 -72 -11 -151 7 -121 27 -181 88 -260
78 -100 182 -149 268 -125 72 19 96 57 160 252 23 70 51 138 62 152 25 31 56
33 101 6 71 -41 108 -120 108 -227 0 -122 -42 -173 -145 -173 l-38 0 8 -72 c3
-40 12 -76 18 -81 7 -4 42 -6 78 -5 52 3 75 9 107 31 64 42 85 92 90 220 7
161 -29 270 -123 375 -80 89 -217 139 -284 103 -41 -22 -75 -86 -126 -232 -28
-82 -59 -159 -68 -169 -25 -29 -78 -26 -117 7 -45 38 -70 101 -70 179 0 103
32 144 112 144 l31 0 -7 61 c-3 34 -6 71 -6 81 0 18 -7 19 -72 17 -58 -2 -91
3 -158 25 -127 43 -126 41 -87 75 29 27 32 34 32 88 -1 108 -65 203 -189 277
l-60 36 42 0 42 0 0 85 0 85 655 0 655 0 0 -85 0 -85 60 0 60 0 0 160 0 160
-775 0 -775 0 0 -155z m23 -255 c104 -39 167 -107 175 -191 4 -43 1 -51 -26
-79 -37 -36 -77 -39 -158 -10 -103 36 -172 110 -181 194 -5 40 -2 48 25 76 37
37 85 40 165 10z"/>
<path d="M2890 26157 c-77 -40 -52 -158 34 -157 73 1 111 81 64 134 -28 31
-65 40 -98 23z"/>
<path d="M2520 25981 c-60 -32 -84 -95 -88 -226 -4 -131 13 -219 61 -308 35
-66 108 -142 167 -176 l38 -21 7 72 c7 69 6 73 -16 88 -57 37 -105 91 -122
137 -35 97 -16 237 36 265 22 11 117 4 147 -12 22 -12 41 -93 66 -275 26 -188
84 -310 179 -378 96 -67 205 -86 265 -44 60 40 73 68 78 163 7 128 -18 214
-97 347 l-23 37 29 0 c69 0 73 6 73 85 l0 72 -72 5 c-56 4 -136 26 -349 97
-153 50 -292 91 -311 91 -18 0 -49 -8 -68 -19z m475 -271 c143 -64 225 -187
225 -339 0 -67 -2 -75 -29 -102 -37 -36 -81 -38 -134 -5 -72 44 -95 96 -122
266 -9 58 -23 127 -31 154 -8 27 -14 54 -14 58 0 12 28 3 105 -32z"/>
<path d="M2266 25168 c-59 -16 -109 -72 -130 -149 -16 -55 -19 -107 -20 -358
l-1 -295 595 -202 c327 -112 598 -203 603 -204 4 0 7 36 7 79 l0 79 -244 82
-244 81 -4 242 c-4 223 -6 247 -27 307 -46 127 -135 226 -261 290 -111 56
-189 70 -274 48z m248 -195 c70 -34 113 -78 144 -143 25 -53 26 -63 30 -277
l4 -222 -219 73 -218 73 2 217 c2 191 4 221 20 249 41 71 132 83 237 30z"/>
<path d="M2110 23610 l0 -160 775 0 775 0 0 160 0 160 -60 0 -60 0 0 -85 0
-85 -655 0 -655 0 0 85 0 85 -60 0 -60 0 0 -160z"/>
<path d="M2440 22772 l0 -77 293 -97 c160 -54 319 -105 352 -114 l60 -17 -80
-24 c-44 -13 -201 -66 -350 -117 l-270 -93 -3 -76 c-2 -46 1 -77 7 -77 5 0
203 70 440 155 236 85 437 155 445 155 33 0 145 -52 172 -81 27 -28 29 -36 29
-111 l0 -80 65 7 c36 4 67 9 69 11 2 2 6 39 9 82 4 65 1 85 -16 119 -32 61
-102 116 -206 162 -77 34 -989 351 -1009 351 -4 0 -7 -35 -7 -78z"/>
<path d="M3238 22003 l-38 -4 0 -58 c0 -95 13 -91 -338 -91 l-302 0 0 75 0 75
-60 0 -60 0 0 -75 0 -75 -151 0 c-83 0 -149 -4 -147 -8 2 -5 21 -38 43 -75
l39 -67 108 0 108 0 0 -55 0 -55 60 0 60 0 0 55 0 55 333 0 c305 0 335 2 367
19 52 28 80 88 80 175 0 39 -3 81 -6 94 -7 23 -11 24 -96 15z"/>
<path d="M2110 21375 l0 -75 80 0 80 0 0 75 0 75 -80 0 -80 0 0 -75z"/>
<path d="M2440 21375 l0 -75 440 0 440 0 0 75 0 75 -440 0 -440 0 0 -75z"/>
<path d="M2975 21094 c-79 -43 -105 -89 -170 -304 -55 -181 -67 -208 -101
-220 -91 -35 -154 29 -154 155 0 100 39 162 114 181 29 7 30 14 19 102 l-6 54
-36 -7 c-147 -28 -220 -155 -208 -361 11 -188 95 -284 248 -284 122 0 186 65
240 244 63 206 81 255 105 281 22 24 31 27 70 22 81 -9 124 -74 124 -187 0
-123 -57 -209 -148 -225 l-38 -6 10 -75 c5 -44 14 -74 21 -74 32 0 116 37 162
72 79 60 105 122 111 263 5 128 -10 197 -61 272 -48 71 -113 107 -201 111 -51
2 -79 -2 -101 -14z"/>
<path d="M2720 20246 c-185 -54 -291 -193 -291 -382 0 -192 107 -330 296 -380
66 -18 256 -18 320 0 109 30 167 67 226 146 53 71 72 143 67 255 -9 173 -97
294 -253 349 -66 24 -299 31 -365 12z m362 -170 c95 -45 138 -113 138 -213 -1
-102 -49 -171 -150 -216 -56 -25 -228 -35 -311 -18 -109 23 -191 99 -207 192
-18 102 26 194 118 244 70 38 110 44 245 41 96 -2 117 -6 167 -30z"/>
<path d="M3014 19306 l-9 -74 49 -11 c110 -25 172 -114 164 -235 -5 -87 -41
-139 -123 -181 -57 -29 -61 -30 -209 -30 -139 0 -155 2 -199 24 -50 25 -108
87 -126 134 -15 40 -14 121 3 161 18 44 61 82 115 103 l43 17 -7 70 c-4 39 -8
72 -10 74 -2 2 -28 -4 -58 -14 -70 -22 -136 -78 -176 -150 -28 -48 -33 -68
-38 -152 -5 -83 -2 -106 17 -162 42 -124 129 -203 266 -241 103 -28 288 -24
377 8 112 42 201 133 232 241 26 88 17 231 -18 297 -33 62 -40 71 -99 118 -42
33 -140 77 -173 77 -7 0 -15 -29 -21 -74z"/>
<path d="M2975 18464 c-79 -43 -105 -89 -170 -304 -55 -181 -67 -208 -101
-220 -91 -35 -154 29 -154 155 0 100 39 162 114 181 29 7 30 14 19 102 l-6 54
-36 -7 c-147 -28 -220 -155 -208 -361 11 -188 95 -284 248 -284 122 0 186 65
240 244 63 206 81 255 105 281 22 24 31 27 70 22 81 -9 124 -74 124 -187 0
-123 -57 -209 -148 -225 l-38 -6 10 -75 c5 -44 14 -74 21 -74 32 0 116 37 162
72 79 60 105 122 111 263 5 128 -10 197 -61 272 -48 71 -113 107 -201 111 -51
2 -79 -2 -101 -14z"/>
<path d="M2110 17515 l0 -75 80 0 80 0 0 75 0 75 -80 0 -80 0 0 -75z"/>
<path d="M2440 17515 l0 -75 440 0 440 0 0 75 0 75 -440 0 -440 0 0 -75z"/>
<path d="M2110 17228 l0 -83 398 -150 c218 -82 458 -171 532 -196 75 -26 128
-50 120 -53 -8 -3 -91 -32 -185 -64 -93 -32 -326 -115 -517 -183 l-348 -124 0
-82 c0 -46 4 -83 9 -83 4 0 275 104 601 230 326 127 595 230 596 230 2 0 4 37
4 83 l0 83 -597 237 c-329 131 -601 237 -605 237 -5 0 -8 -37 -8 -82z"/>
<path d="M6103 14809 c-43 -13 -90 -62 -104 -110 -14 -45 -14 -44 28 -53 29
-7 32 -5 38 22 14 67 106 103 173 68 37 -19 52 -44 52 -86 0 -51 -22 -80 -153
-203 -120 -112 -157 -161 -157 -206 0 -21 4 -21 195 -21 l195 0 0 35 0 35
-145 0 c-84 0 -145 4 -145 9 0 6 44 48 98 95 151 129 184 176 184 256 0 125
-120 199 -259 159z"/>
<path d="M5700 14435 l0 -35 110 0 110 0 0 35 0 35 -110 0 -110 0 0 -35z"/>
<path d="M4560 14416 c-31 -51 -132 -141 -200 -178 l-60 -33 0 -57 0 -58 28
11 c38 14 108 55 165 96 l47 35 0 -381 0 -381 60 0 60 0 0 490 0 490 -39 0
c-34 0 -42 -5 -61 -34z"/>
<path d="M5190 14435 c-100 -31 -178 -138 -206 -282 -8 -41 -14 -131 -14 -199
0 -210 39 -344 124 -422 103 -95 279 -95 382 0 88 82 124 202 124 423 0 158
-15 246 -56 330 -66 135 -208 195 -354 150z m169 -125 c94 -48 116 -116 116
-360 0 -174 -2 -188 -25 -244 -32 -77 -81 -117 -148 -124 -90 -8 -163 51 -193
158 -18 62 -18 358 -1 427 35 135 145 198 251 143z"/>
<path d="M13995 5209 c-38 -11 -79 -52 -99 -100 l-15 -37 31 -6 c44 -9 48 -8
48 10 0 8 13 29 29 45 76 76 210 -9 161 -102 -13 -24 -61 -49 -93 -49 -17 0
-27 -7 -31 -22 -11 -42 -8 -47 28 -41 80 13 150 -62 127 -137 -32 -107 -174
-121 -219 -22 -9 20 -17 39 -18 40 -2 2 -16 1 -33 -3 -35 -8 -40 -29 -17 -74
66 -128 260 -135 337 -12 52 82 33 184 -42 230 l-31 19 25 17 c34 22 51 66 44
121 -11 99 -119 156 -232 123z"/>
<path d="M17753 5209 c-43 -13 -90 -62 -104 -110 -14 -45 -14 -44 28 -53 29
-7 32 -5 38 22 14 67 106 103 173 68 37 -19 52 -44 52 -86 0 -51 -22 -80 -153
-203 -120 -112 -157 -161 -157 -206 0 -21 4 -21 195 -21 l195 0 0 35 0 35
-145 0 c-84 0 -145 4 -145 9 0 6 44 48 98 95 151 129 184 176 184 256 0 125
-120 199 -259 159z"/>
<path d="M21572 5169 c-24 -27 -64 -61 -88 -75 -38 -23 -44 -30 -44 -60 0 -39
7 -38 88 13 29 18 55 33 57 33 3 0 5 -103 5 -230 l0 -230 35 0 35 0 0 300 0
300 -22 0 c-15 -1 -39 -19 -66 -51z"/>
<path d="M25114 5206 c-41 -18 -82 -73 -100 -133 -21 -67 -20 -246 0 -317 37
-125 142 -179 250 -126 51 24 80 67 101 145 31 119 13 298 -38 373 -42 62
-141 89 -213 58z m135 -81 c43 -37 56 -84 56 -210 0 -126 -13 -173 -56 -210
-61 -51 -144 -16 -168 71 -14 50 -14 227 0 278 25 89 105 123 168 71z"/>
<path d="M28922 5169 c-24 -27 -64 -61 -88 -75 -38 -23 -44 -30 -44 -60 0 -39
7 -38 88 13 29 18 55 33 57 33 3 0 5 -103 5 -230 l0 -230 35 0 35 0 0 300 0
300 -22 0 c-15 -1 -39 -19 -66 -51z"/>
<path d="M32613 5209 c-43 -13 -90 -62 -104 -110 -14 -45 -14 -44 28 -53 29
-7 32 -5 38 22 14 67 106 103 173 68 37 -19 52 -44 52 -86 0 -51 -22 -80 -153
-203 -120 -112 -157 -161 -157 -206 0 -21 4 -21 195 -21 l195 0 0 35 0 35
-145 0 c-84 0 -145 4 -145 9 0 6 44 48 98 95 151 129 184 176 184 256 0 125
-120 199 -259 159z"/>
<path d="M36365 5209 c-38 -11 -79 -52 -99 -100 l-15 -37 31 -6 c44 -9 48 -8
48 10 0 8 13 29 29 45 76 76 210 -9 161 -102 -13 -24 -61 -49 -93 -49 -17 0
-27 -7 -31 -22 -11 -42 -8 -47 28 -41 80 13 150 -62 127 -137 -32 -107 -174
-121 -219 -22 -9 20 -17 39 -18 40 -2 2 -16 1 -33 -3 -35 -8 -40 -29 -17 -74
66 -128 260 -135 337 -12 52 82 33 184 -42 230 l-31 19 25 17 c34 22 51 66 44
121 -11 99 -119 156 -232 123z"/>
<path d="M47635 5201 c-91 -41 -129 -128 -130 -296 0 -159 33 -237 119 -276
78 -35 181 -13 223 47 97 140 22 334 -129 334 -37 0 -117 -36 -125 -56 -12
-32 -22 -11 -17 34 17 126 98 192 183 147 16 -8 34 -28 41 -45 12 -28 16 -30
44 -24 17 3 33 8 35 10 9 8 -11 55 -36 85 -50 59 -132 75 -208 40z m125 -276
c57 -29 77 -112 44 -181 -40 -83 -158 -84 -200 -1 -61 117 44 240 156 182z"/>
<path d="M10236 5020 c-112 -157 -136 -197 -136 -225 l0 -35 130 0 130 0 0
-70 0 -70 35 0 35 0 0 70 0 70 40 0 c39 0 40 1 40 35 0 34 -1 35 -40 35 l-40
0 0 190 0 190 -29 0 c-26 0 -42 -18 -165 -190z m124 -60 l0 -130 -95 0 -94 0
91 130 c50 72 93 130 95 130 1 0 3 -58 3 -130z"/>
<path d="M40106 5020 c-112 -157 -136 -197 -136 -225 l0 -35 130 0 130 0 0
-70 0 -70 35 0 35 0 0 70 0 70 40 0 c39 0 40 1 40 35 0 34 -1 35 -40 35 l-40
0 0 190 0 190 -29 0 c-26 0 -42 -18 -165 -190z m124 -60 l0 -130 -95 0 -94 0
91 130 c50 72 93 130 95 130 1 0 3 -58 3 -130z"/>
<path d="M43802 5083 c-13 -71 -26 -140 -29 -154 -4 -24 -1 -28 27 -34 26 -6
37 -2 60 20 37 35 101 44 145 21 114 -62 69 -255 -60 -256 -45 0 -91 33 -105
74 -12 37 -18 40 -57 30 -29 -8 -29 -35 -2 -83 61 -109 222 -122 308 -25 83
94 77 223 -13 302 -55 48 -143 54 -204 14 -23 -15 -24 -15 -19 3 3 11 11 48
18 83 l12 62 118 0 119 0 0 35 0 35 -148 0 -147 0 -23 -127z"/>
<path d="M9840 4835 l0 -35 110 0 110 0 0 35 0 35 -110 0 -110 0 0 -35z"/>
<path d="M13590 4835 l0 -35 110 0 110 0 0 35 0 35 -110 0 -110 0 0 -35z"/>
<path d="M17350 4835 l0 -35 110 0 110 0 0 35 0 35 -110 0 -110 0 0 -35z"/>
<path d="M21100 4835 l0 -35 110 0 110 0 0 35 0 35 -110 0 -110 0 0 -35z"/>
<path d="M8700 4816 c-31 -51 -132 -141 -200 -178 l-60 -33 0 -57 0 -58 28 11
c38 14 108 55 165 96 l47 35 0 -381 0 -381 60 0 60 0 0 490 0 490 -39 0 c-34
0 -42 -5 -61 -34z"/>
<path d="M9330 4835 c-100 -31 -178 -138 -206 -282 -8 -41 -14 -131 -14 -199
0 -210 39 -344 124 -422 103 -95 279 -95 382 0 88 82 124 202 124 423 0 158
-15 246 -56 330 -66 135 -208 195 -354 150z m169 -125 c94 -48 116 -116 116
-360 0 -174 -2 -188 -25 -244 -32 -77 -81 -117 -148 -124 -90 -8 -163 51 -193
158 -18 62 -18 358 -1 427 35 135 145 198 251 143z"/>
<path d="M12450 4816 c-31 -51 -132 -141 -200 -178 l-60 -33 0 -57 0 -58 28
11 c38 14 108 55 165 96 l47 35 0 -381 0 -381 60 0 60 0 0 490 0 490 -39 0
c-34 0 -42 -5 -61 -34z"/>
<path d="M13080 4835 c-100 -31 -178 -138 -206 -282 -8 -41 -14 -131 -14 -199
0 -210 39 -344 124 -422 103 -95 279 -95 382 0 88 82 124 202 124 423 0 158
-15 246 -56 330 -66 135 -208 195 -354 150z m169 -125 c94 -48 116 -116 116
-360 0 -174 -2 -188 -25 -244 -32 -77 -81 -117 -148 -124 -90 -8 -163 51 -193
158 -18 62 -18 358 -1 427 35 135 145 198 251 143z"/>
<path d="M16210 4816 c-31 -51 -132 -141 -200 -178 l-60 -33 0 -57 0 -58 28
11 c38 14 108 55 165 96 l47 35 0 -381 0 -381 60 0 60 0 0 490 0 490 -39 0
c-34 0 -42 -5 -61 -34z"/>
<path d="M16840 4835 c-100 -31 -178 -138 -206 -282 -8 -41 -14 -131 -14 -199
0 -210 39 -344 124 -422 103 -95 279 -95 382 0 88 82 124 202 124 423 0 158
-15 246 -56 330 -66 135 -208 195 -354 150z m169 -125 c94 -48 116 -116 116
-360 0 -174 -2 -188 -25 -244 -32 -77 -81 -117 -148 -124 -90 -8 -163 51 -193
158 -18 62 -18 358 -1 427 35 135 145 198 251 143z"/>
<path d="M19960 4816 c-31 -51 -132 -141 -200 -178 l-60 -33 0 -57 0 -58 28
11 c38 14 108 55 165 96 l47 35 0 -381 0 -381 60 0 60 0 0 490 0 490 -39 0
c-34 0 -42 -5 -61 -34z"/>
<path d="M20590 4835 c-100 -31 -178 -138 -206 -282 -8 -41 -14 -131 -14 -199
0 -210 39 -344 124 -422 103 -95 279 -95 382 0 88 82 124 202 124 423 0 158
-15 246 -56 330 -66 135 -208 195 -354 150z m169 -125 c94 -48 116 -116 116
-360 0 -174 -2 -188 -25 -244 -32 -77 -81 -117 -148 -124 -90 -8 -163 51 -193
158 -18 62 -18 358 -1 427 35 135 145 198 251 143z"/>
<path d="M23850 4816 c-31 -51 -132 -141 -200 -178 l-60 -33 0 -57 0 -58 28
11 c38 14 108 55 165 96 l47 35 0 -381 0 -381 60 0 60 0 0 490 0 490 -39 0
c-34 0 -42 -5 -61 -34z"/>
<path d="M24480 4835 c-100 -31 -178 -138 -206 -282 -8 -41 -14 -131 -14 -199
0 -210 39 -344 124 -422 103 -95 279 -95 382 0 88 82 124 202 124 423 0 158
-15 246 -56 330 -66 135 -208 195 -354 150z m169 -125 c94 -48 116 -116 116
-360 0 -174 -2 -188 -25 -244 -32 -77 -81 -117 -148 -124 -90 -8 -163 51 -193
158 -18 62 -18 358 -1 427 35 135 145 198 251 143z"/>
<path d="M27600 4816 c-31 -51 -132 -141 -200 -178 l-60 -33 0 -57 0 -58 28
11 c38 14 108 55 165 96 l47 35 0 -381 0 -381 60 0 60 0 0 490 0 490 -39 0
c-34 0 -42 -5 -61 -34z"/>
<path d="M28230 4835 c-100 -31 -178 -138 -206 -282 -8 -41 -14 -131 -14 -199
0 -210 39 -344 124 -422 103 -95 279 -95 382 0 88 82 124 202 124 423 0 158
-15 246 -56 330 -66 135 -208 195 -354 150z m169 -125 c94 -48 116 -116 116
-360 0 -174 -2 -188 -25 -244 -32 -77 -81 -117 -148 -124 -90 -8 -163 51 -193
158 -18 62 -18 358 -1 427 35 135 145 198 251 143z"/>
<path d="M31350 4816 c-31 -51 -132 -141 -200 -178 l-60 -33 0 -57 0 -58 28
11 c38 14 108 55 165 96 l47 35 0 -381 0 -381 60 0 60 0 0 490 0 490 -39 0
c-34 0 -42 -5 -61 -34z"/>
<path d="M31980 4835 c-100 -31 -178 -138 -206 -282 -8 -41 -14 -131 -14 -199
0 -210 39 -344 124 -422 103 -95 279 -95 382 0 88 82 124 202 124 423 0 158
-15 246 -56 330 -66 135 -208 195 -354 150z m169 -125 c94 -48 116 -116 116
-360 0 -174 -2 -188 -25 -244 -32 -77 -81 -117 -148 -124 -90 -8 -163 51 -193
158 -18 62 -18 358 -1 427 35 135 145 198 251 143z"/>
<path d="M35100 4816 c-31 -51 -132 -141 -200 -178 l-60 -33 0 -57 0 -58 28
11 c38 14 108 55 165 96 l47 35 0 -381 0 -381 60 0 60 0 0 490 0 490 -39 0
c-34 0 -42 -5 -61 -34z"/>
<path d="M35730 4835 c-100 -31 -178 -138 -206 -282 -8 -41 -14 -131 -14 -199
0 -210 39 -344 124 -422 103 -95 279 -95 382 0 88 82 124 202 124 423 0 158
-15 246 -56 330 -66 135 -208 195 -354 150z m169 -125 c94 -48 116 -116 116
-360 0 -174 -2 -188 -25 -244 -32 -77 -81 -117 -148 -124 -90 -8 -163 51 -193
158 -18 62 -18 358 -1 427 35 135 145 198 251 143z"/>
<path d="M38850 4816 c-31 -51 -132 -141 -200 -178 l-60 -33 0 -57 0 -58 28
11 c38 14 108 55 165 96 l47 35 0 -381 0 -381 60 0 60 0 0 490 0 490 -39 0
c-34 0 -42 -5 -61 -34z"/>
<path d="M39480 4835 c-100 -31 -178 -138 -206 -282 -8 -41 -14 -131 -14 -199
0 -210 39 -344 124 -422 103 -95 279 -95 382 0 88 82 124 202 124 423 0 158
-15 246 -56 330 -66 135 -208 195 -354 150z m169 -125 c94 -48 116 -116 116
-360 0 -174 -2 -188 -25 -244 -32 -77 -81 -117 -148 -124 -90 -8 -163 51 -193
158 -18 62 -18 358 -1 427 35 135 145 198 251 143z"/>
<path d="M42610 4816 c-31 -51 -132 -141 -200 -178 l-60 -33 0 -57 0 -58 28
11 c38 14 108 55 165 96 l47 35 0 -381 0 -381 60 0 60 0 0 490 0 490 -39 0
c-34 0 -42 -5 -61 -34z"/>
<path d="M43240 4835 c-100 -31 -178 -138 -206 -282 -8 -41 -14 -131 -14 -199
0 -210 39 -344 124 -422 103 -95 279 -95 382 0 88 82 124 202 124 423 0 158
-15 246 -56 330 -66 135 -208 195 -354 150z m169 -125 c94 -48 116 -116 116
-360 0 -174 -2 -188 -25 -244 -32 -77 -81 -117 -148 -124 -90 -8 -163 51 -193
158 -18 62 -18 358 -1 427 35 135 145 198 251 143z"/>
<path d="M46360 4816 c-31 -51 -132 -141 -200 -178 l-60 -33 0 -57 0 -58 28
11 c38 14 108 55 165 96 l47 35 0 -381 0 -381 60 0 60 0 0 490 0 490 -39 0
c-34 0 -42 -5 -61 -34z"/>
<path d="M46990 4835 c-100 -31 -178 -138 -206 -282 -8 -41 -14 -131 -14 -199
0 -210 39 -344 124 -422 103 -95 279 -95 382 0 88 82 124 202 124 423 0 158
-15 246 -56 330 -66 135 -208 195 -354 150z m169 -125 c94 -48 116 -116 116
-360 0 -174 -2 -188 -25 -244 -32 -77 -81 -117 -148 -124 -90 -8 -163 51 -193
158 -18 62 -18 358 -1 427 35 135 145 198 251 143z"/>
<path d="M32999 3104 c-32 -34 -141 -106 -203 -135 -20 -9 -34 -27 -43 -53 -7
-22 -12 -41 -10 -43 2 -1 47 19 100 46 53 26 97 45 97 41 0 -4 -40 -127 -90
-273 -49 -146 -90 -268 -90 -271 0 -4 19 -6 43 -6 l42 0 119 353 c66 193 121
358 124 365 3 8 -6 12 -25 12 -20 0 -40 -11 -64 -36z"/>
<path d="M22804 2705 c-179 -39 -289 -160 -289 -320 0 -131 77 -234 212 -285
32 -12 134 -42 226 -66 183 -48 251 -77 289 -123 74 -87 23 -225 -105 -282
-44 -20 -68 -24 -163 -24 -110 0 -112 0 -190 40 -94 47 -136 101 -156 196 -13
66 -10 64 -105 53 -52 -7 -53 -8 -53 -39 0 -44 27 -132 56 -181 30 -52 108
-126 160 -152 103 -52 272 -74 402 -52 91 15 198 67 246 120 19 22 48 63 63
92 24 47 28 64 28 143 0 78 -4 97 -27 141 -61 117 -151 164 -446 234 -151 37
-214 63 -252 107 -25 28 -30 42 -30 84 0 63 20 101 71 139 52 38 133 54 237
47 146 -9 238 -76 257 -188 7 -43 9 -44 104 -32 l53 6 -5 47 c-13 105 -83 202
-180 250 -115 56 -271 74 -403 45z"/>
<path d="M32261 2698 c-5 -13 -11 -33 -15 -45 l-7 -23 136 0 c149 0 137 -5
159 68 l7 22 -136 0 c-131 0 -136 -1 -144 -22z"/>
<path d="M23630 2090 l0 -610 74 0 74 0 4 303 c3 283 4 305 24 348 70 150 303
175 372 39 21 -43 22 -52 22 -367 l0 -323 75 0 75 0 0 330 c0 200 -4 349 -11
380 -15 70 -62 128 -134 165 -53 27 -67 30 -154 30 -111 -1 -161 -18 -230 -80
l-41 -37 0 216 0 216 -75 0 -75 0 0 -610z"/>
<path d="M30930 1920 l0 -780 160 0 160 0 0 60 0 60 -90 0 -90 0 0 660 0 660
90 0 90 0 0 60 0 60 -160 0 -160 0 0 -780z"/>
<path d="M33060 2640 l0 -60 90 0 90 0 0 -660 0 -660 -90 0 -90 0 0 -60 0 -60
165 0 165 0 0 780 0 780 -165 0 -165 0 0 -60z"/>
<path d="M29128 2629 l-68 -40 0 -110 0 -109 -55 0 -55 0 0 -60 0 -60 54 0 55
0 3 -337 c3 -379 4 -380 75 -425 33 -20 51 -23 135 -23 53 0 98 2 101 5 3 3 0
33 -6 68 l-10 62 -53 0 c-41 0 -59 5 -74 20 -19 19 -20 33 -20 325 l0 305 75
0 75 0 0 60 0 60 -75 0 -75 0 0 150 c0 83 -3 150 -7 150 -5 0 -38 -18 -75 -41z"/>
<path d="M24830 2375 c-139 -39 -230 -135 -276 -290 -25 -87 -23 -258 5 -345
53 -168 177 -263 358 -277 170 -13 321 55 385 174 45 84 45 90 -4 98 -24 3
-57 9 -74 12 -29 4 -33 1 -62 -51 -70 -123 -239 -154 -359 -66 -51 38 -101
131 -110 208 l-6 52 332 0 331 0 0 43 c0 200 -100 371 -248 428 -75 28 -198
34 -272 14z m195 -116 c59 -17 129 -90 149 -158 29 -99 50 -91 -229 -91 l-245
0 0 33 c0 41 33 113 68 151 60 64 164 90 257 65z"/>
<path d="M25800 2383 c-150 -25 -254 -111 -285 -236 -6 -23 -4 -25 37 -32 24
-3 55 -8 70 -11 24 -5 29 -1 49 46 39 92 107 126 234 118 131 -9 194 -67 195
-180 0 -44 -2 -47 -32 -56 -51 -16 -76 -20 -219 -42 -158 -23 -186 -31 -245
-65 -112 -66 -153 -209 -93 -326 83 -165 365 -186 557 -42 18 14 35 23 38 20
2 -2 10 -24 17 -48 l13 -44 77 -3 c42 -2 77 -1 77 1 0 3 -8 24 -17 48 -14 36
-18 98 -22 359 -6 313 -6 316 -31 365 -47 90 -161 137 -326 134 -38 -1 -80 -4
-94 -6z m298 -541 c-7 -92 -23 -136 -69 -181 -73 -73 -213 -102 -302 -63 -114
50 -114 190 -1 238 17 7 88 23 158 34 70 12 144 28 164 35 20 7 41 14 46 14 5
1 6 -34 4 -77z"/>
<path d="M26730 2368 c-25 -13 -59 -42 -77 -66 l-33 -44 0 56 0 56 -70 0 -70
0 0 -445 0 -445 74 0 74 0 4 303 c3 256 7 309 21 347 41 106 130 147 220 101
20 -10 39 -16 41 -12 6 10 46 115 46 122 0 13 -80 42 -130 46 -44 4 -64 0
-100 -19z"/>
<path d="M27760 2368 c-25 -13 -59 -42 -77 -66 l-33 -44 0 56 0 56 -70 0 -70
0 0 -445 0 -445 74 0 74 0 4 303 c3 256 7 309 21 347 41 106 130 147 220 101
20 -10 39 -16 41 -12 6 10 46 115 46 122 0 13 -80 42 -130 46 -44 4 -64 0
-100 -19z"/>
<path d="M28350 2383 c-150 -25 -254 -111 -285 -236 -6 -23 -4 -25 37 -32 24
-3 55 -8 70 -11 24 -5 29 -1 49 46 39 92 107 126 234 118 131 -9 194 -67 195
-180 0 -44 -2 -47 -32 -56 -51 -16 -76 -20 -219 -42 -158 -23 -186 -31 -245
-65 -112 -66 -153 -209 -93 -326 83 -165 365 -186 557 -42 18 14 35 23 38 20
2 -2 10 -24 17 -48 l13 -44 77 -3 c42 -2 77 -1 77 1 0 3 -8 24 -17 48 -14 36
-18 98 -22 359 -6 313 -6 316 -31 365 -47 90 -161 137 -326 134 -38 -1 -80 -4
-94 -6z m298 -541 c-7 -92 -23 -136 -69 -181 -73 -73 -213 -102 -302 -63 -114
50 -114 190 -1 238 17 7 88 23 158 34 70 12 144 28 164 35 20 7 41 14 46 14 5
1 6 -34 4 -77z"/>
<path d="M29750 2375 c-139 -39 -230 -135 -276 -290 -25 -87 -23 -258 5 -345
53 -168 177 -263 358 -277 170 -13 321 55 385 174 45 84 45 90 -4 98 -24 3
-57 9 -74 12 -29 4 -33 1 -62 -51 -70 -123 -239 -154 -359 -66 -51 38 -101
131 -110 208 l-6 52 332 0 331 0 0 43 c0 200 -100 371 -248 428 -75 28 -198
34 -272 14z m195 -116 c59 -17 129 -90 149 -158 29 -99 50 -91 -229 -91 l-245
0 0 33 c0 41 33 113 68 151 60 64 164 90 257 65z"/>
<path d="M31860 2372 c-36 -9 -87 -30 -113 -46 -171 -99 -232 -297 -121 -385
15 -12 98 -44 184 -71 176 -56 196 -70 187 -127 -14 -87 -109 -153 -231 -161
-133 -8 -207 49 -193 151 l5 39 -31 -6 c-18 -3 -54 -8 -81 -12 l-48 -7 4 -77
c3 -56 10 -87 27 -113 68 -111 318 -129 500 -37 152 76 256 260 204 360 -26
51 -67 73 -238 130 -169 56 -201 78 -188 129 19 76 88 120 200 128 101 7 147
-10 169 -63 9 -21 14 -48 11 -62 -4 -22 -2 -23 27 -18 17 3 52 8 79 12 l47 6
0 57 c0 82 -23 120 -93 155 -75 38 -207 46 -307 18z"/>
</g>
</svg>
